<?xml version="1.0" encoding="utf-8"?>
<!-- Generator: Adobe Illustrator 17.1.0, SVG Export Plug-In . SVG Version: 6.00 Build 0)  -->
<!DOCTYPE svg PUBLIC "-//W3C//DTD SVG 1.0//EN" "http://www.w3.org/TR/2001/REC-SVG-20010904/DTD/svg10.dtd">
<svg version="1.0" id="Layer_1" xmlns="http://www.w3.org/2000/svg" xmlns:xlink="http://www.w3.org/1999/xlink" x="0px" y="0px"
	 width="208px" height="110px" viewBox="0 0 208 110" enable-background="new 0 0 208 110" xml:space="preserve">
<path fill-rule="evenodd" clip-rule="evenodd" fill="#FFFFFF" d="M93.7,95l1.5-9.8l1.5,9.8H93.7L93.7,95z M74,7.9L87.8,0h32.3
	L134,7.9c0,16.1,0,33,0,49.1l-30,17.3L74,57C74,40.9,74,24,74,7.9L74,7.9z M126,18.1l-22,12.7v11l13-8.5v14.1L104,55l-13-7.6V18.1
	l13,7.6c7.3-4.2,14.6-8.5,21.9-12.7l-8.7-5.1L104,15.6L90.9,7.9L82,13c0,12.9,0,26.6,0,39.5l22,12.7l22-12.7
	C126,41.3,126,29.3,126,18.1L126,18.1z M119.2,3.5H88.7L78,9.9V55l26,15.3L130,55v-45L119.2,3.5L119.2,3.5z M161.6,68.9H151
	l-4.5,16.8l-4.5-16.8h-10.6V110h8.4V93.6l4.3,16.4h4.7l4.3-16.4V110h8.4V68.9L161.6,68.9z M197.9,68.9c6.8,0,10.1,4,10.1,10.7v5
	c0,6.8-3.5,10.7-10.1,10.7h-1.6V110c-2.8,0-5.6,0-8.4,0V68.9H197.9L197.9,68.9z M197.9,76.8h-1.6v10.5h1.6c1.6,0,1.7-0.9,1.7-2.4
	v-5.7C199.6,77.8,199.5,76.8,197.9,76.8L197.9,76.8z M173.3,95l1.5-9.8l1.5,9.8H173.3L173.3,95z M169,68.9l-6.5,41.1h8.5l1-7.4h5.3
	l1,7.4h8.5l-6.5-41.1H169L169,68.9z M89.3,69.7L83,110h8.5l1-7.4h5.3l1,7.4h8.5l-5.2-32.8L89.3,69.7L89.3,69.7z M47.6,78.9v20.6
	c0,1.5,0.3,2.5,1.9,2.5c1.6,0,1.9-1.1,1.9-2.5V78.9c0-1.5-0.2-2.5-1.9-2.5C47.9,76.4,47.6,77.5,47.6,78.9L47.6,78.9z M39.2,99.2
	V79.3c0-6.6,3.6-10.8,10.3-10.8s10.3,4.2,10.3,10.8v19.8c0,6.6-3.6,11.3-10.3,11.3C42.8,110.4,39.2,105.8,39.2,99.2L39.2,99.2z
	 M72.5,68.9c-3.4,0-6.8,0-10.2,0c0,13.5,0,27.5,0,41.1c3.5,0,7.1,0,10.6,0c6.6,0,10.3-4.1,10.3-10.7v-3.1c0-3.1-0.7-6.3-3.3-8.3
	c2.2-1.9,2.7-4.8,2.7-7.6v-1.4C82.6,72.2,79.2,68.9,72.5,68.9L72.5,68.9z M72.1,92.4c2.4,0,2.6,1.1,2.6,3.4v3.3
	c0,1.6-0.1,2.5-1.9,2.5h-2.2v-9.3H72.1L72.1,92.4z M72.4,76.8c1.7,0,1.8,1.2,1.8,2.7v2.1c0,1.9-0.4,2.8-2.4,2.8h-1.1v-7.6H72.4
	L72.4,76.8z M12.2,93.7h-1.8c0-2.6,0-5.3,0-7.9c3.3,0,6.4,0,9.7,0c0,4.4,0,8.9,0,13.3c0,6.6-3.2,10.8-9.9,10.8S0,105.7,0,99.2V79.3
	c0-6.4,3.3-10.8,10.1-10.8c6.9,0,9.9,4.4,9.9,10.8v4c-2.7,0-5.2,0-7.9,0v-4.4c0-1.5-0.2-2.5-1.9-2.5c-1.6,0-1.9,1.1-1.9,2.5v20.6
	c0,1.5,0.2,2.5,1.9,2.5c1.6,0,1.9-1,1.9-2.5V93.7L12.2,93.7z M116.7,70.9l-8.4,4.9V110h15.6l0-8.4h-7.2V70.9L116.7,70.9z M22.8,68.9
	h8.4v32.7h7.2v8.4H22.8V68.9z"/>
</svg>
