<?xml version="1.0" encoding="utf-8"?>
<!-- Generator: Adobe Illustrator 22.0.1, SVG Export Plug-In . SVG Version: 6.00 Build 0)  -->
<svg version="1.1" id="Layer_1" xmlns="http://www.w3.org/2000/svg" xmlns:xlink="http://www.w3.org/1999/xlink" x="0px" y="0px"
	 viewBox="0 0 339.6 254.7" style="enable-background:new 0 0 339.6 254.7;" xml:space="preserve">
<style type="text/css">
	.st0{fill:#FFFFFF;}
</style>
<g id="accuracy">
	<path class="st0" d="M169.8,88.7c4.3,0,7.7,3.5,7.7,7.7s-3.5,7.7-7.7,7.7s-7.7-3.5-7.7-7.7S165.5,88.7,169.8,88.7 M169.8,84.7
		c-6.5,0-11.7,5.3-11.7,11.7s5.3,11.7,11.7,11.7s11.7-5.3,11.7-11.7S176.2,84.7,169.8,84.7L169.8,84.7z"/>
	<g>
		<path class="st0" d="M176.3,183.2v3.8c24.8-2.7,45.1-19.7,52.8-42.6h-4C217.6,165.1,198.8,180.5,176.3,183.2z"/>
	</g>
	<g>
		<path class="st0" d="M235.4,152.8h-0.6v-8.5h-2.6c-8.1,25.4-31.2,44.2-58.9,45.9v-9.8c23.3-1.6,42.6-17.4,49.5-38.8l-4.3-7.4
			c-4.4,21.7-22.7,38.3-45.2,40.1v-5.1h-7v5.2c-23.2-1.4-42.1-18.5-46.3-40.8l-4.3,7.5c6.9,21.9,26.8,38.1,50.7,39.3v9.8
			c-28.1-1.3-51.7-20.2-59.9-45.9h-0.6v8.5h-2.6c10.7,24.7,34.8,42.3,63.1,43.4v0.1h7v-0.1C201.2,194.7,224.9,177.3,235.4,152.8z"/>
	</g>
	<g>
		<path class="st0" d="M163.3,187v-3.8c-23.1-2.3-42.2-17.8-49.8-38.9h-4C117.2,167.6,138,184.7,163.3,187z"/>
	</g>
	<g>
		<path class="st0" d="M222.5,177.2c-9,9.1-20.1,15.6-32.2,19.1h16.3v17h38v-60.5h-5.9C235,161.8,229.5,170.1,222.5,177.2z"/>
	</g>
	<g>
		<path class="st0" d="M116.4,177.5c-7.2-7.1-12.8-15.5-16.5-24.7h-6.1v60.5h38v-17h16.6C136.4,192.9,125.4,186.5,116.4,177.5z"/>
	</g>
	<g>
		<polygon class="st0" points="212.5,127.8 214.8,127.8 212.5,123.9 		"/>
	</g>
	<g>
		<polygon class="st0" points="127,121.4 123.3,127.8 127,127.8 		"/>
	</g>
	<path class="st0" d="M251,120.8h-9.8C239.4,84,210,54.5,173.3,52.4V41.8h-7v10.6c-37.2,1.5-67.1,31.3-68.9,68.4h-8.8v7h8.8
		c1.8,37.1,31.7,66.9,68.9,68.4v11.6h7v-11.6c36.7-2,66.1-31.6,67.9-68.4h9.8L251,120.8L251,120.8z M235.2,120.8h-9.8
		c-1.7-28.1-24.1-50.6-52.1-52.6v-9.8C206.7,60.5,233.4,87.4,235.2,120.8z M219.4,127.8c-1.7,24.8-21.4,44.6-46.1,46.6v-5.1h-7v5.2
		c-25.2-1.5-45.4-21.6-47.1-46.7h7.9v-7h-7.9c1.7-25.1,22-45.2,47.1-46.7v6.2h7v-6.1c24.7,2,44.4,21.8,46.1,46.6h-6.9v7L219.4,127.8
		L219.4,127.8z M166.3,58.4v9.8c-28.5,1.5-51.4,24.2-53.1,52.7h-9.8C105.1,87.1,132.4,59.9,166.3,58.4z M103.4,127.8h9.8
		c1.7,28.4,24.6,51.2,53.1,52.7v9.8C132.4,188.7,105.1,161.6,103.4,127.8z M173.3,190.2v-9.8c28-2,50.4-24.5,52.1-52.6h9.8
		C233.4,161.3,206.7,188.2,173.3,190.2z"/>
	<g>
		<g>
			<path class="st0" d="M130,120.8v7c0,0.5-0.2,1-0.4,1.5h80.3c-0.3-0.4-0.4-0.9-0.4-1.5v-7c0-0.5,0.1-1,0.4-1.4l-13.2-22.9H185l0,0
				c0,8.4-6.8,15.2-15.2,15.2s-15.2-6.8-15.2-15.2l0,0h-13.1l-12.7,21.9C129.5,118.9,130,119.8,130,120.8z"/>
		</g>
		<g>
			<path class="st0" d="M123.1,134.3c4.2,19.4,20.3,34.3,40.2,36.9v-1.9c0-1.7,1.3-3,3-3h7c1.7,0,3,1.3,3,3v1.7
				c19.4-2.9,35-17.8,39.2-36.7L123.1,134.3L123.1,134.3z"/>
		</g>
	</g>
</g>
</svg>
