<?xml version="1.0" encoding="utf-8"?>
<!-- Generator: Adobe Illustrator 22.0.1, SVG Export Plug-In . SVG Version: 6.00 Build 0)  -->
<svg version="1.1" id="ALTERNATIVE_GAMEPLAY" xmlns="http://www.w3.org/2000/svg" xmlns:xlink="http://www.w3.org/1999/xlink"
	 x="0px" y="0px" viewBox="0 0 339.6 254.7" style="enable-background:new 0 0 339.6 254.7;" xml:space="preserve">
<style type="text/css">
	.st0{fill:#FFFFFF;}
</style>
<polygon class="st0" points="159.9,75 153.3,82 155.9,84.4 149.5,91.2 165.6,107 165.9,106.7 177.1,103.9 196,119.7 209.6,141.7 
	192.2,158.7 171.8,148 170,145.8 169.5,145.8 163.8,145.8 160.2,145.8 162.1,142.7 164.3,138.9 152.9,125.1 157.7,114.2 142.5,98.5 
	132.2,109.4 129.6,107 123.1,113.9 125.7,116.3 194.2,181.2 196.5,183.5 203.1,176.5 200.7,174.3 224.4,149.3 226.8,151.5 
	233.3,144.6 "/>
<polygon class="st0" points="194.1,121.3 176.4,106.7 167.1,109 165.5,110.5 140.4,85.7 137.1,89.3 161.3,114.3 159.8,115.7 
	155.8,124.7 165.7,136.7 170.4,128.9 173.3,124.1 175,121.2 176.7,124.1 179.6,128.9 187.9,142.7 189.7,145.8 186.2,145.8 
	180.5,145.8 179.3,145.8 178.7,144.8 175,138.6 171.7,143.9 173.4,146 191.8,155.7 206.4,141.3 "/>
<rect x="171.8" y="41.8" class="st0" width="6.4" height="23.8"/>
<rect x="246.4" y="116.5" transform="matrix(-1.836970e-16 1 -1 -1.836970e-16 377.9445 -121.2778)" class="st0" width="6.4" height="23.8"/>
<rect x="171.8" y="191.1" class="st0" width="6.4" height="23.8"/>
<rect x="97.2" y="116.5" transform="matrix(-1.836970e-16 1 -1 -1.836970e-16 228.6945 27.9722)" class="st0" width="6.4" height="23.8"/>
<rect x="173.4" y="44.3" class="st0" width="2.8" height="12"/>
<rect x="154.1" y="46.8" transform="matrix(0.9686 -0.2486 0.2486 0.9686 -8.2361 40.3159)" class="st0" width="2.8" height="12"/>
<rect x="143.6" y="50.3" transform="matrix(0.9237 -0.3832 0.3832 0.9237 -10.4889 59.8897)" class="st0" width="2.8" height="12"/>
<rect x="134.4" y="54.9" transform="matrix(0.8645 -0.5027 0.5027 0.8645 -12.1973 76.5065)" class="st0" width="2.8" height="12"/>
<rect x="125.9" y="60.5" transform="matrix(0.7914 -0.6113 0.6113 0.7914 -14.1207 91.7152)" class="st0" width="2.8" height="12"/>
<rect x="118.1" y="67.5" transform="matrix(0.7025 -0.7117 0.7117 0.7025 -16.7243 106.9249)" class="st0" width="2.8" height="12"/>
<rect x="111.3" y="75.3" transform="matrix(0.6014 -0.7989 0.7989 0.6014 -20.0331 122.4847)" class="st0" width="2.8" height="12"/>
<rect x="105.9" y="83.7" transform="matrix(0.4941 -0.8694 0.8694 0.4941 -23.6903 138.6129)" class="st0" width="2.8" height="12"/>
<rect x="101.4" y="93" transform="matrix(0.3746 -0.9272 0.9272 0.3746 -27.4801 157.1846)" class="st0" width="2.8" height="12"/>
<rect x="98.2" y="102.6" transform="matrix(0.2507 -0.9681 0.9681 0.2507 -30.4983 177.7867)" class="st0" width="2.8" height="12"/>
<rect x="173.4" y="199.8" class="st0" width="2.8" height="12"/>
<rect x="192.8" y="197.4" transform="matrix(0.9686 -0.2486 0.2486 0.9686 -44.4609 54.6498)" class="st0" width="2.8" height="12"/>
<rect x="203.2" y="193.9" transform="matrix(0.9237 -0.3832 0.3832 0.9237 -60.982 93.6934)" class="st0" width="2.8" height="12"/>
<rect x="212.5" y="189.3" transform="matrix(0.8645 -0.5027 0.5027 0.8645 -69.1772 134.0244)" class="st0" width="2.8" height="12"/>
<rect x="221" y="183.6" transform="matrix(0.7914 -0.6113 0.6113 0.7914 -69.5221 175.4838)" class="st0" width="2.8" height="12"/>
<rect x="228.8" y="176.7" transform="matrix(0.7025 -0.7117 0.7117 0.7025 -61.5409 218.1892)" class="st0" width="2.8" height="12"/>
<rect x="235.6" y="168.8" transform="matrix(0.6014 -0.7989 0.7989 0.6014 -45.2387 259.0091)" class="st0" width="2.8" height="12"/>
<rect x="241" y="160.5" transform="matrix(0.4941 -0.8694 0.8694 0.4941 -22.1062 295.0133)" class="st0" width="2.8" height="12"/>
<rect x="245.5" y="151.2" transform="matrix(0.3746 -0.9272 0.9272 0.3746 8.6929 327.2972)" class="st0" width="2.8" height="12"/>
<rect x="248.7" y="141.6" transform="matrix(0.2507 -0.9681 0.9681 0.2507 44.5685 352.7241)" class="st0" width="2.8" height="12"/>
<polygon class="st0" points="169.5,143.8 175,134.7 180.5,143.8 186.2,143.8 177.9,129.9 175,125.1 172.1,129.9 163.8,143.8 "/>
</svg>
