<?xml version="1.0" encoding="utf-8"?>
<!-- Generator: Adobe Illustrator 22.0.1, SVG Export Plug-In . SVG Version: 6.00 Build 0)  -->
<svg version="1.1" id="Layer_1" xmlns="http://www.w3.org/2000/svg" xmlns:xlink="http://www.w3.org/1999/xlink" x="0px" y="0px"
	 viewBox="0 0 339.6 254.7" style="enable-background:new 0 0 339.6 254.7;" xml:space="preserve">
<style type="text/css">
	.st0{fill:#FFFFFF;}
</style>
<g id="armor">
	<g>
		<polygon class="st0" points="222.6,82.3 218.3,82.2 207.9,86.4 207.9,104.9 242.6,89.2 243.5,89.2 		"/>
		<path class="st0" d="M160.8,119.6c-0.1,0-0.1,0-0.2,0c-3.1-0.3-10.4-1.1-11.5-1.5s-4.4-2.2-5.5-2.8l-3.4-1.8l-25.4,10.2l-12,12.5
			l23.6,15.3l14.9-16.4l34.1-15.4L160.8,119.6L160.8,119.6z"/>
		<polygon class="st0" points="207.4,83 215.1,79.8 209.1,77.9 203.7,78.6 		"/>
		<path class="st0" d="M97.7,121.2l-7.5,6.6l10,6.5l12.9-13.5l0.3-0.1l23.1-9.3l-1-0.6C127.4,113,111.3,117.4,97.7,121.2z"/>
		<path class="st0" d="M256.7,93.5l-3-1h-10.4l-99.8,45.3l-14.1,15.5l12.2,7.9l13.9-15.4c0.1-0.2,0.3-0.3,0.5-0.4l98.6-46.8
			c0.2-0.1,0.5-0.2,0.7-0.2h9.6L256.7,93.5z"/>
		<path class="st0" d="M199.8,79.2l-8.8-4.1h-13l-19,2.3l-28.2,17.5v5.7c3.8-1,6.3-1.7,6.8-1.9c2.8-0.7,5.4,0.7,6.3,3.5
			c0.8,2.6,0,5.9-3.2,7.1h-0.1c0,0-0.2,0-0.4,0.1l5.2,2.8c1.9,1.1,4.4,2.4,4.9,2.5c0.2,0,0.6,0.1,1.3,0.2v-12.8L179.3,89l18.5-4.2
			l2.3-5.3L199.8,79.2z"/>
		<path class="st0" d="M74.4,124.1c5.2-1.4,62.6-17.2,65.1-17.9c1.4-0.6,1.4-2.1,1.1-2.9c-0.1-0.5-0.6-1.4-1.6-1.4
			c-0.2,0-0.4,0-0.6,0.1c-1.3,0.3-14.8,4-29,8c-16.8,4.6-34.2,9.4-36.2,9.9c-1.2,0.3-1.9,0.9-2.1,1.7c-0.2,0.7,0.1,1.4,0.6,2
			C72.1,123.9,72.9,124.5,74.4,124.1z"/>
		<ellipse class="st0" cx="164.1" cy="156.8" rx="4.9" ry="5.9"/>
		<ellipse class="st0" cx="181.6" cy="149" rx="4.9" ry="5.9"/>
		<ellipse class="st0" cx="197.8" cy="141" rx="4.9" ry="5.9"/>
		<ellipse class="st0" cx="213.3" cy="133.6" rx="4.9" ry="5.9"/>
		<ellipse class="st0" cx="227.8" cy="125.8" rx="4.9" ry="5.9"/>
		<ellipse class="st0" cx="242.9" cy="118.4" rx="4.9" ry="5.9"/>
		<ellipse class="st0" cx="254.9" cy="110" rx="3.7" ry="4.5"/>
		<path class="st0" d="M265.9,105.2c-0.1-0.1-0.3-0.1-0.4-0.1c-0.4,0-0.8,0.2-0.9,0.6l-4,9.8c-0.1,0.3-0.3,0.5-0.5,0.7l-5.8,5.2
			c0,0,0,0-0.1,0.1l-7.9,6.5c-0.1,0.1-0.2,0.2-0.4,0.2L226,138.5l-30.5,16c0,0,0,0-0.1,0l-22.9,11c-0.3,0.1-0.6,0.2-0.9,0.2h-23.8
			c-0.6,0-1,0.5-1,1s0.5,1,1,1h24.5c0.2,0,0.3,0,0.4-0.1l23.6-11.3l0,0l30.5-16l20.2-10.4c0.1,0,0.1-0.1,0.2-0.1l8.2-6.7l0,0
			l6.4-5.8c0.1-0.1,0.2-0.2,0.3-0.4l4.3-10.4C266.6,106,266.4,105.4,265.9,105.2z"/>
	</g>
	<g>
		<polygon class="st0" points="120.3,104.8 120.3,55.8 232.5,55.8 232.5,82.5 243.5,86.1 243.5,44.8 109.3,44.8 109.3,107.7 		"/>
		<polygon class="st0" points="232.5,140.2 232.5,161.8 176.4,198.4 120.3,161.8 120.3,151.1 109.3,144.1 109.3,167.7 176.4,211.6 
			243.5,167.7 243.5,134.1 		"/>
	</g>
</g>
</svg>
