<?xml version="1.0" encoding="utf-8"?>
<!-- Generator: Adobe Illustrator 22.0.1, SVG Export Plug-In . SVG Version: 6.00 Build 0)  -->
<svg version="1.1" id="Layer_1" xmlns="http://www.w3.org/2000/svg" xmlns:xlink="http://www.w3.org/1999/xlink" x="0px" y="0px"
	 viewBox="0 0 339.6 254.7" style="enable-background:new 0 0 339.6 254.7;" xml:space="preserve">
<style type="text/css">
	.st0{fill:#FFFFFF;}
</style>
<g id="CONCEALMENT">
	<path class="st0" d="M231.4,133.5c-0.8,0-1.5-0.7-1.5-1.5v-30.3l-6-5.2c-8.9,0.2-18.5,0.3-21.5,2.5c-3.7,2.7-5,2.7-5,2.7
		s-7,1-8.7,2.3s-2.3,4.3-2,7s0,1-2,4s-6.3,1.7-9.7,0c-3.3-1.7-9-4-11-1s-3,6.3-5.7,6.3s-10.3-3-10.7,0s3.7,7.3,6,7s8,1.7,11.7,0
		s4.3-4.7,7.3-5s7-1,8.3,1.7s2.3,3.3,4.3,3.3s4-4.7,6-6s3.3-4,7.3-3.5s5.3,2.5,5.7,4.2c0.3,1.7-2.7,5.7-5,5.3
		c-2.3-0.3-6.3,2.3-6.7,4s0.3,6,5.3,6.7s7-2,11.3,0s2,2.3,5.7,5s11.7,5.3,14.3,2.7c2.7-2.7,5.3-5,5.7-6.7c0.3-1.7,4-3.3,7-3.3
		c2.6,0,3.7,0.2,5.4-2.2H231.4z"/>
	<path class="st0" d="M173.2,191.8c-0.3-0.8-0.7-1.4-1.1-1.5c-2.3-0.7-10.7-1.7-12.3-5.3c-1.7-3.6,0.7-3.4,2.7-4.4s10-1.3,13.3-1.3
		s5-3.7,5-5.7s-5-4-8-5s-1.3-6,0-6.7s12,0,16.7,0s9-2.3,9.2-4.7c0.2-2.3-2.2-4.7-6.8-4.3c-4.7,0.3-12.7,1.7-17.7,1s-1-6-4.5-8.7
		s-8.5,3.3-10.8,3.3s-5.7-3.3-9-3.3s-6,1-9.3,3.3s-5,6.7-4.3,8.3c0.7,1.7,8.7-0.7,10-2s4.3-1.3,6,2.3c1.7,3.7-1,4-4.4,6.7
		s-7.3,3-12.6,3.9s-9.3,0.5-12,0.1c-2.7-0.3-9-0.3-9,3.7s6.7,2.7,9.3,3.7c2.7,1,5.7,1,5.3,3.7c-0.3,2.7-5.3,3.7-7.7,4.2
		c-2.3,0.5-7.7,2.8-12.3,1.5c-1.8-0.5-4.2-0.9-6.9-1.3l12.4,8.4h58.8V191.8z"/>
	<path class="st0" d="M256.6,191.8l26-20.9v-12.6c-1.7-1.9-3.6-3.1-5.8-3c-5.7,0.3-9.3,7-13.7,6.8c-4.3-0.2-11.6-0.2-13.6-3.2
		s-7.4-5.4-11-3.7c-3.7,1.7-11,3.8-9,6.6s7.3,2.5,11.3,3.5s8,3.7,6.3,5.7s-5.3,7-10,5s-6.7-2.7-10.7-5.3c-4-2.7-4.7-6.1-10.7-5.1
		s-11,0.7-11.3,4.1c-0.3,3.3,1.3,4.7,3.7,4.7c2.3,0,8.3,2.3,9,4.3s-0.7,7-4,7s-6.1,0-8.7,0s-7.3,0.7-9,3c-0.4,0.5-0.8,1.7-1.3,3.2
		h62.5V191.8z"/>
	<g>
		<path class="st0" d="M222.3,43.8v50.5c0,0.4,0.2,0.8,0.5,1.1l7.2,6.2V132c0,0.8,0.7,1.5,1.5,1.5h40.3l10.9,14v23.4l-26,20.9H114.2
			L89,174.6l0.3-10.8c0-0.7-0.5-1.4-1.2-1.5l-4.2-0.7l0.9-4.4l57.3-28.3c0.6-0.3,1-1,0.8-1.7s-0.8-1.2-1.5-1.2H56.6v-13.3h89.2
			c0.8,0,1.5-0.7,1.5-1.5v-6L172.8,95h45.7c0.8,0,1.5-0.7,1.5-1.5V43.8H222.3 M222.3,41.8H220c-1.1,0-2,0.9-2,2v49h-45.2
			c-0.3,0-0.5,0-0.7,0.1l-25.5,10.2c-0.8,0.3-1.3,1-1.3,1.9v5.5H56.6c-1.1,0-2,0.9-2,2v13.3c0,1.1,0.9,2,2,2h82.7l-55.4,27.4
			c-0.6,0.3-1,0.8-1.1,1.4l-0.9,4.4c-0.1,0.5,0,1.1,0.3,1.5s0.8,0.7,1.3,0.8l3.7,0.7L87,174.5c0,0.7,0.3,1.3,0.9,1.7l25.3,17.3
			c0.3,0.2,0.7,0.3,1.1,0.3h142.3c0.5,0,0.9-0.2,1.3-0.4l26-20.9c0.5-0.4,0.7-1,0.7-1.6v-23.4c0-0.4-0.1-0.9-0.4-1.2l-10.9-14
			c-0.4-0.5-1-0.8-1.6-0.8h-39.8v-29.8c0-0.6-0.3-1.1-0.7-1.5l-7-6.1V43.8C224.3,42.7,223.4,41.8,222.3,41.8L222.3,41.8z"/>
	</g>
</g>
</svg>
