<?xml version="1.0" encoding="utf-8"?>
<!-- Generator: Adobe Illustrator 22.0.1, SVG Export Plug-In . SVG Version: 6.00 Build 0)  -->
<svg version="1.1" id="Layer_1" xmlns="http://www.w3.org/2000/svg" xmlns:xlink="http://www.w3.org/1999/xlink" x="0px" y="0px"
	 viewBox="0 0 208 203.8" style="enable-background:new 0 0 208 203.8;" xml:space="preserve">
<style type="text/css">
	.st0{fill:#FFFFFF;}
</style>
<path class="st0" d="M85.9,85.8c-5.7,0-10.2,5-10.2,11.1S80.3,108,85.9,108c5.7,0,10.2-5,10.2-11.1C96.2,90.8,91.6,85.8,85.9,85.8z
	 M122.4,85.8c-5.7,0-10.2,5-10.2,11.1s4.6,11.1,10.2,11.1c5.7,0,10.2-5,10.2-11.1S128.1,85.8,122.4,85.8z"/>
<path class="st0" d="M171,1.9H37c-11.3,0-20.5,9.2-20.5,20.6v135.2c0,11.4,9.2,20.6,20.5,20.6h113.4l-5.3-18.5l12.8,11.9l12.1,11.2
	l21.5,19V22.5C191.5,11.1,182.3,1.9,171,1.9z M132.4,132.5c0,0-3.6-4.3-6.6-8.1c13.1-3.7,18.1-11.9,18.1-11.9
	c-4.1,2.7-8,4.6-11.5,5.9c-5,2.1-9.8,3.5-14.5,4.3c-9.6,1.8-18.4,1.3-25.9-0.1c-5.7-1.1-10.6-2.7-14.7-4.3c-2.3-0.9-4.8-2-7.3-3.4
	c-0.3-0.2-0.6-0.3-0.9-0.5c-0.2-0.1-0.3-0.2-0.4-0.3c-1.8-1-2.8-1.7-2.8-1.7s4.8,8,17.5,11.8c-3,3.8-6.7,8.3-6.7,8.3
	c-22.1-0.7-30.5-15.2-30.5-15.2C46.2,85.1,60.6,59,60.6,59C75,48.2,88.7,48.5,88.7,48.5l1,1.2c-18,5.2-26.3,13.1-26.3,13.1
	s2.2-1.2,5.9-2.9c10.7-4.7,19.2-6,22.7-6.3c0.6-0.1,1.1-0.2,1.7-0.2c6.1-0.8,13-1,20.2-0.2c9.5,1.1,19.7,3.9,30.1,9.6
	c0,0-7.9-7.5-24.9-12.7l1.4-1.6c0,0,13.7-0.3,28.1,10.5c0,0,14.4,26.1,14.4,58.3C163,117.3,154.5,131.8,132.4,132.5z"/>
</svg>
