<svg width="887" height="522" fill="none" xmlns="http://www.w3.org/2000/svg"><path fill-rule="evenodd" clip-rule="evenodd" d="M2.6 3.1H883v418.3H2.6V3.1z" fill="#231F20"/><path d="M880.4 5.4v413.8H5.1V5.4h875.3zm5.1-4.6H0v422.8h886V.8h-.5z" fill="#fff"/><path fill-rule="evenodd" clip-rule="evenodd" d="M17.9 20.1h244.2v68.6H17.9V20.1zm-.1 83.6h244.3V356H17.8V103.7zM17.9 404.3v-33.5h49v7.8H37.6v4.8h24.8v7.8H37.6v5.2H68v7.9H17.9zm91.8-23.8c-.3-1.1-1.4-1.9-2.9-2.3-1.4-.4-3.1-.6-5.1-.6-4.3 0-6.3.7-6.3 1.9 0 5 34.6 1.8 34.6 14 0 7.8-11.6 11.5-28.1 11.5-15.9 0-26.2-5.2-26.6-11.2h18.9c.4 1.2 1.6 2.1 3.3 2.6 1.6.5 3.7.8 5.6.8 4.9 0 8.2-.9 8.2-2.5 0-5.1-34.6-1.6-34.6-14.4 0-7.1 11-10.7 26.1-10.7 16.7 0 24.3 4.7 25.7 10.6h-18.8v.3z" fill="#fff"/><path d="M159.6 385.3h7.7c6.1 0 9.4-.9 9.4-3.2 0-2.3-3.3-3.5-7.9-3.5h-9.2v6.7zm0 7.3v11.7h-19.7v-33.5h28.4c20 0 26.6 3.1 26.6 9.6 0 3.9-3.1 7.1-10.1 8.2 6.3 1.3 10.2 2.1 10.2 8.8 0 4.4-.3 5.9 2.1 5.9v1h-20c-.5-.7-1-2.9-1-5.8 0-4.4-1.3-5.8-10.5-5.8h-6v-.1zm67.1-14v5.6h8.2c3.9 0 6.8-1 6.8-2.9 0-2.6-3.9-2.7-8-2.7h-7zm0 11.7v6.2h8.6c4.9 0 8.5-.6 8.5-3.1 0-2.9-4.6-3.1-10.9-3.1h-6.2zm-19.6 14v-33.5h28.7c13.5 0 24.3 1.8 24.3 8.4 0 3.5-4 6-7.9 7.3 6.5.9 10 4.1 10 7.7 0 7.5-10.2 10.1-25.9 10.1h-29.2z" fill="#fff"/><path fill-rule="evenodd" clip-rule="evenodd" d="M277 20h588.9v384.3H277V20z" fill="#fff"/><path fill-rule="evenodd" clip-rule="evenodd" d="M37.4 164l189-47.1 14.6 50.4-60.8 15.1L221 323.9l-67.6 16.9-40.8-141.5-60.7 15.1L37.4 164zM204.1 34.3h16l18.7 21.2-.7-8.9V34.3h16.4v38.8h-16L219.8 52l.4 9.1.3 12h-16.4V34.3zm-57.8 0h42.5v9h-25.4v5.6h21.5V58h-21.5v6h26.4v9.1h-43.5V34.3zm-59.9 0H129v9h-25.5v5.6h21.6V58h-21.6v6H130v9.1H86.4V34.3zm-62.4 0h47.9v10.2H56.6v28.6H39.4V44.5H24V34.3z" fill="#231F20"/><path fill-rule="evenodd" clip-rule="evenodd" d="M.1 418.1h886v103.5H.1V418.1z" fill="#fff"/><path fill-rule="evenodd" clip-rule="evenodd" d="M5.5 417.8h874.9v97.7H5.5v-97.7z" fill="#231F20"/><path fill-rule="evenodd" clip-rule="evenodd" d="M11.6 423.7h863v85.7h-863v-85.7z" fill="#fff"/><path fill-rule="evenodd" clip-rule="evenodd" d="M226.7 445.4h4.7v35.3h-4.7v-35.3zm12.4 35.3v-25.5h3.9v3.6c1.9-2.8 4.6-4.2 8.1-4.2 1.5 0 3 .3 4.2.8 1.3.6 2.3 1.3 2.9 2.2.6.9 1.1 2 1.3 3.2.2.8.2 2.2.2 4.2v15.7h-4.3v-15.5c0-1.8-.2-3.1-.5-4-.3-.9-.9-1.6-1.8-2.1s-1.9-.8-3-.8c-1.8 0-3.4.6-4.8 1.8-1.3 1.2-2 3.4-2 6.7v14h-4.2v-.1zm25.7-14.9h13.3v4.4h-13.3v-4.4zm35.1 1.1v-4.1h14.9v13.1c-2.3 1.8-4.7 3.2-7.1 4.1-2.4.9-4.9 1.4-7.5 1.4-3.5 0-6.6-.7-9.4-2.2-2.8-1.5-5-3.6-6.4-6.4-1.4-2.8-2.2-5.9-2.2-9.4 0-3.4.7-6.6 2.2-9.6 1.5-3 3.5-5.2 6.2-6.6 2.7-1.4 5.8-2.2 9.3-2.2 2.5 0 4.9.4 6.9 1.2 2.1.8 3.7 2 4.8 3.5 1.2 1.5 2.1 3.4 2.7 5.8l-4.2 1.2c-.5-1.8-1.2-3.2-2-4.2s-1.9-1.9-3.4-2.5c-1.5-.6-3.1-.9-4.9-.9-2.1 0-4 .3-5.5 1-1.6.6-2.8 1.5-3.8 2.6s-1.7 2.2-2.2 3.5c-.9 2.2-1.3 4.5-1.3 7.1 0 3.1.5 5.8 1.6 7.9 1.1 2.1 2.7 3.7 4.7 4.7a15.181 15.181 0 0012.5.3c1.9-.8 3.4-1.6 4.4-2.5v-6.6h-10.3v-.2z" fill="#231F20"/><path d="M337.8 477.5c-1.6 1.4-3.1 2.3-4.6 2.9-1.5.6-3.1.8-4.8.8-2.8 0-5-.7-6.5-2.1-1.5-1.4-2.3-3.1-2.3-5.3 0-1.3.3-2.4.9-3.4.6-1 1.3-1.9 2.2-2.5.9-.6 2-1.1 3.1-1.4.8-.2 2.1-.4 3.8-.6 3.5-.4 6.1-.9 7.7-1.5v-1.1c0-1.8-.4-3-1.2-3.7-1.1-1-2.7-1.5-4.9-1.5-2 0-3.5.4-4.5 1.1-1 .7-1.7 2-2.2 3.8l-4.2-.6c.4-1.8 1-3.3 1.9-4.4.9-1.1 2.2-2 3.8-2.6 1.7-.6 3.6-.9 5.8-.9 2.2 0 4 .3 5.3.8 1.3.5 2.4 1.2 3 1.9.6.8 1.1 1.8 1.3 2.9.1.7.2 2.1.2 4v5.8c0 4 .1 6.6.3 7.6.2 1 .5 2.1 1.1 3.1h-4.5c-.2-.8-.5-1.9-.7-3.1zm-.3-9.6c-1.6.6-3.9 1.2-7.1 1.6-1.8.3-3 .5-3.8.9-.7.3-1.3.8-1.7 1.4-.4.6-.6 1.3-.6 2.1 0 1.2.4 2.1 1.3 2.9.9.8 2.2 1.2 3.8 1.2 1.7 0 3.2-.4 4.4-1.1 1.3-.7 2.3-1.7 2.9-3 .5-1 .7-2.4.7-4.3v-1.7h.1z" fill="#231F20"/><path fill-rule="evenodd" clip-rule="evenodd" d="M348.6 480.7v-25.5h3.9v3.6c.8-1.3 1.9-2.3 3.2-3 1.3-.8 2.8-1.1 4.5-1.1 1.9 0 3.4.4 4.7 1.2 1.2.8 2.1 1.9 2.6 3.3 2-3 4.6-4.5 7.9-4.5 2.5 0 4.5.7 5.8 2.1 1.4 1.4 2 3.6 2 6.5v17.5h-4.3v-16.1c0-1.7-.1-3-.4-3.7-.3-.8-.8-1.4-1.5-1.8-.7-.5-1.6-.7-2.6-.7-1.8 0-3.3.6-4.5 1.8-1.2 1.2-1.8 3.1-1.8 5.7v14.8h-4.3v-16.6c0-1.9-.4-3.4-1.1-4.3-.7-1-1.9-1.4-3.5-1.4-1.2 0-2.3.3-3.4 1-1 .6-1.8 1.6-2.2 2.8-.5 1.2-.7 3-.7 5.3v13.3h-4.3v-.2z" fill="#231F20"/><path d="M407.1 472.5l4.5.6c-.7 2.6-2 4.6-3.9 6.1-1.9 1.4-4.3 2.2-7.3 2.2-3.7 0-6.7-1.2-8.9-3.5s-3.3-5.5-3.3-9.7c0-4.3 1.1-7.6 3.3-10 2.2-2.4 5.1-3.6 8.6-3.6 3.4 0 6.2 1.2 8.4 3.5s3.2 5.6 3.2 9.8v1.2h-19c.2 2.8 1 5 2.4 6.4 1.4 1.5 3.2 2.2 5.3 2.2 1.6 0 2.9-.4 4.1-1.3 1-.8 1.9-2.1 2.6-3.9zm-14.2-7h14.3c-.2-2.2-.7-3.8-1.6-4.8-1.4-1.7-3.2-2.5-5.4-2.5-2 0-3.7.7-5 2-1.4 1.3-2.2 3-2.3 5.3zm38.3 15.2v-35.3h13.3c2.3 0 4.1.1 5.4.3 1.7.3 3.2.8 4.4 1.6 1.2.8 2.1 1.9 2.8 3.4.7 1.5 1.1 3.1 1.1 4.8 0 3-1 5.5-2.9 7.6-1.9 2.1-5.4 3.1-10.3 3.1h-9v14.3h-4.8v.2zm4.7-18.5h9.1c3 0 5.2-.6 6.4-1.7 1.3-1.1 1.9-2.7 1.9-4.7 0-1.5-.4-2.7-1.1-3.8-.7-1-1.7-1.7-2.9-2.1-.8-.2-2.2-.3-4.4-.3h-9v12.6z" fill="#231F20"/><path fill-rule="evenodd" clip-rule="evenodd" d="M480.3 480.7v-3.8c-2 2.9-4.7 4.3-8.1 4.3-1.5 0-2.9-.3-4.2-.9-1.3-.6-2.3-1.3-2.9-2.2-.6-.9-1.1-1.9-1.3-3.2-.2-.9-.3-2.2-.3-4v-15.8h4.3v14.2c0 2.3.1 3.8.3 4.6.3 1.1.8 2 1.7 2.7.9.6 2 1 3.3 1 1.3 0 2.5-.3 3.7-1 1.1-.7 1.9-1.6 2.4-2.7s.7-2.8.7-5v-13.7h4.3v25.5h-3.9zm10.6 0v-25.5h3.9v3.9c1-1.8 1.9-3 2.8-3.6.8-.6 1.8-.9 2.8-.9 1.5 0 2.9.5 4.4 1.4l-1.5 4c-1.1-.6-2.1-.9-3.2-.9-.9 0-1.8.3-2.5.9-.8.6-1.3 1.4-1.6 2.4-.5 1.5-.7 3.2-.7 5.1v13.4h-4.4v-.2zm33.1-9.4l4.3.6c-.5 2.9-1.7 5.2-3.6 6.9-1.9 1.7-4.3 2.5-7.1 2.5-3.5 0-6.3-1.1-8.4-3.4-2.1-2.3-3.2-5.6-3.2-9.8 0-2.8.5-5.2 1.4-7.2.9-2.1 2.3-3.6 4.2-4.7 1.9-1 3.9-1.6 6.1-1.6 2.8 0 5 .7 6.8 2.1 1.8 1.4 2.9 3.4 3.4 6l-4.2.6c-.4-1.7-1.1-3-2.1-3.9-1-.9-2.2-1.3-3.7-1.3-2.2 0-4 .8-5.3 2.3-1.4 1.6-2 4-2 7.4 0 3.4.7 5.9 2 7.5 1.3 1.6 3 2.3 5.1 2.3 1.7 0 3.1-.5 4.3-1.6 1-.9 1.7-2.5 2-4.7zm8 9.4v-35.3h4.3v12.7c2-2.3 4.6-3.5 7.6-3.5 1.9 0 3.5.4 4.9 1.1 1.4.7 2.4 1.8 3 3.1.6 1.3.9 3.2.9 5.7v16.2h-4.3v-16.2c0-2.2-.5-3.7-1.4-4.7-.9-1-2.3-1.5-4-1.5-1.3 0-2.5.3-3.6 1s-1.9 1.6-2.4 2.7-.7 2.7-.7 4.7v14H532z" fill="#231F20"/><path d="M576 477.5c-1.6 1.4-3.1 2.3-4.6 2.9-1.5.6-3.1.8-4.8.8-2.8 0-5-.7-6.5-2.1-1.5-1.4-2.3-3.1-2.3-5.3 0-1.3.3-2.4.9-3.4.6-1 1.3-1.9 2.2-2.5.9-.6 2-1.1 3.1-1.4.8-.2 2.1-.4 3.8-.6 3.5-.4 6.1-.9 7.7-1.5v-1.1c0-1.8-.4-3-1.2-3.7-1.1-1-2.7-1.5-4.9-1.5-2 0-3.5.4-4.5 1.1-1 .7-1.7 2-2.2 3.8l-4.2-.6c.4-1.8 1-3.3 1.9-4.4.9-1.1 2.2-2 3.8-2.6 1.7-.6 3.6-.9 5.8-.9 2.2 0 4 .3 5.3.8 1.3.5 2.4 1.2 3 1.9.6.8 1.1 1.8 1.3 2.9.1.7.2 2.1.2 4v5.8c0 4 .1 6.6.3 7.6.2 1 .5 2.1 1.1 3.1h-4.5c-.3-.8-.5-1.9-.7-3.1zm-.3-9.6c-1.6.6-3.9 1.2-7.1 1.6-1.8.3-3 .5-3.8.9-.7.3-1.3.8-1.7 1.4-.4.6-.6 1.3-.6 2.1 0 1.2.4 2.1 1.3 2.9.9.8 2.2 1.2 3.8 1.2 1.7 0 3.2-.4 4.4-1.1 1.3-.7 2.3-1.7 2.9-3 .5-1 .7-2.4.7-4.3v-1.7h.1z" fill="#231F20"/><path fill-rule="evenodd" clip-rule="evenodd" d="M585 473.1l4.3-.7c.2 1.7.9 3 2 3.9 1.1.9 2.6 1.4 4.6 1.4 2 0 3.5-.4 4.4-1.2 1-.8 1.4-1.8 1.4-2.9 0-1-.4-1.7-1.3-2.3-.6-.4-2.1-.9-4.4-1.5-3.2-.8-5.4-1.5-6.6-2.1-1.2-.6-2.2-1.4-2.8-2.4-.6-1-1-2.2-1-3.4 0-1.1.3-2.2.8-3.2s1.2-1.8 2.1-2.4c.7-.5 1.6-.9 2.8-1.3 1.2-.3 2.4-.5 3.7-.5 2 0 3.8.3 5.3.9 1.5.6 2.6 1.4 3.4 2.3.7 1 1.2 2.3 1.5 4l-4.2.6c-.2-1.3-.8-2.3-1.7-3.1-.9-.7-2.2-1.1-3.9-1.1-2 0-3.4.3-4.3 1-.8.7-1.3 1.4-1.3 2.3 0 .6.2 1.1.5 1.5.4.5.9.9 1.7 1.2.4.2 1.7.5 3.8 1.1 3.1.8 5.2 1.5 6.4 2 1.2.5 2.2 1.3 2.9 2.3.7 1 1 2.2 1 3.7 0 1.4-.4 2.8-1.3 4.1-.8 1.3-2.1 2.3-3.6 3-1.6.7-3.4 1-5.4 1-3.3 0-5.9-.7-7.6-2.1-1.6-1.4-2.7-3.4-3.2-6.1z" fill="#231F20"/><path d="M628.9 472.5l4.5.6c-.7 2.6-2 4.6-3.9 6.1-1.9 1.4-4.3 2.2-7.3 2.2-3.7 0-6.7-1.2-8.9-3.5s-3.3-5.5-3.3-9.7c0-4.3 1.1-7.6 3.3-10 2.2-2.4 5.1-3.6 8.6-3.6 3.4 0 6.2 1.2 8.4 3.5s3.2 5.6 3.2 9.8v1.2h-19c.2 2.8 1 5 2.4 6.4 1.4 1.5 3.2 2.2 5.3 2.2 1.6 0 2.9-.4 4.1-1.3 1-.8 1.9-2.1 2.6-3.9zm-14.2-7H629c-.2-2.2-.7-3.8-1.6-4.8-1.4-1.7-3.2-2.5-5.4-2.5-2 0-3.7.7-5 2-1.4 1.3-2.2 3-2.3 5.3z" fill="#231F20"/><path fill-rule="evenodd" clip-rule="evenodd" d="M637 473.1l4.3-.7c.2 1.7.9 3 2 3.9 1.1.9 2.6 1.4 4.6 1.4 2 0 3.5-.4 4.4-1.2 1-.8 1.4-1.8 1.4-2.9 0-1-.4-1.7-1.3-2.3-.6-.4-2.1-.9-4.4-1.5-3.2-.8-5.4-1.5-6.6-2.1-1.2-.6-2.2-1.4-2.8-2.4-.6-1-1-2.2-1-3.4 0-1.1.3-2.2.8-3.2s1.2-1.8 2.1-2.4c.7-.5 1.6-.9 2.8-1.3 1.2-.3 2.4-.5 3.7-.5 2 0 3.8.3 5.3.9 1.5.6 2.6 1.4 3.4 2.3.7 1 1.2 2.3 1.5 4l-4.2.6c-.2-1.3-.8-2.3-1.7-3.1-.9-.7-2.2-1.1-3.9-1.1-2 0-3.4.3-4.3 1-.8.7-1.3 1.4-1.3 2.3 0 .6.2 1.1.5 1.5.4.5.9.9 1.7 1.2.4.2 1.7.5 3.8 1.1 3.1.8 5.2 1.5 6.4 2 1.2.5 2.2 1.3 2.9 2.3.7 1 1 2.2 1 3.7 0 1.4-.4 2.8-1.3 4.1-.8 1.3-2.1 2.3-3.6 3-1.6.7-3.4 1-5.4 1-3.3 0-5.9-.7-7.6-2.1-1.6-1.4-2.7-3.4-3.2-6.1zM325.9 228L309 175h6.2l11.3 38.5c.9 3 1.6 5.9 2.3 8.7.7-2.9 1.4-5.8 2.3-8.7l11.8-38.5h5.9l-17 52.9h-5.9v.1z" fill="#231F20"/><path d="M352.1 182.5V175h5.3v7.5h-5.3zm0 45.5v-38.4h5.3V228h-5.3zm11.4-19.2c0-6.6 1.4-11.6 4.2-15 2.8-3.4 6.3-5.1 10.6-5.1 4.2 0 7.7 1.7 10.5 5.1 2.8 3.4 4.2 8.2 4.2 14.6 0 6.9-1.4 12-4.2 15.4-2.8 3.4-6.3 5.1-10.6 5.1-4.2 0-7.7-1.7-10.5-5.1-2.8-3.4-4.2-8.4-4.2-15zm5.5 0c0 5 .9 8.7 2.7 11.1 1.8 2.4 4 3.6 6.7 3.6 2.5 0 4.7-1.2 6.4-3.7 1.8-2.4 2.7-6.1 2.7-11s-.9-8.6-2.7-11.1c-1.8-2.4-4-3.6-6.7-3.6-2.5 0-4.7 1.2-6.5 3.7-1.8 2.4-2.6 6-2.6 11z" fill="#231F20"/><path fill-rule="evenodd" clip-rule="evenodd" d="M399.1 228v-53h5.3v53h-5.3z" fill="#231F20"/><path d="M434.2 215.6l5.5.8c-.9 4.1-2.6 7.2-5 9.3-2.4 2.1-5.4 3.1-8.9 3.1-4.5 0-8.1-1.7-10.8-5.1-2.8-3.4-4.1-8.3-4.1-14.6 0-6.6 1.4-11.7 4.2-15.1 2.8-3.5 6.3-5.2 10.6-5.2 4.1 0 7.5 1.7 10.2 5.1 2.7 3.4 4.1 8.4 4.1 14.8v1.7h-23.6c.2 4.3 1.2 7.6 3 9.8 1.8 2.2 3.9 3.3 6.5 3.3 4 0 6.8-2.6 8.3-7.9zm-17.5-10.5h17.6c-.2-3.3-1-5.8-2.1-7.4-1.7-2.4-3.9-3.6-6.5-3.6-2.4 0-4.4 1-6.1 3-1.8 1.9-2.7 4.6-2.9 8z" fill="#231F20"/><path fill-rule="evenodd" clip-rule="evenodd" d="M446.5 228v-38.4h4.8v5.4c1.2-2.1 2.6-3.7 4.2-4.7 1.7-1 3.6-1.6 5.8-1.6 1.7 0 3.2.3 4.7 1 1.4.7 2.6 1.5 3.5 2.6.9 1.1 1.5 2.5 2 4.2.4 1.7.7 4.3.7 7.9V228h-5.3v-23.4c0-2.8-.2-4.9-.7-6.2-.5-1.3-1.2-2.3-2.3-3-1-.7-2.2-1.1-3.6-1.1-2.6 0-4.6.9-6.1 2.8s-2.3 5.2-2.3 9.8v21h-5.4v.1zm54.3-14.1l5.2.8c-.6 4.6-2.1 8.1-4.5 10.5-2.4 2.4-5.3 3.6-8.7 3.6-4.1 0-7.5-1.7-10.2-5.1-2.7-3.4-4-8.4-4-15 0-6.7 1.3-11.7 4-15 2.7-3.3 6.1-5 10.3-5 3.3 0 6 1 8.2 3 2.2 2 3.7 5.1 4.3 9.1l-5.2.9c-.5-2.6-1.4-4.5-2.6-5.8-1.3-1.3-2.8-1.9-4.5-1.9-2.6 0-4.8 1.2-6.5 3.5-1.7 2.3-2.6 6-2.6 11.1 0 5.2.8 9 2.5 11.3 1.6 2.3 3.8 3.5 6.3 3.5 2 0 3.8-.8 5.2-2.3 1.5-1.5 2.4-3.9 2.8-7.2z" fill="#231F20"/><path d="M532 215.6l5.5.8c-.9 4.1-2.6 7.2-5 9.3-2.4 2.1-5.4 3.1-8.9 3.1-4.5 0-8.1-1.7-10.8-5.1-2.8-3.4-4.1-8.3-4.1-14.6 0-6.6 1.4-11.7 4.2-15.1 2.8-3.5 6.3-5.2 10.6-5.2 4.1 0 7.5 1.7 10.2 5.1 2.7 3.4 4.1 8.4 4.1 14.8v1.7h-23.5c.2 4.3 1.2 7.6 3 9.8 1.8 2.2 3.9 3.3 6.5 3.3 3.9 0 6.7-2.6 8.2-7.9zm-17.5-10.5h17.6c-.2-3.3-.9-5.8-2.1-7.4-1.7-2.4-3.9-3.6-6.5-3.6-2.4 0-4.4 1-6.1 3-1.8 1.9-2.7 4.6-2.9 8z" fill="#231F20"/></svg>