<?xml version="1.0" encoding="utf-8"?>
<!-- Generator: Adobe Illustrator 22.0.1, SVG Export Plug-In . SVG Version: 6.00 Build 0)  -->
<svg version="1.1" id="Layer_1" xmlns="http://www.w3.org/2000/svg" xmlns:xlink="http://www.w3.org/1999/xlink" x="0px" y="0px"
	 viewBox="0 0 339.6 254.7" style="enable-background:new 0 0 339.6 254.7;" xml:space="preserve">
<style type="text/css">
	.st0{fill:#FFFFFF;}
</style>
<g id="firepower">
	<polygon class="st0" points="162.4,96.3 150.8,96.3 138.4,155.2 196.5,146.3 196.5,132.9 	"/>
	<polygon class="st0" points="175.7,84.9 166,94.2 199,129.7 208.4,120 	"/>
	<polygon class="st0" points="196.1,65.3 178.6,82.1 211.2,117.2 228.2,99.6 	"/>
	<polygon class="st0" points="208.5,53.3 199,62.5 231,96.8 240.1,87.3 	"/>
	<polygon class="st0" points="228.4,41.4 223.8,45.3 215.8,46.3 211.4,50.6 242.9,84.4 248,79.1 249.8,69.6 253.9,65.4 	"/>
	<path class="st0" d="M223.8,117.2c0,0,8-11.4,10.5-9.8s28.5,0,28.5,0l-17,15L223.8,117.2z"/>
	<path class="st0" d="M175.3,62.9c0-2.1,3.3-13.1,3.3-13.1l8.6-8.4v5.4l6.1,1.5c0,0-5.7,11.5-6.1,11.5S175.3,62.9,175.3,62.9z"/>
	<polygon class="st0" points="146.3,84.4 130.3,62.9 138.4,55.3 141.3,27.8 144.3,56.1 148.3,65.3 151.8,65.3 151.8,82.3 	"/>
	<path class="st0" d="M203.4,136.8c3.4-1,24.8-3,24.8-3l15.1,9.5h-26.5L203.4,136.8z"/>
	<polygon class="st0" points="262.8,166.8 243.3,168.8 235.3,160.8 251.3,158.3 262.8,163.6 	"/>
	<polygon class="st0" points="249,182.3 240.1,178.8 232.6,163.6 243.3,173 249,173 	"/>
	<polygon class="st0" points="203.4,155.2 211.4,150.3 199,150.3 	"/>
	<path class="st0" d="M166,84.4l-1.8-9.4l3.4-4.4c0,0,3,2.4,2.8,4.4C170.1,77,166,84.4,166,84.4z"/>
	<path class="st0" d="M208.4,158.3c0.7,1,6.7,5.3,6.7,5.3l5.7-2.6c0,0-2.3-7-3.3-5.8S208.4,158.3,208.4,158.3z"/>
	<path class="st0" d="M245.4,138.6c2,0.1,8.4,1.8,8.4,1.8l1.6-6.5L245.4,138.6z"/>
	<path class="st0" d="M88.8,124.1c0,5.5,0,11,0,16.4c8.2,12.3,18.7,27.1,26.5,35c8.3,8.4,24.1,19.7,36.4,28.1c5.4,0,10.8,0,16.3,0
		c-11.3-7.3-35.8-23.7-46.3-34.4C111.9,159.3,96.8,136.6,88.8,124.1z"/>
	<g>
		<path class="st0" d="M125.6,167.5c1.2-1.1,2.8-2.4,2.8-2.4s4.4-7.8,4.7-8.5s0-5.3,0-5.3l1.5-4.3c0,0,0-4.8,0-6.8s-1.5-4.3-1.5-5
			s3.7-5.3,4.2-5.6s-1-11.7-1.5-12.6s2.7-3.8,2.7-3.8s-5.8-18-5.4-22.8C111.8,61.7,88.8,34,88.8,43.2c0,3.2,0,37.4,0,73.3
			c6.1,9.7,24.7,38.5,35.8,49.8C124.9,166.8,125.2,167.1,125.6,167.5z"/>
		<path class="st0" d="M196.5,157c-1.8-0.1-6.7-0.6-7.1-0.5c-0.8,0.2-3.9-1.3-3.9-1.3s-8.8-0.6-10.3-0.1s-2,3.3-2,3.3
			s-14.3-0.3-15,0s-3.8,3.8-3.8,3.8l-12.3-0.8l-7.3,2.6l-4.8,4.9v2.9c14.8,12.6,40.7,29.2,45.1,32c35.3,0,68.7,0,72.1,0
			C255.4,203.7,224.5,178.7,196.5,157z"/>
	</g>
	<path class="st0" d="M88.8,160.3c0,24.7,0,43.4,0,43.4s19.2,0,44.3,0L88.8,160.3z"/>
</g>
</svg>
