<?xml version="1.0" encoding="utf-8"?>
<!-- Generator: Adobe Illustrator 22.0.1, SVG Export Plug-In . SVG Version: 6.00 Build 0)  -->
<svg version="1.1" id="Layer_1" xmlns="http://www.w3.org/2000/svg" xmlns:xlink="http://www.w3.org/1999/xlink" x="0px" y="0px"
	 viewBox="0 0 32 32" style="enable-background:new 0 0 32 32;" xml:space="preserve">
<style type="text/css">
	.st0{opacity:0.1;fill:#FFFFFF;}
	.st1{fill:#CC0000;}
	.st2{fill:#FFD700;}
</style>
<rect y="6.2" class="st0" width="32" height="19.7"/>
<g>
	<rect y="6.2" class="st1" width="32" height="19.7"/>
	<g>
		<path class="st2" d="M5.8,9.5L6.6,9l0.7,0.5L7,8.7l0.7-0.5H6.8L6.6,7.3L6.3,8.2H5.4l0.7,0.5L5.8,9.5z M5.9,8.3h0.5l0.2-0.5
			l0.2,0.5h0.5L6.8,8.6L7,9.1L6.6,8.8L6.1,9.1l0.2-0.5L5.9,8.3z"/>
		<path class="st2" d="M8.6,14.2C8.4,14,8.2,13.8,8,13.6c0.8-0.9,0.8-2.5-1.5-3.9c1.6,1.7,1.6,2.8,1.1,3.4c-0.5-0.5-1.1-1.1-1.7-1.7
			l0.6-0.6l-1-0.1l-1.1,1.1l0.6,0.6l0.5-0.5C6,12.4,6.6,13,7.1,13.5c-0.5,0.2-1.1,0.1-1.5-0.3l-0.1,0c0,0-0.1,0.1-0.1,0.1
			c-0.1-0.1-0.2-0.1-0.3,0c-0.2,0-0.3,0.1-0.3,0.2c-0.3,0.2-0.6,0.4-0.8,0.7c-0.1,0.3,0.1,0.5,0.3,0.5c0.4-0.2,0.5-0.5,0.7-0.8
			c0.1,0,0.3-0.1,0.3-0.2l0,0c0.7,0.6,1.5,0.7,2.1,0.3c0.2,0.2,0.4,0.4,0.6,0.6C8.5,14.9,8.9,14.5,8.6,14.2z"/>
	</g>
</g>
</svg>
