<?xml version="1.0" encoding="utf-8"?>
<!-- Generator: Adobe Illustrator 22.0.1, SVG Export Plug-In . SVG Version: 6.00 Build 0)  -->
<svg version="1.1" id="Layer_1" xmlns="http://www.w3.org/2000/svg" xmlns:xlink="http://www.w3.org/1999/xlink" x="0px" y="0px"
	 viewBox="0 0 32 32" style="enable-background:new 0 0 32 32;" xml:space="preserve">
<style type="text/css">
	.st0{opacity:0.1;fill:#FFFFFF;}
	.st1{fill:#CC0000;}
	.st2{fill:#FFD700;}
</style>
<rect y="6.2" class="st0" width="32" height="19.7"/>
<g>
	<rect y="6.2" class="st1" width="32" height="19.7"/>
	<g>
		<path class="st2" d="M7.9,8.6l0-0.6l0.6-0.2L7.9,7.6l0-0.6L7.5,7.5L6.9,7.3l0.4,0.5L6.9,8.3l0.6-0.2L7.9,8.6z"/>
	</g>
	<g>
		<path class="st2" d="M7.9,14.3l0-0.6l0.6-0.2l-0.6-0.2l0-0.6l-0.4,0.5l-0.6-0.2l0.4,0.5L6.9,14l0.6-0.2L7.9,14.3z"/>
	</g>
	<g>
		<path class="st2" d="M9.9,9.9L9.5,9.4l0.3-0.5L9.3,9.1L8.8,8.6l0,0.6L8.3,9.5l0.6,0.2l0,0.6l0.3-0.5L9.9,9.9z"/>
	</g>
	<g>
		<path class="st2" d="M9.6,12.6L9.5,12l0.5-0.3l-0.6-0.1L9.2,11L9,11.6l-0.6-0.1l0.5,0.4l-0.2,0.6l0.6-0.3L9.6,12.6z"/>
	</g>
	<g>
		<path class="st2" d="M2.6,11.9L3.9,11l1.3,0.9l-0.5-1.5L6,9.5H4.4L3.9,8L3.4,9.5H1.8l1.3,0.9L2.6,11.9z"/>
	</g>
</g>
</svg>
