<?xml version="1.0" encoding="utf-8"?>
<!-- Generator: Adobe Illustrator 22.0.1, SVG Export Plug-In . SVG Version: 6.00 Build 0)  -->
<svg version="1.1" id="Layer_1" xmlns="http://www.w3.org/2000/svg" xmlns:xlink="http://www.w3.org/1999/xlink" x="0px" y="0px"
	 viewBox="0 0 32 32" style="enable-background:new 0 0 32 32;" xml:space="preserve">
<style type="text/css">
	.st0{opacity:0.1;fill:#FFFFFF;}
	.st1{fill:#CC0000;}
	.st2{fill:#FFFFFF;}
</style>
<rect y="6.2" class="st0" width="32" height="19.7"/>
<g>
	<g>
		<rect y="6.2" class="st1" width="32" height="19.7"/>
		<g>
			<rect x="10.7" y="6.2" class="st2" width="4.3" height="19.7"/>
			<rect x="12.1" y="6.2" width="1.3" height="19.7"/>
			<rect x="14.2" y="6.2" width="0.4" height="19.7"/>
			<rect x="11.1" y="6.2" width="0.4" height="19.7"/>
		</g>
		<g>
			<rect y="13.9" class="st2" width="32" height="4.3"/>
			<rect y="15.3" width="32" height="1.3"/>
			<rect y="14.2" width="32" height="0.4"/>
			<rect y="17.4" width="32" height="0.4"/>
		</g>
		<g>
			<path class="st2" d="M12.8,9.6c-3.6,0-6.4,2.9-6.4,6.4c0,3.6,2.9,6.4,6.4,6.4c3.6,0,6.4-2.9,6.4-6.4C19.3,12.5,16.4,9.6,12.8,9.6
				z M12.8,22.3c-3.5,0-6.2-2.8-6.2-6.2c0-3.5,2.8-6.2,6.2-6.2c3.5,0,6.2,2.8,6.2,6.2C19.1,19.5,16.3,22.3,12.8,22.3z"/>
			<path d="M12.8,9.8c-3.5,0-6.2,2.8-6.2,6.2c0,3.5,2.8,6.2,6.2,6.2c3.5,0,6.2-2.8,6.2-6.2C19.1,12.6,16.3,9.8,12.8,9.8z M12.8,21.7
				c-3.1,0-5.7-2.5-5.7-5.7c0-3.1,2.5-5.7,5.7-5.7c3.1,0,5.7,2.5,5.7,5.7C18.5,19.1,16,21.7,12.8,21.7z"/>
			<path class="st2" d="M12.8,10.3c-3.1,0-5.7,2.5-5.7,5.7c0,3.1,2.5,5.7,5.7,5.7c3.1,0,5.7-2.5,5.7-5.7
				C18.5,12.9,16,10.3,12.8,10.3z M12.8,21.4c-3,0-5.4-2.4-5.4-5.4c0-3,2.4-5.4,5.4-5.4s5.4,2.4,5.4,5.4
				C18.2,19,15.8,21.4,12.8,21.4z"/>
			<path d="M12.8,10.6c-3,0-5.4,2.4-5.4,5.4c0,3,2.4,5.4,5.4,5.4s5.4-2.4,5.4-5.4C18.2,13,15.8,10.6,12.8,10.6z M12.8,21.2
				c-2.9,0-5.2-2.3-5.2-5.2c0-2.9,2.3-5.2,5.2-5.2c2.9,0,5.2,2.3,5.2,5.2C18,18.9,15.7,21.2,12.8,21.2z"/>
			<path class="st2" d="M12.8,10.8c-2.9,0-5.2,2.3-5.2,5.2c0,2.9,2.3,5.2,5.2,5.2c2.9,0,5.2-2.3,5.2-5.2
				C18,13.2,15.7,10.8,12.8,10.8z"/>
		</g>
	</g>
	<g>
		<path class="st2" d="M15.5,12.5c-0.1,0-0.1,0.1-0.2,0.1c-0.7,0.6-1.1,1.4-1.4,2.3c0.9-0.2,1.7-0.7,2.3-1.4c0-0.1,0.1-0.1,0.1-0.2
			v0.4v4.6v0.4c0-0.1-0.1-0.1-0.1-0.2c-0.6-0.7-1.4-1.1-2.3-1.4c0.2,0.9,0.7,1.7,1.4,2.3c0.1,0,0.1,0.1,0.2,0.1h-0.4h-4.7H10
			c0.1,0,0.1-0.1,0.2-0.1c0.7-0.6,1.3-1.4,1.5-2.3c-0.9,0.2-1.7,0.7-2.3,1.4c0,0.1-0.1,0.1-0.1,0.2v-0.4v-4.6v-0.4
			c0,0.1,0.1,0.1,0.1,0.2c0.6,0.7,1.4,1.1,2.3,1.4c-0.2-0.9-0.7-1.7-1.4-2.3c-0.1,0-0.1-0.1-0.2-0.1h0.4h4.6H15.5 M14.9,12.7h-4.2
			c0.7,0.6,1,1.4,1.2,2.3c0,0.1,0,0.2,0.1,0.2c-0.1,0-0.2,0-0.2-0.1c-0.9-0.2-1.7-0.6-2.3-1.2v4.1c0.6-0.7,1.4-1,2.3-1.2
			c0.1,0,0.2,0,0.2-0.1c0,0.1,0,0.2-0.1,0.2c-0.2,0.9-0.7,1.7-1.3,2.3h4.3c-0.6-0.6-1-1.4-1.2-2.3c0-0.1,0-0.2-0.1-0.2
			c0.1,0,0.2,0,0.2,0.1c0.9,0.2,1.7,0.6,2.3,1.2v-4.1c-0.6,0.7-1.4,1-2.3,1.2c-0.1,0-0.2,0-0.2,0.1c0-0.1,0-0.2,0.1-0.2
			C13.9,14.1,14.2,13.3,14.9,12.7 M15.9,12.4h-0.4h-0.4h-4.6h-0.4H9.8l0.3,0.2c0.1,0,0.1,0.1,0.2,0.1c0.6,0.5,1,1.1,1.3,2
			c-0.9-0.3-1.5-0.7-2-1.3c-0.1-0.1-0.1-0.1-0.1-0.2L9.2,13v0.4v0.4v4.6v0.4v0.4l0.2-0.3c0-0.1,0.1-0.1,0.1-0.2c0.5-0.6,1.1-1,2-1.3
			c-0.3,0.8-0.7,1.5-1.4,2c-0.1,0.1-0.1,0.1-0.2,0.1l-0.3,0.2H10h0.4h4.7h0.4h0.4l-0.3-0.2c-0.1,0-0.1-0.1-0.2-0.1
			c-0.6-0.5-1-1.1-1.3-2c0.9,0.3,1.5,0.7,2,1.3c0.1,0.1,0.1,0.1,0.1,0.2l0.2,0.3v-0.4v-0.4v-4.6v-0.4V13l-0.2,0.3
			c0,0.1-0.1,0.1-0.1,0.2c-0.5,0.6-1.1,1-2,1.3c0.3-0.9,0.7-1.5,1.3-2c0.1-0.1,0.1-0.1,0.2-0.1L15.9,12.4L15.9,12.4z M11,12.8h3.6
			c-0.5,0.5-0.8,1.2-1.1,2.1c0,0.1,0,0.2-0.1,0.3l0,0.2l0.2,0c0.1,0,0.2,0,0.3-0.1c0.9-0.2,1.6-0.6,2.1-1.1v3.6
			c-0.5-0.5-1.2-0.8-2.1-1.1c-0.1,0-0.2,0-0.3-0.1l-0.2,0l0,0.2c0,0.1,0,0.2,0.1,0.3c0.2,0.9,0.6,1.6,1,2.1h-3.7
			c0.6-0.6,1-1.3,1.2-2.1c0-0.1,0-0.2,0.1-0.3l0-0.2l-0.2,0c-0.1,0-0.2,0-0.3,0.1c-0.9,0.2-1.6,0.6-2.1,1.1v-3.6
			c0.5,0.5,1.2,0.8,2.1,1.1c0.1,0,0.2,0,0.3,0.1l0.2,0l0-0.2c0-0.1,0-0.2-0.1-0.3C11.9,14,11.5,13.3,11,12.8L11,12.8z"/>
		<g>
			<path d="M16.2,13.5c-0.6,0.7-1.4,1.1-2.3,1.4c0.2-0.9,0.7-1.7,1.4-2.3c0.1,0,0.1-0.1,0.2-0.1h-0.4h-4.6h-0.4
				c0.1,0,0.1,0.1,0.2,0.1c0.7,0.6,1.1,1.4,1.4,2.3c-0.9-0.2-1.7-0.7-2.3-1.4c0-0.1-0.1-0.1-0.1-0.2v0.4v4.6v0.4
				c0-0.1,0.1-0.1,0.1-0.2c0.6-0.7,1.4-1.1,2.3-1.4c-0.2,0.9-0.8,1.7-1.5,2.3c-0.1,0-0.1,0.1-0.2,0.1h0.4h4.7h0.4
				c-0.1,0-0.1-0.1-0.2-0.1c-0.7-0.6-1.1-1.4-1.4-2.3c0.9,0.2,1.7,0.7,2.3,1.4c0,0.1,0.1,0.1,0.1,0.2v-0.4v-4.6v-0.4
				C16.3,13.4,16.2,13.5,16.2,13.5z M16.1,18.1c-0.6-0.7-1.4-1-2.3-1.2c-0.1,0-0.2,0-0.2-0.1c0,0.1,0,0.2,0.1,0.2
				c0.2,0.9,0.6,1.7,1.2,2.3h-4.3c0.6-0.6,1.1-1.4,1.3-2.3c0-0.1,0-0.2,0.1-0.2c-0.1,0-0.2,0-0.2,0.1c-0.9,0.2-1.7,0.6-2.3,1.2v-4.1
				c0.6,0.7,1.4,1,2.3,1.2c0.1,0,0.2,0,0.2,0.1c0-0.1,0-0.2-0.1-0.2c-0.2-0.9-0.6-1.7-1.2-2.3h4.2c-0.7,0.6-1,1.4-1.2,2.3
				c0,0.1,0,0.2-0.1,0.2c0.1,0,0.2,0,0.2-0.1c0.9-0.2,1.7-0.6,2.3-1.2V18.1z"/>
		</g>
		<path d="M13.7,15c0.2-0.9,0.6-1.7,1.2-2.3h-4.2c0.7,0.6,1,1.4,1.2,2.3c0,0.1,0,0.2,0.1,0.2c-0.1,0-0.2,0-0.2-0.1
			c-0.9-0.2-1.7-0.6-2.3-1.2v4.1c0.6-0.7,1.4-1,2.3-1.2c0.1,0,0.2,0,0.2-0.1c0,0.1,0,0.2-0.1,0.2c-0.2,0.9-0.7,1.7-1.3,2.3h4.3
			c-0.6-0.6-1-1.4-1.2-2.3c0-0.1,0-0.2-0.1-0.2c0.1,0,0.2,0,0.2,0.1c0.9,0.2,1.7,0.6,2.3,1.2v-4.1c-0.6,0.7-1.4,1-2.3,1.2
			c-0.1,0-0.2,0-0.2,0.1C13.6,15.1,13.7,15.1,13.7,15z"/>
		<path class="st2" d="M15.9,14.1c-0.6,0.6-1.3,0.8-2.1,1c-0.1,0-0.2,0-0.2,0.1c0-0.1,0-0.2,0.1-0.2c0.2-0.8,0.5-1.5,1-2.1
			c0.1-0.1,0.1-0.1,0.2-0.2h-0.4h-3.4h-0.4c0.1,0.1,0.1,0.1,0.2,0.2c0.6,0.6,0.9,1.3,1,2.1c0,0.1,0,0.2,0.1,0.2
			c-0.1,0-0.2,0-0.2-0.1c-0.8-0.2-1.5-0.5-2.1-1c-0.1-0.1-0.1-0.1-0.2-0.2v0.4v3.4v0.4C9.6,18,9.6,18,9.7,17.9
			c0.6-0.6,1.3-0.8,2.1-1c0.1,0,0.2,0,0.2-0.1c0,0.1,0,0.2-0.1,0.2c-0.2,0.8-0.6,1.5-1.1,2.1c-0.1,0.1-0.1,0.1-0.2,0.2H11h3.5h0.4
			c-0.1-0.1-0.1-0.1-0.2-0.2c-0.5-0.6-0.8-1.3-1-2.1c0-0.1,0-0.2-0.1-0.2c0.1,0,0.2,0,0.2,0.1c0.8,0.2,1.5,0.5,2.1,1
			c0.1,0.1,0.1,0.1,0.2,0.2v-0.4v-3.4v-0.4C16.1,14,16,14.1,15.9,14.1z M15.9,17.7c-0.7-0.6-1.6-1-2.6-1.1c0.1,1,0.5,1.8,1.1,2.6
			h-3.3c0.6-0.7,1-1.6,1.1-2.6c-1,0.1-1.8,0.5-2.6,1.1v-3.3c0.7,0.6,1.6,1,2.6,1.1c-0.1-1-0.5-1.8-1.1-2.6h3.3
			c-0.6,0.7-1,1.6-1.1,2.6c1-0.1,1.8-0.5,2.6-1.1V17.7z"/>
	</g>
</g>
</svg>
