<?xml version="1.0" encoding="utf-8"?>
<!-- Generator: Adobe Illustrator 22.0.1, SVG Export Plug-In . SVG Version: 6.00 Build 0)  -->
<svg version="1.1" id="Layer_1" xmlns="http://www.w3.org/2000/svg" xmlns:xlink="http://www.w3.org/1999/xlink" x="0px" y="0px"
	 viewBox="0 0 32 32" style="enable-background:new 0 0 32 32;" xml:space="preserve">
<style type="text/css">
	.st0{fill:#FFFFFF;}
	.st1{fill:#CC0000;}
	.st2{fill:#B12332;}
	.st3{fill:#002664;}
</style>
<g>
	<rect y="22.8" class="st0" width="32" height="1.4"/>
	<rect y="19.8" class="st0" width="32" height="1.4"/>
	<polygon class="st0" points="0,16.7 0,18.2 32,18.2 32,16.7 15.4,16.7 	"/>
	<rect x="15.4" y="13.7" class="st0" width="16.6" height="1.4"/>
	<rect x="15.4" y="10.6" class="st0" width="16.6" height="1.4"/>
	<rect x="15.4" y="7.6" class="st0" width="16.6" height="1.4"/>
	<rect y="18.2" class="st1" width="32" height="1.6"/>
	<rect y="21.2" class="st1" width="32" height="1.6"/>
	<rect y="24.2" class="st2" width="32" height="1.6"/>
	<rect y="24.2" class="st1" width="32" height="1.6"/>
	<rect x="15.4" y="6.2" class="st1" width="16.6" height="1.4"/>
	<rect x="15.4" y="9" class="st1" width="16.6" height="1.6"/>
	<rect x="15.4" y="12.1" class="st1" width="16.6" height="1.6"/>
	<rect x="15.4" y="15.1" class="st1" width="16.6" height="1.6"/>
	<path class="st3" d="M15.4,15.2v-1.6v-1.5v-1.5V9.1V7.7V6.2H0v10.6h15.4V15.2z"/>
	<g>
		<polygon class="st0" points="0.9,13.6 0.8,14 0.4,14 0.7,14.3 0.6,14.6 0.9,14.4 1.2,14.6 1.1,14.2 1.4,14 1,14 		"/>
	</g>
	<g>
		<polygon class="st0" points="0.9,15.4 0.8,15.8 0.4,15.8 0.7,16 0.6,16.4 0.9,16.1 1.2,16.4 1.1,16 1.4,15.8 1,15.8 		"/>
	</g>
	<g>
		<polygon class="st0" points="2.8,13.6 2.7,14 2.3,14 2.6,14.3 2.5,14.6 2.8,14.4 3.2,14.6 3,14.2 3.4,14 3,14 		"/>
	</g>
	<g>
		<polygon class="st0" points="2.8,15.4 2.7,15.8 2.3,15.8 2.6,16 2.5,16.4 2.8,16.1 3.2,16.4 3,16 3.4,15.8 3,15.8 		"/>
	</g>
	<g>
		<polygon class="st0" points="4.8,13.6 4.6,14 4.3,14 4.6,14.3 4.4,14.6 4.8,14.4 5.1,14.6 5,14.2 5.3,14 4.9,14 		"/>
	</g>
	<g>
		<polygon class="st0" points="4.8,15.4 4.6,15.8 4.3,15.8 4.6,16 4.4,16.4 4.8,16.1 5.1,16.4 5,16 5.3,15.8 4.9,15.8 		"/>
	</g>
	<g>
		<polygon class="st0" points="6.7,13.6 6.6,14 6.2,14 6.5,14.3 6.4,14.6 6.7,14.4 7,14.6 6.9,14.2 7.2,14 6.8,14 		"/>
	</g>
	<g>
		<polygon class="st0" points="6.7,15.4 6.6,15.8 6.2,15.8 6.5,16 6.4,16.4 6.7,16.1 7,16.4 6.9,16 7.2,15.8 6.8,15.8 		"/>
	</g>
	<g>
		<polygon class="st0" points="8.6,13.6 8.5,14 8.1,14 8.4,14.3 8.3,14.6 8.6,14.4 8.9,14.6 8.8,14.2 9.1,14 8.7,14 		"/>
	</g>
	<g>
		<polygon class="st0" points="8.6,15.4 8.5,15.8 8.1,15.8 8.4,16 8.3,16.4 8.6,16.1 8.9,16.4 8.8,16 9.1,15.8 8.7,15.8 		"/>
	</g>
	<g>
		<polygon class="st0" points="10.5,13.6 10.4,14 10,14 10.3,14.3 10.2,14.6 10.5,14.4 10.9,14.6 10.7,14.2 11.1,14 10.7,14 		"/>
	</g>
	<g>
		<polygon class="st0" points="10.5,15.4 10.4,15.8 10,15.8 10.3,16 10.2,16.4 10.5,16.1 10.9,16.4 10.7,16 11.1,15.8 10.7,15.8 		
			"/>
	</g>
	<g>
		<polygon class="st0" points="12.5,13.6 12.3,14 12,14 12.3,14.3 12.2,14.6 12.5,14.4 12.8,14.6 12.7,14.2 13,14 12.6,14 		"/>
	</g>
	<g>
		<polygon class="st0" points="12.5,15.4 12.3,15.8 12,15.8 12.3,16 12.2,16.4 12.5,16.1 12.8,16.4 12.7,16 13,15.8 12.6,15.8 		"/>
	</g>
	<g>
		<polygon class="st0" points="14.4,13.6 14.3,14 13.9,14 14.2,14.3 14.1,14.6 14.4,14.4 14.7,14.6 14.6,14.2 14.9,14 14.5,14 		"/>
	</g>
	<g>
		<polygon class="st0" points="0.9,11.9 0.8,12.2 0.4,12.2 0.7,12.5 0.6,12.9 0.9,12.6 1.2,12.9 1.1,12.5 1.4,12.2 1,12.2 		"/>
	</g>
	<g>
		<polygon class="st0" points="2.8,11.9 2.7,12.2 2.3,12.2 2.6,12.5 2.5,12.9 2.8,12.6 3.2,12.9 3,12.5 3.4,12.2 3,12.2 		"/>
	</g>
	<g>
		<polygon class="st0" points="4.8,11.9 4.6,12.2 4.3,12.2 4.6,12.5 4.4,12.9 4.8,12.6 5.1,12.9 5,12.5 5.3,12.2 4.9,12.2 		"/>
	</g>
	<g>
		<polygon class="st0" points="6.7,11.9 6.6,12.2 6.2,12.2 6.5,12.5 6.4,12.9 6.7,12.6 7,12.9 6.9,12.5 7.2,12.2 6.8,12.2 		"/>
	</g>
	<g>
		<polygon class="st0" points="8.6,11.9 8.5,12.2 8.1,12.2 8.4,12.5 8.3,12.9 8.6,12.6 8.9,12.9 8.8,12.5 9.1,12.2 8.7,12.2 		"/>
	</g>
	<g>
		<polygon class="st0" points="10.5,11.9 10.4,12.2 10,12.2 10.3,12.5 10.2,12.9 10.5,12.6 10.9,12.9 10.7,12.5 11.1,12.2 
			10.7,12.2 		"/>
	</g>
	<g>
		<polygon class="st0" points="12.5,11.9 12.3,12.2 12,12.2 12.3,12.5 12.2,12.9 12.5,12.6 12.8,12.9 12.7,12.5 13,12.2 12.6,12.2 
					"/>
	</g>
	<g>
		<polygon class="st0" points="14.4,11.9 14.3,12.2 13.9,12.2 14.2,12.5 14.1,12.9 14.4,12.6 14.7,12.9 14.6,12.5 14.9,12.2 
			14.5,12.2 		"/>
	</g>
	<g>
		<polygon class="st0" points="0.9,10.1 0.8,10.5 0.4,10.5 0.7,10.7 0.6,11.1 0.9,10.9 1.2,11.1 1.1,10.7 1.4,10.5 1,10.5 		"/>
	</g>
	<g>
		<polygon class="st0" points="2.8,10.1 2.7,10.5 2.3,10.5 2.6,10.7 2.5,11.1 2.8,10.9 3.2,11.1 3,10.7 3.4,10.5 3,10.5 		"/>
	</g>
	<g>
		<polygon class="st0" points="4.8,10.1 4.6,10.5 4.3,10.5 4.6,10.7 4.4,11.1 4.8,10.9 5.1,11.1 5,10.7 5.3,10.5 4.9,10.5 		"/>
	</g>
	<g>
		<polygon class="st0" points="6.7,10.1 6.6,10.5 6.2,10.5 6.5,10.7 6.4,11.1 6.7,10.9 7,11.1 6.9,10.7 7.2,10.5 6.8,10.5 		"/>
	</g>
	<g>
		<polygon class="st0" points="8.6,10.1 8.5,10.5 8.1,10.5 8.4,10.7 8.3,11.1 8.6,10.9 8.9,11.1 8.8,10.7 9.1,10.5 8.7,10.5 		"/>
	</g>
	<g>
		<polygon class="st0" points="10.5,10.1 10.4,10.5 10,10.5 10.3,10.7 10.2,11.1 10.5,10.9 10.9,11.1 10.7,10.7 11.1,10.5 
			10.7,10.5 		"/>
	</g>
	<g>
		<polygon class="st0" points="12.5,10.1 12.3,10.5 12,10.5 12.3,10.7 12.2,11.1 12.5,10.9 12.8,11.1 12.7,10.7 13,10.5 12.6,10.5 
					"/>
	</g>
	<g>
		<polygon class="st0" points="14.4,10.1 14.3,10.5 13.9,10.5 14.2,10.7 14.1,11.1 14.4,10.9 14.7,11.1 14.6,10.7 14.9,10.5 
			14.5,10.5 		"/>
	</g>
	<g>
		<polygon class="st0" points="0.9,8.3 0.8,8.7 0.4,8.7 0.7,9 0.6,9.4 0.9,9.1 1.2,9.4 1.1,9 1.4,8.7 1,8.7 		"/>
	</g>
	<g>
		<polygon class="st0" points="2.8,8.3 2.7,8.7 2.3,8.7 2.6,9 2.5,9.4 2.8,9.1 3.2,9.4 3,9 3.4,8.7 3,8.7 		"/>
	</g>
	<g>
		<polygon class="st0" points="4.8,8.3 4.6,8.7 4.3,8.7 4.6,9 4.4,9.4 4.8,9.1 5.1,9.4 5,9 5.3,8.7 4.9,8.7 		"/>
	</g>
	<g>
		<polygon class="st0" points="6.7,8.3 6.6,8.7 6.2,8.7 6.5,9 6.4,9.4 6.7,9.1 7,9.4 6.9,9 7.2,8.7 6.8,8.7 		"/>
	</g>
	<g>
		<polygon class="st0" points="8.6,8.3 8.5,8.7 8.1,8.7 8.4,9 8.3,9.4 8.6,9.1 8.9,9.4 8.8,9 9.1,8.7 8.7,8.7 		"/>
	</g>
	<g>
		<polygon class="st0" points="10.5,8.3 10.4,8.7 10,8.7 10.3,9 10.2,9.4 10.5,9.1 10.9,9.4 10.7,9 11.1,8.7 10.7,8.7 		"/>
	</g>
	<g>
		<polygon class="st0" points="12.5,8.3 12.3,8.7 12,8.7 12.3,9 12.2,9.4 12.5,9.1 12.8,9.4 12.7,9 13,8.7 12.6,8.7 		"/>
	</g>
	<g>
		<polygon class="st0" points="14.4,8.3 14.3,8.7 13.9,8.7 14.2,9 14.1,9.4 14.4,9.1 14.7,9.4 14.6,9 14.9,8.7 14.5,8.7 		"/>
	</g>
	<g>
		<polygon class="st0" points="0.9,6.6 0.8,7 0.4,7 0.7,7.2 0.6,7.6 0.9,7.4 1.2,7.6 1.1,7.2 1.4,7 1,7 		"/>
	</g>
	<g>
		<polygon class="st0" points="2.8,6.6 2.7,7 2.3,7 2.6,7.2 2.5,7.6 2.8,7.4 3.2,7.6 3,7.2 3.4,7 3,7 		"/>
	</g>
	<g>
		<polygon class="st0" points="4.8,6.6 4.6,7 4.3,7 4.6,7.2 4.4,7.6 4.8,7.4 5.1,7.6 5,7.2 5.3,7 4.9,7 		"/>
	</g>
	<g>
		<polygon class="st0" points="6.7,6.6 6.6,7 6.2,7 6.5,7.2 6.4,7.6 6.7,7.4 7,7.6 6.9,7.2 7.2,7 6.8,7 		"/>
	</g>
	<g>
		<polygon class="st0" points="8.6,6.6 8.5,7 8.1,7 8.4,7.2 8.3,7.6 8.6,7.4 8.9,7.6 8.8,7.2 9.1,7 8.7,7 		"/>
	</g>
	<g>
		<polygon class="st0" points="10.5,6.6 10.4,7 10,7 10.3,7.2 10.2,7.6 10.5,7.4 10.9,7.6 10.7,7.2 11.1,7 10.7,7 		"/>
	</g>
	<g>
		<polygon class="st0" points="12.5,6.6 12.3,7 12,7 12.3,7.2 12.2,7.6 12.5,7.4 12.8,7.6 12.7,7.2 13,7 12.6,7 		"/>
	</g>
	<g>
		<polygon class="st0" points="14.4,6.6 14.3,7 13.9,7 14.2,7.2 14.1,7.6 14.4,7.4 14.7,7.6 14.6,7.2 14.9,7 14.5,7 		"/>
	</g>
	<g>
		<polygon class="st0" points="14.4,15.4 14.3,15.8 13.9,15.8 14.2,16 14.1,16.4 14.4,16.1 14.7,16.4 14.6,16 14.9,15.8 14.5,15.8 
					"/>
	</g>
</g>
</svg>
