<?xml version="1.0" encoding="utf-8"?>
<!-- Generator: Adobe Illustrator 22.0.1, SVG Export Plug-In . SVG Version: 6.00 Build 0)  -->
<svg version="1.1" id="Layer_1" xmlns="http://www.w3.org/2000/svg" xmlns:xlink="http://www.w3.org/1999/xlink" x="0px" y="0px"
	 viewBox="0 0 32 32" style="enable-background:new 0 0 32 32;" xml:space="preserve">
<style type="text/css">
	.st0{opacity:0.1;fill:#FFFFFF;}
	.st1{fill:#001731;}
	.st2{fill:#FFFFFF;}
	.st3{fill:#C20032;}
</style>
<rect y="6.2" class="st0" width="32" height="19.7"/>
<g>
	<rect y="6.2" class="st1" width="32" height="19.7"/>
	<g>
		<polygon class="st2" points="25.2,19.3 32,19.3 32,12.7 25,12.7 32,8.4 32,6.2 28.2,6.2 19.2,11.6 19.2,6.2 12.8,6.2 12.8,11.6 
			3.8,6.2 0,6.2 0,8.4 7,12.7 0,12.7 0,19.3 6.8,19.3 0,23.5 0,25.8 3.9,25.8 12.8,20.3 12.8,25.8 19.2,25.8 19.2,20.3 28.2,25.8 
			32,25.8 32,23.6 		"/>
		<polygon class="st3" points="32,14 17.9,14 17.9,6.2 14.1,6.2 14.1,14 0,14 0,18 14.1,18 14.1,25.8 17.9,25.8 17.9,18 32,18 		"/>
		<polygon class="st3" points="19.2,12.7 21.4,12.7 32,6.2 29.8,6.2 		"/>
		<polygon class="st3" points="0,25.8 2.2,25.8 12.8,19.3 10.6,19.3 		"/>
		<polygon class="st3" points="21.4,19.3 23.7,19.3 32,24.6 32,25.8 		"/>
		<polygon class="st3" points="0,7.4 0,6.2 10.9,12.7 8.6,12.7 		"/>
	</g>
</g>
</svg>
