<?xml version="1.0" encoding="utf-8"?>
<!-- Generator: Adobe Illustrator 22.0.1, SVG Export Plug-In . SVG Version: 6.00 Build 0)  -->
<svg version="1.1" id="Layer_1" xmlns="http://www.w3.org/2000/svg" xmlns:xlink="http://www.w3.org/1999/xlink" x="0px" y="0px"
	 viewBox="0 0 408 383" style="enable-background:new 0 0 408 383;" xml:space="preserve">
<style type="text/css">
	.st0{fill:#FFFFFF;}
</style>
<path class="st0" d="M343.4,335c0.8,0,1.6,0,1.6,0c0.8,0,2.4,0,4,0c0.8,0,1.6-0.8,2.4-0.8c0.8-0.8,1.6-0.8,2.4-1.6
	c0.8-0.8,1.6-1.6,1.6-2.4c0.8-0.8,0.8-1.6,0.8-2.4c0-1.6,0-2.4,0-4c0-0.8,0-1.6,0-1.6c0-0.8,0-1.6,0-2.4v-255c0-0.8,0-1.6,0-2.4
	s0-1.6,0-1.6c0-0.8,0-2.4,0-4c0-0.8-0.8-1.6-0.8-2.4c-0.8-0.8-0.8-1.6-1.6-2.4c-0.8-0.8-1.6-1.6-2.4-1.6c-0.8-0.8-1.6-0.8-2.4-0.8
	c-1.6,0-2.4,0-4,0c-0.8,0-1.6,0-1.6,0c-0.8,0-1.6,0-2.4,0H214.3c-10.3,21.5-18.4,47-23.1,76.5c-6.3,43.1-8,70.1-8,78.1
	c0,0.8,0,2.4,0,2.4c0,0.8,0,1.6,0.8,2.4c0,0.8,1.6,0.8,2.4,0.8h31.9h0.8c8,0,12.8,4.8,12.8,13.5c0,14.4,0.8,28.7,1.6,43.8
	c18.4-3.2,31-9.6,39.8-15.1c13.5-8.8,19.9-17.5,19.9-17.5c0.8-1.6,2.4-2.4,4-2.4c0.8,0,1.6,0,2.4,0.8c2.4,1.6,3.2,4.8,1.6,6.3
	c-0.8,1.6-19.9,28.7-66.9,37.5v0.8c1.6,20.7,5.6,45.4,8,57.4h99.6C341.8,335,342.6,335,343.4,335z M280.5,146.2
	c0,3.2-2.4,6.3-6.3,6.3c-3.2,0-6.3-3.2-6.3-6.3v-20.7c0-3.2,3.2-6.3,6.3-6.3c3.2,0,6.3,2.4,6.3,6.3V146.2z"/>
<path class="st0" d="M51.8,60.2c0,0.8,0,1.6,0,1.6v0.8v0.8v1.6V319v0.8v0.8v0.8c0,0.8,0,1.6,0,1.6c0,0.8,0,2.4,0,4
	c0,0.8,0.8,1.6,0.8,2.4c0.8,0.8,0.8,1.6,1.6,2.4c0.8,0.8,1.6,1.6,2.4,1.6c0.8,0.8,1.6,0.8,2.4,0.8c1.6,0,2.4,0,4,0
	c0.8,0,1.6,0,1.6,0c0.8,0,1.6,0,2.4,0h163.3c-2.4-13.5-6.3-37.5-8-56.6c0,0,0,0,0-0.8c-6.3,0.8-12.8,0.8-19.1,0.8
	c-69.3,0-94.8-38.2-95.6-39.8c0,0,0-1.6,0-2.4c0-1.6,0.8-2.4,2.4-3.2c0.8-0.8,1.6-0.8,2.4-0.8c1.6,0,3.2,0.8,4,2.4
	c0,0,6.3,8.8,19.9,17.5c12.8,8,34.3,17.5,67.8,17.5c6.3,0,12.8-0.8,19.1-0.8c-0.8-15.1-1.6-30.3-1.6-45.4c0-4-0.8-4-3.2-4h-0.8h-31
	c-4,0-7.2-1.6-9.6-4c-1.6-1.6-3.2-4.8-3.2-9.6c0-0.8,0-1.6,0-2.4c0.8-8.8,1.6-35.9,8.8-79.7c4.1-27.7,11.2-52.4,20.8-73.9H67.7
	c-0.8,0-1.6,0-2.4,0c-0.8,0-1.6,0-2.4,0s-2.4,0-3.2,0c-0.8,0-1.6,0.8-2.4,0.8c-1.6,0.8-2.4,1.6-2.4,2.4c-0.8,0-1.6,0.8-1.6,1.6
	c-0.8,0.8-0.8,2.4-1.6,3.2C51.8,57.8,51.8,59.3,51.8,60.2z M127.5,125.5c0-3.2,3.2-6.3,6.3-6.3c3.2,0,6.3,3.2,6.3,6.3v20.7
	c0,3.2-3.2,6.3-6.3,6.3c-3.2,0-6.3-3.2-6.3-6.3V125.5z"/>
</svg>
