<?xml version="1.0" encoding="utf-8"?>
<!-- Generator: Adobe Illustrator 22.0.1, SVG Export Plug-In . SVG Version: 6.00 Build 0)  -->
<svg version="1.1" id="Layer_1" xmlns="http://www.w3.org/2000/svg" xmlns:xlink="http://www.w3.org/1999/xlink" x="0px" y="0px"
	 viewBox="0 0 339.6 254.7" style="enable-background:new 0 0 339.6 254.7;" xml:space="preserve">
<style type="text/css">
	.st0{fill:#FFFFFF;}
</style>
<g id="mobility">
	<path class="st0" d="M259.3,140.7l-41.8,21.9c0,0-0.1,0-0.1,0.1l-0.7,0.3l25.2,15.3l-32.2,19.1h95.4l6-60.1l-28.5,16.9L259.3,140.7
		z"/>
	<polygon class="st0" points="120.4,163.7 81.4,138.4 54.5,151.8 30.3,134.1 17.1,197.3 116.3,197.3 90.2,178.1 	"/>
	<path class="st0" d="M235,38.4c0.4,0,0.8,0,1.1,0.1L307.6,62c0.2,0.1,0.3,0.1,0.5,0.2l12.2,7.1l4.2-31.3H216l4.4,2.2L235,38.4z"/>
	<path class="st0" d="M88.6,85.4c9.2-2.5,18.1-5,25.1-6.9V67.3c0-0.9,0.4-1.7,1.2-2.1l6.7-4.2l-14.2-8.2L135.9,38H50.4L40,87.9
		l28.4-14.8L88.6,85.4z"/>
	<polygon class="st0" points="255.1,50 248.7,49.8 233.3,56 233.3,83.5 284.7,60.2 286.1,60.2 	"/>
	<path class="st0" d="M163.3,105.3c-0.1,0-0.2,0-0.3,0c-4.6-0.5-15.4-1.6-17-2.2c-1.6-0.5-6.6-3.3-8.1-4.1l-5-2.7l-37.7,15.1
		l-17.7,18.5l35,22.7l22.1-24.3l50.6-22.9L163.3,105.3L163.3,105.3z"/>
	<polygon class="st0" points="232.5,51 244,46.3 235,43.4 227,44.4 	"/>
	<path class="st0" d="M69.6,107.7l-11.2,9.8l14.8,9.6l19.2-20l0.5-0.2l34.4-13.8l-1.5-0.8C113.7,95.6,89.8,102.2,69.6,107.7z"/>
	<path class="st0" d="M305.7,66.6l-4.4-1.5h-15.5l-148.2,67.2l-20.9,22.9l18.1,11.7l20.7-22.9c0.2-0.2,0.5-0.4,0.8-0.6l146.4-69.5
		c0.3-0.2,0.7-0.2,1.1-0.2h14.3L305.7,66.6z"/>
	<path class="st0" d="M221.2,45.4l-13-6h-19.3l-28.3,3.4l-41.8,26v8.4c5.6-1.5,9.3-2.6,10.1-2.8c4.2-1.1,8,1.1,9.3,5.3
		c1.2,3.8-0.1,8.8-4.8,10.6c-0.1,0-0.1,0-0.2,0.1c0,0-0.2,0.1-0.6,0.2l7.7,4.2c2.9,1.6,6.5,3.5,7.3,3.8c0.3,0.1,0.9,0.2,1.9,0.3
		V79.7L190.8,60l27.5-6.3l3.4-7.8L221.2,45.4z"/>
	<path class="st0" d="M35.1,112c7.7-2.1,92.9-25.5,96.7-26.5c2.1-0.9,2-3.2,1.7-4.3c-0.2-0.7-0.9-2.1-2.4-2.1c-0.3,0-0.5,0-0.9,0.1
		c-1.9,0.5-21.9,6-43.1,11.8c-25,6.9-50.8,14-53.7,14.7c-1.7,0.5-2.9,1.3-3.2,2.5c-0.3,1,0.1,2.1,0.9,2.9
		C31.6,111.8,32.9,112.6,35.1,112z"/>
	<ellipse class="st0" cx="168.3" cy="160.6" rx="7.3" ry="8.8"/>
	<ellipse class="st0" cx="194.3" cy="149.1" rx="7.3" ry="8.8"/>
	<ellipse class="st0" cx="218.3" cy="137.1" rx="7.3" ry="8.8"/>
	<ellipse class="st0" cx="241.3" cy="126.1" rx="7.3" ry="8.8"/>
	<ellipse class="st0" cx="262.8" cy="114.6" rx="7.3" ry="8.8"/>
	<ellipse class="st0" cx="285.3" cy="103.6" rx="7.3" ry="8.8"/>
	<ellipse class="st0" cx="303" cy="91.1" rx="5.5" ry="6.7"/>
	<path class="st0" d="M319.3,83.9c-0.2-0.1-0.4-0.1-0.6-0.1c-0.6,0-1.2,0.4-1.4,0.9l-5.9,14.5c-0.2,0.4-0.4,0.8-0.8,1.1l-8.6,7.8
		l-0.1,0.1l-11.8,9.6c-0.2,0.1-0.3,0.2-0.5,0.3L260,133.4l-45.2,23.7h-0.1l-34,16.3c-0.4,0.2-0.8,0.3-1.3,0.3h-35.3
		c-0.8,0-1.5,0.7-1.5,1.5s0.7,1.5,1.5,1.5h36.3c0.2,0,0.4-0.1,0.6-0.1l35-16.7l0,0l45.3-23.7l30-15.5c0.1,0,0.2-0.1,0.3-0.2l12.2-10
		l0,0l9.5-8.6c0.2-0.1,0.3-0.3,0.4-0.5L320,86C320.5,85.1,320.1,84.3,319.3,83.9z"/>
</g>
</svg>
