<svg id="Layer_1" data-name="Layer 1" xmlns="http://www.w3.org/2000/svg" viewBox="0 0 188.2 64.2"><defs><style>.cls-1{fill:#fff;}</style></defs><title>moo</title><path id="WG_MOO_Logo_Simplified_Monochrome_1c" data-name="WG MOO Logo Simplified Monochrome 1c" class="cls-1" d="M180.3,103.5a4.3,4.3,0,1,0-4.3-4.3A4.4,4.4,0,0,0,180.3,103.5Zm0-6.8a2.6,2.6,0,1,1-2.6,2.6h0a2.72,2.72,0,0,1,2.6-2.6Zm-79.9,6.8H98.6l4.8-8.9,4.8,8.9h-1.8l-3-5.5Zm-19.7,0H78.9l4.8-8.9,2.9,5.4,2.9-5.4,4.8,8.9H92.5l-3-5.5-2.9,5.4L83.7,98Zm50.5-6.8h-3V95h7.6v1.7h-3v6.8h-1.7V96.7Zm17.5,6.8h-5.9V95h5.9v1.7h-4.2v1.7h4.2v1.7h-4.2v1.7h4.2Zm-33.9-4.2a2,2,0,0,1-.4-1.3v-.8a2.11,2.11,0,0,1,2.1-2.1H121v1.7h-4.5a.43.43,0,0,0-.4.4V98a.43.43,0,0,0,.4.4h2.7a2,2,0,0,1,1.7.9,2,2,0,0,1,.4,1.3v.8a2.11,2.11,0,0,1-2.1,2.1h-4.5v-1.7h4.5a.43.43,0,0,0,.4-.4v-.8a.43.43,0,0,0-.4-.4h-2.7A2.59,2.59,0,0,1,114.8,99.3Zm43.2,4.2h-1.7V95h4.5a2.11,2.11,0,0,1,2.1,2.1v1.6a2.25,2.25,0,0,1-1.6,2.1l1.9,3.5h-1.7l-2.7-5.1h2.1a.43.43,0,0,0,.4-.4V97.2a.43.43,0,0,0-.4-.4H158Zm34,0h-1.7V95h5.9v1.7H192v1.7h4.2v1.7H192Zm-13.5,11.6a30.62,30.62,0,0,0-32.2,0c-4.3,3-6.7,6.9-6.7,11.1s2.4,8.1,6.7,11.1a30.62,30.62,0,0,0,32.2,0c4.3-3,6.7-6.9,6.7-11.1S182.8,118.1,178.5,115.1Zm-6,18a17.35,17.35,0,0,1-10.1,3,16.35,16.35,0,0,1-9.8-2.9c-2.6-1.9-4.1-4.4-4.1-7s1.4-5.1,4.1-7a18.19,18.19,0,0,1,19.9.1c2.6,1.9,4,4.3,4,6.9S175.1,131.2,172.5,133.1Zm-44-21.9h8.7v30h-8.7Zm-13,21.4,31.2,26.2H134.6L96.6,127h13.5c2.9,0,5.8-1.8,5.8-4.8s-3-4.8-5.8-4.8h-25l-7.3-6.1h33.6a15.85,15.85,0,0,1,9.2,2.8,9.73,9.73,0,0,1,4.1,8.1,10.3,10.3,0,0,1-2.5,6.7,12.3,12.3,0,0,1-6.1,3.6,1.76,1.76,0,0,0-.6.1ZM79.7,115.1a28.74,28.74,0,0,0-16.1-4.6,28.74,28.74,0,0,0-16.1,4.6c-4.3,3-6.7,6.9-6.7,11.1s2.4,8.1,6.7,11.1a28.74,28.74,0,0,0,16.1,4.6,28.74,28.74,0,0,0,16.1-4.6c4.3-3,6.7-6.9,6.7-11.1S84,118.1,79.7,115.1ZM49.6,126.2c0-2.6,1.4-5.1,4.1-7a16.35,16.35,0,0,1,9.8-2.9,17.35,17.35,0,0,1,10.1,3c2.6,1.9,4,4.3,4,6.9s-1.4,5-4,6.9a17.35,17.35,0,0,1-10.1,3,16.35,16.35,0,0,1-9.8-2.9C51,131.3,49.6,128.9,49.6,126.2Zm179.4-15v30h-8.7l-23.5-19.6v19.6h-8.7V117.1l-7-5.9h15.7L220.4,131V111.2Z" transform="translate(-40.8 -94.6)"/></svg>