<?xml version="1.0" encoding="utf-8"?>
<!-- Generator: Adobe Illustrator 22.0.1, SVG Export Plug-In . SVG Version: 6.00 Build 0)  -->
<svg version="1.1" id="Layer_1" xmlns="http://www.w3.org/2000/svg" xmlns:xlink="http://www.w3.org/1999/xlink" x="0px" y="0px"
	 viewBox="0 0 339.6 254.7" style="enable-background:new 0 0 339.6 254.7;" xml:space="preserve">
<style type="text/css">
	.st0{fill:#FFFFFF;}
</style>
<g id="second_x5F_line_x5F_of_x5F_combat">
	<path class="st0" d="M133.3,127.3v-8c0,0,19-16,24.5-19s24.5-8.5,38.5-8s21.5,10.5,21.5,10.5l7.5-1.5l55,15.7l12,7.8l-5,2.5l1.5,8
		l-4,13l-13,12.5l-75,39l-19,6.5h-17l-12-4.5l-8-3.5l-36.5-20l-11-6l-3-8.5l-6.5-5.5l14.5-9l9.5-5.5c0,0-27.5,8.3-33.3,9.6
		s-6.9-6.1-2.2-7.6C74.5,145.1,133.3,127.3,133.3,127.3z"/>
	<polygon class="st0" points="185.2,67.1 216.2,53 217.1,53 198.3,46.8 194.5,46.7 185.2,50.5 	"/>
	<path class="st0" d="M125.6,94.1l30.5-13.8h-13.2c-0.1,0-0.1,0-0.2,0c-2.8-0.3-9.3-1-10.3-1.3s-4-2-4.9-2.5l-3-1.7l-22.7,9.1
		L91.1,95l21.1,13.7L125.6,94.1z"/>
	<polygon class="st0" points="191.7,44.6 186.2,42.8 181.4,43.5 184.7,47.4 	"/>
	<path class="st0" d="M121.1,72.9l-0.9-0.5c-7.2,2-21.7,5.9-33.8,9.3l-6.8,5.9l8.9,5.8l11.6-12.1l0.3-0.1L121.1,72.9z"/>
	<path class="st0" d="M127.4,96.6l-12.6,13.8l10.9,7.1l12.5-13.8c0.1-0.1,0.3-0.3,0.5-0.4l88.4-42c0.2-0.1,0.4-0.1,0.6-0.1h8.6
		l-7.4-4.4l-2.7-0.9h-9.4L127.4,96.6z"/>
	<path class="st0" d="M127.8,64.7c0.7,2.3,0,5.3-2.9,6.4h-0.1c0,0-0.1,0-0.4,0.1l4.7,2.6c1.7,1,3.9,2.1,4.4,2.3
		c0.2,0,0.6,0.1,1.1,0.2V64.7l25-11.9l16.6-3.8l2-4.7l-0.3-0.3l-7.8-3.6h-11.7l-17.1,2.1L116,58.1v5.1c3.4-0.9,5.6-1.5,6.1-1.7
		C124.6,60.9,127,62.2,127.8,64.7z"/>
	<path class="st0" d="M65.5,84.3c4.7-1.3,56.1-15.4,58.4-16c1.3-0.5,1.2-1.9,1-2.6c-0.1-0.4-0.5-1.2-1.5-1.2c-0.2,0-0.3,0-0.5,0.1
		c-1.1,0.3-13.2,3.6-26,7.1c-15.1,4.1-30.7,8.4-32.4,8.9c-1,0.3-1.7,0.8-1.9,1.5c-0.2,0.6,0.1,1.3,0.5,1.8
		C63.4,84.1,64.2,84.6,65.5,84.3z"/>
	<path class="st0" d="M145.9,118.9c2.4,0,4.4-2.4,4.4-5.3c0-2.6-1.6-4.8-3.6-5.2c-1.7,1.3-3.4,2.7-5,4c-0.1,0.4-0.1,0.8-0.1,1.2
		C141.5,116.5,143.5,118.9,145.9,118.9z"/>
	<path class="st0" d="M161.6,111.9c2.4,0,4.4-2.4,4.4-5.3s-2-5.3-4.4-5.3s-4.4,2.4-4.4,5.3S159.2,111.9,161.6,111.9z"/>
	<path class="st0" d="M171.7,99.4c0,2.9,2,5.3,4.4,5.3s4.4-2.4,4.4-5.3c0-2.5-1.4-4.5-3.3-5.1c-1.2,0.2-2.4,0.5-3.6,0.8
		C172.5,96,171.7,97.6,171.7,99.4z"/>
	<path class="st0" d="M190,98c2.4,0,4.4-2.4,4.4-5.3c0-0.2,0-0.3,0-0.5c-2.8,0-5.7,0.2-8.7,0.6C185.7,95.7,187.6,98,190,98z"/>
	<path class="st0" d="M207.4,85.8c0-2.9-2-5.3-4.4-5.3s-4.4,2.4-4.4,5.3c0,0.6,0.1,1.2,0.3,1.7c2.7,0.3,5.2,0.9,7.5,1.6
		C207,88.2,207.4,87.1,207.4,85.8z"/>
	<ellipse class="st0" cx="216.6" cy="79.2" rx="4.4" ry="5.3"/>
	<path class="st0" d="M223.9,71.6c0,2.2,1.5,4,3.3,4s3.3-1.8,3.3-4s-1.5-4-3.3-4S223.9,69.4,223.9,71.6z"/>
	<path class="st0" d="M220.3,89.5c0.1,0,0.1-0.1,0.2-0.1l7.4-6l0,0l5.7-5.2c0.1-0.1,0.2-0.2,0.2-0.3l3.8-9.3c0.2-0.5,0-1-0.5-1.2
		c-0.1,0-0.2-0.1-0.3-0.1c-0.4,0-0.7,0.2-0.8,0.6l-3.6,8.8c-0.1,0.3-0.3,0.5-0.5,0.7l-5.2,4.7c0,0,0,0-0.1,0.1l-7.1,5.8
		c-0.1,0.1-0.2,0.2-0.3,0.2l-7.2,3.7c0.6,0.4,1.3,0.7,1.8,1.1L220.3,89.5z"/>
	<path class="st0" d="M201.3,97.2L174,111.5c0,0,0,0-0.1,0l-20.5,9.8c-0.2,0.1-0.5,0.2-0.8,0.2h-19.4v1.8h20c0.1,0,0.3,0,0.4-0.1
		l21.1-10.1l0,0l27.4-14.3l6.4-3.3c-0.7-0.3-1.3-0.7-2.1-1L201.3,97.2z"/>
</g>
</svg>
