<?xml version="1.0" encoding="utf-8"?>
<!-- Generator: Adobe Illustrator 22.0.1, SVG Export Plug-In . SVG Version: 6.00 Build 0)  -->
<svg version="1.1" id="Layer_1" xmlns="http://www.w3.org/2000/svg" xmlns:xlink="http://www.w3.org/1999/xlink" x="0px" y="0px"
	 viewBox="0 0 339.6 254.7" style="enable-background:new 0 0 339.6 254.7;" xml:space="preserve">
<style type="text/css">
	.st0{fill:#FFFFFF;}
</style>
<g id="speed">
	<path class="st0" d="M180.1,48.7c42.5,0,77,34.5,77,77s-34.5,77-77,77s-77-34.5-77-77S137.7,48.7,180.1,48.7 M180.1,36.7
		c-49.2,0-89,39.8-89,89s39.8,89,89,89s89-39.8,89-89S229.3,36.7,180.1,36.7L180.1,36.7z"/>
	<g>
		<path class="st0" d="M176.3,111.8l-7.2,1.3l-1.7,7.1l3.2,3.1c-0.2,0.8-0.3,1.6-0.3,2.4c0,5.4,4.4,9.8,9.8,9.8
			c0.9,0,1.7-0.1,2.5-0.3l37.9,37.4l6.4,1.7l-1.4-6.5l-35.7-40.6c0.1-0.5,0.1-1,0.1-1.5c0-5.4-4.4-9.8-9.8-9.8c-0.1,0-0.2,0-0.3,0
			L176.3,111.8L176.3,111.8z M180.1,130.4c-2.6,0-4.7-2.1-4.7-4.7c0-2.6,2.1-4.7,4.7-4.7s4.7,2.1,4.7,4.7
			C184.8,128.3,182.7,130.4,180.1,130.4L180.1,130.4z"/>
	</g>
	<path class="st0" d="M215.2,112.4l28.1-10.6c-3.6-9.4-9.2-17.8-16.3-24.7l-20.8,21.6C210.1,102.5,213.2,107.2,215.2,112.4z"/>
	<path class="st0" d="M188.5,89.1c4.1,1,8,2.6,11.5,4.8l16-25.5c-6.3-3.9-13.3-6.9-20.7-8.6L188.5,89.1z"/>
	<path class="st0" d="M171.2,89.2c2.9-0.7,5.9-1.1,8.9-1.1c0.2,0,0.5,0,0.7,0l0.6-30c-0.4,0-0.8,0-1.3,0c-5.5,0-10.9,0.7-16.1,1.9
		L171.2,89.2z"/>
	<path class="st0" d="M226.1,174c0.1,0,0.3,0.1,0.4,0.2c0.2,0,0.3,0.1,0.5,0.1c12.7-12.3,20.7-29.5,20.7-48.6c0-3.5-0.3-7-0.8-10.3
		l-29.7,4.6c0.3,1.9,0.4,3.8,0.4,5.7c0,11.5-5.2,21.8-13.4,28.7c1,1.1,1.9,2.3,2.8,3.6c1.6,2.5,4.1,4.8,6.6,7.1
		c1.8,0.8,3.2,2.3,4.1,4c0.2,0.2,0.5,0.5,0.7,0.7c0.9,0.5,1.8,1,2.7,1.4c1,0.6,2,1.2,3,1.9C224.8,173.4,225.5,173.7,226.1,174
		L226.1,174z"/>
	<path class="st0" d="M112.8,131c0.4,4.5,1.1,8.9,2.3,13.1l28.9-8.2c-0.7-2.4-1.1-4.8-1.3-7.4L112.8,131z"/>
</g>
</svg>
