<?xml version="1.0" encoding="utf-8"?>
<!-- Generator: Adobe Illustrator 22.0.1, SVG Export Plug-In . SVG Version: 6.00 Build 0)  -->
<svg version="1.1" id="Layer_1" xmlns="http://www.w3.org/2000/svg" xmlns:xlink="http://www.w3.org/1999/xlink" x="0px" y="0px"
	 viewBox="0 0 339.6 254.7" style="enable-background:new 0 0 339.6 254.7;" xml:space="preserve">
<style type="text/css">
	.st0{fill:#FFFFFF;}
	.st1{fill:none;stroke:#FFFFFF;stroke-width:11;stroke-miterlimit:10;}
	.st2{fill:none;stroke:#FFFFFF;stroke-width:11;stroke-linecap:round;stroke-linejoin:round;stroke-miterlimit:10;}
</style>
<g id="stealthyness">
	<g>
		<path class="st0" d="M217.5,160.8h-82.7v28c0,3.6-2.9,6.5-6.5,6.5h-30c-3.6,0-6.5-2.9-6.5-6.5v-74.4c0-3.6,2.9-6.5,6.5-6.5h36
			V65.7c0-3.6,2.9-6.5,6.5-6.5h37.7l1.3-3.7c0.9-2.6,3.4-4.3,6.1-4.3h12.5c2.7,0,5.2,1.7,6.1,4.3l1.3,3.7H217c3.6,0,6.5,2.9,6.5,6.5
			v42.2h30.7c3.6,0,6.5,2.9,6.5,6.5v47.9c4,1.9,7.7,4.1,11,6.3v-54.2c0-9.6-7.9-17.5-17.5-17.5h-19.7V65.7c0-9.6-7.9-17.5-17.5-17.5
			h-4c-3.2-4.9-8.7-8-14.7-8h-12.5c-6,0-11.5,3.1-14.7,8h-30.5c-9.6,0-17.5,7.9-17.5,17.5v31.2h-25c-9.6,0-17.5,7.9-17.5,17.5v74.4
			c0,9.6,7.9,17.5,17.5,17.5h30c9.6,0,17.5-7.9,17.5-17.5v-17h52.9C203.7,168,210.2,163.8,217.5,160.8z"/>
		<path class="st0" d="M222.1,206.2c-2.8-0.9-5.6-2-8.2-3.2C216.3,204.7,219.1,205.8,222.1,206.2z"/>
		<path class="st0" d="M252.3,206.3h2c6,0,11.3-3,14.5-7.7C263.9,201.7,258.3,204.5,252.3,206.3z"/>
	</g>
	<path class="st0" d="M237.4,214.2c-30.1,0-53.8-26.7-54.8-27.9l-3.2-3.6l3.2-3.6c1-1.1,24.7-27.9,54.8-27.9s53.8,26.7,54.8,27.9
		l3.2,3.6l-3.2,3.6C291.3,187.4,267.6,214.2,237.4,214.2z M194.5,182.7c7.1,6.7,23.9,20.5,43,20.5c19,0,35.9-13.8,43-20.5
		c-7.1-6.7-23.9-20.5-43-20.5S201.6,175.9,194.5,182.7z"/>
	<circle class="st1" cx="237.4" cy="182.7" r="13.8"/>
	<line class="st2" x1="128.9" y1="102.5" x2="154.4" y2="102.5"/>
	<line class="st2" x1="203.4" y1="102.5" x2="228.9" y2="102.5"/>
</g>
</svg>
