<?xml version="1.0" encoding="utf-8"?>
<!-- Generator: Adobe Illustrator 22.0.1, SVG Export Plug-In . SVG Version: 6.00 Build 0)  -->
<svg version="1.1" id="Layer_1" xmlns="http://www.w3.org/2000/svg" xmlns:xlink="http://www.w3.org/1999/xlink" x="0px" y="0px"
	 viewBox="0 0 339.6 254.7" style="enable-background:new 0 0 339.6 254.7;" xml:space="preserve">
<style type="text/css">
	.st0{fill:#FFFFFF;}
</style>
<g id="STUN">
	<polygon class="st0" points="227.6,188.7 117.9,188.7 63,193.5 117.9,198.3 227.6,198.3 282.4,193.5 	"/>
	<polygon class="st0" points="213.1,123 200.4,133.8 200.4,52.1 192.4,70 184.4,52.1 184.4,147.4 172.4,157.7 159.1,146.3 
		159.1,52.4 151.2,70 143.1,51.8 143.1,132.6 131.8,123 95,123 172.4,189 249.9,123 	"/>
	<g>
		<polygon class="st0" points="225.6,119 236.1,101 217.2,119 		"/>
		<polygon class="st0" points="221.6,147.1 205.1,149.3 219.1,130 223.2,123 213.1,123 211.5,124.3 200.4,138.7 197.1,130 
			200.4,123 200.4,111.3 192.4,123 198.8,144 176.8,161.3 175.7,154.9 172.4,157.7 165.3,151.6 164.1,158.3 164.1,170.7 
			145.4,130.3 143.1,126.9 143.1,132.6 136.2,126.7 138.8,131.7 123.1,143 116,140.9 172.4,189 		"/>
		<polygon class="st0" points="204.4,114.5 218.4,85 204.4,105.5 		"/>
		<polygon class="st0" points="172.4,152.4 174.9,150.3 170.3,123 166.1,147 		"/>
		<path class="st0" d="M210.9,161.5L175,192.1c-0.7,0.6-1.7,1-2.6,1c-0.9,0-1.8-0.3-2.6-1l-40.5-34.6l13.8,13.5l-53.7-24l74.7,44
			l5.5,4.3l55.1-21.3l-36.3,10l61.4-44.3L210.9,161.5z"/>
		<path class="st0" d="M134.4,119.9l4.7,4v-3l-27.7-41l20.6,39C132.9,119.1,133.7,119.4,134.4,119.9z"/>
	</g>
	<polygon class="st0" points="86.1,94.3 89.4,102.7 100.4,108.3 97.8,101.3 	"/>
	<polygon class="st0" points="225.4,75.3 225.4,67 234.8,60.3 	"/>
</g>
</svg>
