<?xml version="1.0" encoding="utf-8"?>
<!-- Generator: Adobe Illustrator 22.0.1, SVG Export Plug-In . SVG Version: 6.00 Build 0)  -->
<svg version="1.1" id="Layer_1" xmlns="http://www.w3.org/2000/svg" xmlns:xlink="http://www.w3.org/1999/xlink" x="0px" y="0px"
	 viewBox="0 0 339.6 254.7" style="enable-background:new 0 0 339.6 254.7;" xml:space="preserve">
<style type="text/css">
	.st0{fill:#FFFFFF;}
</style>
<g id="support">
	<polygon class="st0" points="205.3,97.8 154.8,113.3 152.7,118.7 166.9,122.1 168,119.3 212,101.3 233.3,107.3 186.5,125.5 
		175.6,149.7 159,142.6 160.8,137.9 146.4,134.4 143.3,142.3 123.3,149.8 96.8,173.9 141.6,196.5 166.8,169.8 190.3,161.3 
		203.8,132.8 248.8,110.3 	"/>
	<g>
		<polygon class="st0" points="175.8,113.2 169.3,118.8 173.3,117.2 176.7,114.2 183.2,104.6 181.1,105.2 		"/>
		<polygon class="st0" points="166.9,122.1 167.7,120.2 165.8,121.8 		"/>
		<polygon class="st0" points="148.8,135 147,134.5 146.2,135 145.3,137.2 		"/>
		<polygon class="st0" points="113.6,152 118.1,150.5 120.6,148.2 113.7,150.5 79.1,133 78.5,134.2 113.3,151.9 		"/>
		<polygon class="st0" points="163.1,125.9 164.6,124.6 163,124.2 162.3,124.8 150.5,132.3 152.4,132.7 		"/>
		<polygon class="st0" points="186.4,96.7 183.6,101.3 185.6,100.7 187.8,97.1 187.8,91.4 181.6,85.3 180.6,86.3 186.4,92 		"/>
	</g>
	<g>
		<path class="st0" d="M95.6,122.1c-0.1,0-0.1,0-0.2,0c-3.7-0.9-6.3-4.2-6.4-8l-14.1,12.8l30.7,15.6l13.8-14.6L95.6,122.1z"/>
		<path class="st0" d="M121.8,125.4l1.1-1.2l15.9-5.7l-40-9.7l0,0c-0.3-0.1-0.6-0.1-0.9-0.2l-4.5,1.7c-0.9,1-1.4,2.2-1.4,3.6
			c0,2.6,1.8,4.8,4.3,5.3l0,0L121.8,125.4z M94.5,113.9c0-1.6,1.3-2.9,2.9-2.9s2.9,1.3,2.9,2.9s-1.3,2.9-2.9,2.9
			S94.5,115.5,94.5,113.9z"/>
		<polygon class="st0" points="140.3,115.7 148.3,98.8 179.2,83.3 149.3,74.7 114.7,85.4 113.2,89 123,91.4 123.8,89.5 154,77.1 
			168.6,81.3 136.5,93.7 129,110.3 117.6,105.5 118.9,102.2 109,99.8 106.8,105.3 103.1,106.7 		"/>
	</g>
	<path class="st0" d="M177.1,138.7l4.4-10l-82.6-20l0,0c-0.5-0.1-0.9-0.2-1.4-0.2c-3,0-5.4,2.4-5.4,5.4c0,2.6,1.8,4.8,4.3,5.3l0,0
		L177.1,138.7z M94.5,113.9c0-1.6,1.3-2.9,2.9-2.9s2.9,1.3,2.9,2.9s-1.3,2.9-2.9,2.9S94.5,115.5,94.5,113.9z"/>
	<path class="st0" d="M130,102.8l3-6.9L76.3,82.2l0,0c-0.3-0.1-0.6-0.1-1-0.1c-2,0-3.7,1.7-3.7,3.7c0,1.8,1.3,3.3,2.9,3.6l0,0
		L130,102.8z M73.3,85.8c0-1.1,0.9-2,2-2s2,0.9,2,2s-0.9,2-2,2C74.2,87.8,73.3,86.9,73.3,85.8z"/>
	<polygon class="st0" points="153.2,210.4 152.8,210.2 102.1,184.5 103,182.7 153.4,208.3 169.5,202.9 183.3,196.7 224.2,170.8 
		243.8,153.9 253.4,139.5 259.3,129.8 259.3,123 250.8,114.6 252.2,113.2 261.3,122.2 261.3,130.4 255.1,140.6 245.2,155.3 
		225.3,172.4 184.2,198.5 170.2,204.7 	"/>
</g>
</svg>
