<?xml version="1.0" encoding="utf-8"?>
<!-- Generator: Adobe Illustrator 22.0.1, SVG Export Plug-In . SVG Version: 6.00 Build 0)  -->
<svg version="1.1" id="Layer_1" xmlns="http://www.w3.org/2000/svg" xmlns:xlink="http://www.w3.org/1999/xlink" x="0px" y="0px"
	 viewBox="0 0 339.6 254.7" style="enable-background:new 0 0 339.6 254.7;" xml:space="preserve">
<style type="text/css">
	.st0{fill:#FFFFFF;}
</style>
<g id="survivability">
	<g>
		<polygon class="st0" points="219.5,110.2 215.2,110.1 204.8,114.3 204.8,132.8 239.4,117.1 240.4,117.1 		"/>
		<path class="st0" d="M157.6,147.5c-0.1,0-0.1,0-0.2,0c-3.1-0.3-10.4-1.1-11.5-1.5s-4.4-2.2-5.5-2.8l-3.4-1.8l-25.4,10.2l-12,12.5
			l23.6,15.3l14.9-16.4l34.1-15.4h-14.6V147.5z"/>
		<polygon class="st0" points="204.2,110.9 212,107.8 206,105.8 200.5,106.5 		"/>
		<path class="st0" d="M94.5,149.1l-7.5,6.6l10,6.5l12.9-13.5l0.3-0.1l23.1-9.3l-1-0.6C124.3,140.9,108.1,145.3,94.5,149.1z"/>
		<path class="st0" d="M253.6,121.4l-3-1h-10.4l-99.8,45.3l-14.1,15.5l12.2,7.9l13.9-15.4c0.1-0.2,0.3-0.3,0.5-0.4l98.6-46.8
			c0.2-0.1,0.5-0.2,0.7-0.2h9.6L253.6,121.4z"/>
		<path class="st0" d="M196.7,107.1l-8.8-4.1h-13l-19.1,2.3l-28.2,17.5v5.7c3.8-1,6.3-1.7,6.8-1.9c2.8-0.7,5.4,0.7,6.3,3.5
			c0.8,2.6,0,5.9-3.2,7.1h-0.1c0,0-0.2,0-0.4,0.1l5.2,2.8c1.9,1.1,4.4,2.4,4.9,2.5c0.2,0,0.6,0.1,1.3,0.2V130l27.8-13.2l18.5-4.2
			l2.3-5.3L196.7,107.1z"/>
		<path class="st0" d="M71.3,152c5.2-1.4,62.6-17.2,65.1-17.9c1.4-0.6,1.4-2.1,1.1-2.9c-0.1-0.5-0.6-1.4-1.6-1.4
			c-0.2,0-0.4,0-0.6,0.1c-1.3,0.3-14.8,4-29,8c-16.8,4.6-34.2,9.4-36.2,9.9c-1.2,0.3-1.9,0.9-2.1,1.7c-0.2,0.7,0.1,1.4,0.6,2
			C69,151.8,69.8,152.4,71.3,152z"/>
		<ellipse class="st0" cx="161" cy="184.7" rx="4.9" ry="5.9"/>
		<ellipse class="st0" cx="178.5" cy="177" rx="4.9" ry="5.9"/>
		<ellipse class="st0" cx="194.7" cy="168.9" rx="4.9" ry="5.9"/>
		<ellipse class="st0" cx="210.2" cy="161.5" rx="4.9" ry="5.9"/>
		<ellipse class="st0" cx="224.6" cy="153.7" rx="4.9" ry="5.9"/>
		<ellipse class="st0" cx="239.8" cy="146.3" rx="4.9" ry="5.9"/>
		<ellipse class="st0" cx="251.7" cy="137.9" rx="3.7" ry="4.5"/>
		<path class="st0" d="M262.7,133.1c-0.1-0.1-0.3-0.1-0.4-0.1c-0.4,0-0.8,0.2-0.9,0.6l-4,9.8c-0.1,0.3-0.3,0.5-0.5,0.7l-5.8,5.2
			c0,0,0,0-0.1,0.1l-7.9,6.5c-0.1,0.1-0.2,0.2-0.4,0.2l-19.9,10.3l-30.5,16c0,0,0,0-0.1,0l-22.9,11c-0.3,0.1-0.6,0.2-0.9,0.2h-23.8
			c-0.6,0-1,0.5-1,1c0,0.6,0.5,1,1,1h24.5c0.2,0,0.3,0,0.4-0.1l23.6-11.3l0,0l30.5-16l20.2-10.4c0.1,0,0.1-0.1,0.2-0.1l8.2-6.7l0,0
			l6.4-5.8c0.1-0.1,0.2-0.2,0.3-0.4l4.3-10.4C263.5,133.9,263.3,133.3,262.7,133.1z"/>
	</g>
	<polygon class="st0" points="188.9,52.5 188.9,77.8 207.3,70.5 207.3,43 	"/>
	<polygon class="st0" points="166.1,64.4 166.1,86.9 185.1,79.3 185.1,54.5 	"/>
	<polygon class="st0" points="141.5,77.2 141.5,96.7 162.3,88.4 162.3,66.4 	"/>
	<polygon class="st0" points="112,92.6 90.6,103.7 90.6,117 112,108.5 	"/>
	<polygon class="st0" points="115.8,90.6 115.8,107 137.7,98.3 137.7,79.2 	"/>
</g>
</svg>
