<?xml version="1.0" encoding="utf-8"?>
<!-- Generator: Adobe Illustrator 22.0.1, SVG Export Plug-In . SVG Version: 6.00 Build 0)  -->
<svg version="1.1" id="Layer_1" xmlns="http://www.w3.org/2000/svg" xmlns:xlink="http://www.w3.org/1999/xlink" x="0px" y="0px"
	 viewBox="0 0 339.6 254.7" style="enable-background:new 0 0 339.6 254.7;" xml:space="preserve">
<style type="text/css">
	.st0{fill:#FFFFFF;}
</style>
<g id="teamwork">
	<path class="st0" d="M141.3,127.4v-7.9c0-0.3,0.2-0.7,0.5-0.8L177,96.6c0.1-0.1,0.3-0.1,0.4-0.1l22.7-2.9h0.1h16
		c0.1,0,0.3,0,0.4,0.1l11.1,4.6l8.9-1.7c0.2,0,0.4,0,0.5,0l9.6,3.4l1-3.1l-1-5.5l3.5-1.7l-8.3-5.4l-38-10.8l-5.2,1
		c0,0-5.2-6.9-14.8-7.2c-9.7-0.3-22.8,3.5-26.6,5.5c-3.8,2.1-16.9,13.1-16.9,13.1v5.5c0,0-40.6,12.3-42.1,12.8
		c-3.2,1-2.4,6.2,1.5,5.3c4-0.9,23-6.6,23-6.6l-6.6,3.8l-10,6.2l4.5,3.8l2.1,5.9l7.6,4.1l7.6,4.2L141.3,127.4z"/>
	<g>
		<polygon class="st0" points="251.8,105.6 246.9,105.5 234.9,110.3 234.9,131.6 274.8,113.5 275.8,113.5 		"/>
		<path class="st0" d="M180.8,148.5c-0.1,0-0.1,0-0.2,0c-3.6-0.4-12-1.3-13.2-1.7s-5.1-2.6-6.3-3.2l-3.9-2.1l-29.1,11.7l-13.7,14.3
			l27.1,17.6l17.1-18.8l39.1-17.7h-16.9V148.5z"/>
		<polygon class="st0" points="234.3,106.4 243.3,102.8 236.3,100.5 230.1,101.4 		"/>
		<path class="st0" d="M108.3,150.3l-8.7,7.6l11.4,7.4l14.8-15.5l0.4-0.2l26.6-10.7l-1.2-0.7C142.4,140.9,123.9,146,108.3,150.3z"/>
		<path class="st0" d="M291,118.5l-3.4-1.1h-12l-114.7,52l-16.2,17.8l14,9.1l16-17.7c0.2-0.2,0.4-0.3,0.6-0.5l113.3-53.8
			c0.3-0.1,0.5-0.2,0.8-0.2h11L291,118.5z"/>
		<path class="st0" d="M225.6,102.1l-10.1-4.7h-14.9l-21.9,2.6l-32.4,20.1v6.5c4.3-1.2,7.2-2,7.8-2.1c3.2-0.9,6.2,0.8,7.2,4.1
			c0.9,2.9,0,6.8-3.7,8.2c-0.1,0-0.1,0-0.2,0.1c0,0-0.2,0.1-0.5,0.1l6,3.3c2.2,1.2,5,2.7,5.6,2.9c0.2,0.1,0.7,0.1,1.5,0.2v-14.7
			l32-15.2l21.3-4.9l2.6-6L225.6,102.1z"/>
		<path class="st0" d="M81.6,153.6c6-1.7,71.9-19.7,74.8-20.5c1.7-0.7,1.6-2.5,1.3-3.3c-0.2-0.5-0.7-1.6-1.9-1.6
			c-0.2,0-0.4,0-0.7,0.1c-1.5,0.4-17,4.6-33.4,9.2c-19.3,5.3-39.3,10.8-41.5,11.4c-1.3,0.4-2.2,1-2.4,1.9c-0.2,0.8,0.1,1.7,0.7,2.3
			C78.9,153.4,79.9,154.1,81.6,153.6z"/>
		<ellipse class="st0" cx="184.7" cy="191.2" rx="5.6" ry="6.8"/>
		<ellipse class="st0" cx="204.8" cy="182.3" rx="5.6" ry="6.8"/>
		<ellipse class="st0" cx="223.3" cy="173" rx="5.6" ry="6.8"/>
		<ellipse class="st0" cx="241.1" cy="164.5" rx="5.6" ry="6.8"/>
		<ellipse class="st0" cx="257.8" cy="155.6" rx="5.6" ry="6.8"/>
		<ellipse class="st0" cx="275.2" cy="147.1" rx="5.6" ry="6.8"/>
		<ellipse class="st0" cx="288.9" cy="137.4" rx="4.3" ry="5.2"/>
		<path class="st0" d="M301.5,131.9c-0.1-0.1-0.3-0.1-0.4-0.1c-0.5,0-0.9,0.3-1.1,0.7l-4.6,11.2c-0.1,0.3-0.3,0.6-0.6,0.8l-6.7,6
			c0,0-0.1,0-0.1,0.1l-9.1,7.5c-0.1,0.1-0.3,0.2-0.4,0.3l-22.9,11.8l-35,18.3c0,0,0,0-0.1,0l-26.3,12.6c-0.3,0.1-0.7,0.2-1,0.2H166
			c-0.6,0-1.2,0.5-1.2,1.2c0,0.6,0.5,1.2,1.2,1.2h28.1c0.2,0,0.3,0,0.5-0.1l27.1-13l0,0l35.1-18.4l23.2-12c0.1,0,0.1-0.1,0.2-0.1
			l9.4-7.7l0,0l7.3-6.6c0.1-0.1,0.2-0.3,0.3-0.4l4.9-12C302.4,132.8,302.1,132.2,301.5,131.9z"/>
	</g>
	<path class="st0" d="M97.8,71.3c2.6-0.6,15.2-4.4,15.2-4.4l-4.3,2.5l-6.6,4.1l3,2.5l1.4,3.9l5,2.7l15.4,8.4
		c3.8-1.2,7.2-2.2,9.4-2.9v-2.6c0-1.2,0.5-2.3,1.4-3.1c1.4-1.2,13.5-11.4,17.6-13.6c4.5-2.5,17.4-6,27.2-6l0,0c0.5,0,0.9,0,1.4,0
		c4.4,0.2,8.1,1.5,10.9,3l0.9-3.1L195,59l2.3-1.1l-5.5-3.6l-25.1-7.2l-3.4,0.7c0,0-3.4-4.6-9.8-4.8c-6.4-0.2-15.1,2.3-17.6,3.7
		s-11.2,8.7-11.2,8.7v3.7c0,0-26.9,8.1-27.9,8.5C94.6,68.5,95.2,71.9,97.8,71.3z"/>
</g>
</svg>
