<?xml version="1.0" encoding="utf-8"?>
<!-- Generator: Adobe Illustrator 22.0.1, SVG Export Plug-In . SVG Version: 6.00 Build 0)  -->
<svg version="1.1" id="Layer_1" xmlns="http://www.w3.org/2000/svg" xmlns:xlink="http://www.w3.org/1999/xlink" x="0px" y="0px"
	 viewBox="0 0 339.6 254.7" style="enable-background:new 0 0 339.6 254.7;" xml:space="preserve">
<style type="text/css">
	.st0{fill:#FFFFFF;}
</style>
<g id="tremendous_x5F_damage">
	<polygon class="st0" points="141.5,99.2 144.9,100.3 158.7,102.6 155.6,79.4 153.6,65.1 155.4,67.3 154.6,60.4 114.7,71.6 
		123.8,101 133.8,105.8 133.8,102.4 124.6,93.9 	"/>
	<polygon class="st0" points="120.1,99.2 110.9,69.6 154.2,57.4 153.3,49.8 101.3,64.3 111.3,94.8 	"/>
	<polygon class="st0" points="214.5,43 218.8,33.8 169.8,46.8 171.3,55 	"/>
	<polygon class="st0" points="208.2,47.9 171.9,58 174.4,71.8 176.8,74.3 180.3,88.3 190.2,81.6 195.3,76.6 	"/>
	<polygon class="st0" points="203.8,100.4 200.9,104.5 207.6,103.9 221.9,102.5 212.7,109.3 224.1,108.3 231.1,103.2 221.3,64.7 
		204,92.5 211.3,89.7 	"/>
	<polygon class="st0" points="211.4,117.6 217.8,112.9 204.5,114.1 207.7,118.9 	"/>
	<polygon class="st0" points="208,107.8 200.8,108.5 202.9,111.7 	"/>
	<polygon class="st0" points="223.6,61.2 233.7,101.3 239.8,96.8 228.8,52.8 	"/>
	<polygon class="st0" points="244.9,149.2 253.8,150.8 240.9,111.3 233,114.1 	"/>
	<polygon class="st0" points="201.3,130.8 217,136.3 205,128.6 	"/>
	<polygon class="st0" points="223.7,117.4 208.9,126.3 223.4,135.7 233.1,142 240.1,144.4 230.2,115.1 228.1,115.9 	"/>
	<polygon class="st0" points="234,155.4 218.5,153.8 216.4,156.2 223.9,167.6 	"/>
	<polygon class="st0" points="194.3,180.3 202,193.9 223.6,168 213.5,159.4 	"/>
	<polygon class="st0" points="203.6,196.7 208.3,204.8 248.3,156.8 237.6,155.8 	"/>
	<polygon class="st0" points="188.8,152.2 189.5,141.9 187.8,143.3 	"/>
	<polygon class="st0" points="193.5,142.1 191.8,167.4 191.3,174.3 210.3,156.6 203.3,150.6 	"/>
	<polygon class="st0" points="165.3,179.3 155.8,179.3 150.3,190.3 147,194.2 183.4,203.4 180.8,179.3 	"/>
	<polygon class="st0" points="142.3,204.8 187.8,216.8 187.8,207.6 145.1,196.8 	"/>
	<polygon class="st0" points="118.7,130.5 137.3,177.2 147.8,159.3 132,131.3 131.8,131.3 	"/>
	<polygon class="st0" points="114.8,120.5 117.2,126.6 127.2,124.3 	"/>
	<polygon class="st0" points="130.5,188.8 135.4,180.5 115.4,130.3 106.7,129.7 	"/>
	<polygon class="st0" points="111.1,119.4 101.3,116.3 106.4,129 114.2,127.2 	"/>
	<polygon class="st0" points="156.4,146.3 168.2,137.3 161,133.6 	"/>
	<polygon class="st0" points="168.7,166.4 167.3,152 166.5,143.7 158.9,149.5 150.9,155.6 156.3,165.8 176.8,170.3 176.8,149.3 
		174.9,153.3 	"/>
	<polygon class="st0" points="156.6,133.9 142.3,139.3 149.7,153.4 152.7,145 	"/>
	<polygon class="st0" points="171.3,151.6 176.1,141.5 170,138.3 	"/>
	<polygon class="st0" points="165,41.3 159.8,41.3 154.3,43.8 165,61.1 	"/>
	<polygon class="st0" points="232.3,33.8 223.8,33.8 221.3,45.8 232.3,41.3 	"/>
	<polygon class="st0" points="103.8,113.3 116.8,116.3 113.8,104.3 103.8,104.3 	"/>
	<polygon class="st0" points="194.3,196.3 194.3,216.8 203.8,211.3 200.5,204.8 	"/>
	<polygon class="st0" points="141.2,121.2 145.3,119.8 130.5,113.3 130.5,123.6 131.1,123.4 	"/>
	<polygon class="st0" points="127.8,200.3 134,200.3 140.3,194.6 140.3,188.8 133.3,188.8 	"/>
	<polygon class="st0" points="107.8,92.3 101.3,92.3 101.3,100.3 110.3,100.3 	"/>
	<g>
		<polygon class="st0" points="159.5,78.8 163.8,110.3 140.3,103 159.8,121.1 132,127.3 162.5,129.3 156.4,146.3 169.8,136.1 
			171.3,151.6 177.8,137.8 187.8,167.1 190,133.8 205.9,147.6 192.7,128.3 221.3,139.1 196.3,123 226.8,112.1 199,114.6 208,107.8 
			192.7,109.3 200.5,98.1 187.8,103 201.3,76.3 176.8,100.3 		"/>
	</g>
</g>
</svg>
