<?xml version="1.0" encoding="utf-8"?>
<!-- Generated by IcoMoon.io -->
<!DOCTYPE svg PUBLIC "-//W3C//DTD SVG 1.1//EN" "http://www.w3.org/Graphics/SVG/1.1/DTD/svg11.dtd">
<svg version="1.1" xmlns="http://www.w3.org/2000/svg" xmlns:xlink="http://www.w3.org/1999/xlink" width="20" height="20" viewBox="0 0 20 20">
<path  fill="white" d="M17.528 4.866v-0.010c0.17-0.067 0.304-0.209 0.441-0.315 0.612-0.475 1.011-1.1 1.305-1.899-0.168 0.091-0.333 0.184-0.501 0.276-0.514 0.263-1.389 0.641-2.061 0.699-0.793-0.726-1.622-1.297-3.181-1.269-0.163 0.019-0.326 0.039-0.491 0.059-0.317 0.070-0.619 0.156-0.893 0.276-1.141 0.498-1.919 1.427-2.277 2.716-0.142 0.513-0.201 1.369-0.020 1.899-0.643-0.001-1.267-0.103-1.806-0.236-2.125-0.526-3.448-1.236-4.917-2.391-0.431-0.339-0.855-0.724-1.197-1.151-0.11-0.137-0.285-0.259-0.363-0.423-0.007-0.004-0.013-0.007-0.019-0.010-0.171 0.317-0.331 0.663-0.432 1.053-0.399 1.539 0.231 2.831 0.902 3.671 0.204 0.255 0.534 0.412 0.736 0.65h0.020c-0.152 0.056-0.417-0.022-0.55-0.049-0.314-0.065-0.581-0.125-0.844-0.236-0.137-0.066-0.274-0.131-0.413-0.197-0.006 1.7 0.847 2.806 1.894 3.464 0.341 0.215 0.819 0.504 1.315 0.532-0.266 0.225-1.402 0.122-1.796 0.079 0.493 1.276 1.251 2.126 2.552 2.588 0.336 0.119 0.745 0.224 1.198 0.217-0.24 0.286-0.752 0.519-1.089 0.718-0.696 0.409-1.504 0.676-2.414 0.876-0.364 0.081-0.752 0.064-1.148 0.128-0.437 0.071-0.894-0.037-1.286-0.049 0.118 0.072 0.236 0.144 0.354 0.217 0.358 0.22 0.733 0.412 1.138 0.59 0.729 0.321 1.506 0.563 2.366 0.777 1.734 0.433 4.179 0.238 5.692-0.236 4.214-1.321 6.876-4.404 7.881-8.946 0.172-0.781 0.198-1.668 0.186-2.598 0.21-0.168 0.419-0.335 0.629-0.503 0.518-0.417 1.005-1 1.364-1.574v-0.010c-0.684 0.216-1.405 0.611-2.277 0.621z"></path>
</svg>
