<?xml version="1.0" encoding="utf-8"?>
<!-- Generator: Adobe Illustrator 22.0.1, SVG Export Plug-In . SVG Version: 6.00 Build 0)  -->
<svg version="1.1" id="Layer_1" xmlns="http://www.w3.org/2000/svg" xmlns:xlink="http://www.w3.org/1999/xlink" x="0px" y="0px"
	 viewBox="0 0 339.6 254.7" style="enable-background:new 0 0 339.6 254.7;" xml:space="preserve">
<style type="text/css">
	.st0{fill:#FFFFFF;}
</style>
<g id="versability">
	<path class="st0" d="M171.5,161.4l52.2-49.7c-2.2-0.4-5.4-1-9.1-1.8L170,152.4L171.5,161.4z"/>
	<path class="st0" d="M243.8,88.9l3.3,0.6l1.5-1.4c3.1-3,7.1-4.6,11.1-4.8c-4.6-4.6-12.1-4.7-16.8-0.2l-5.2,4.9
		C241.2,88.5,243.4,88.8,243.8,88.9z"/>
	<path class="st0" d="M275.6,100l-6.2-6.5c-4.6-4.8-12.2-5-17-0.4l-99.8,95c-4.8,4.6-5,12.2-0.4,17l6.2,6.5c4.6,4.8,12.2,5,17,0.4
		l99.8-95C279.9,112.4,280.1,104.8,275.6,100z M167.2,201.7c-2.6,0-4.8-2.1-4.8-4.8s2.1-4.8,4.8-4.8s4.8,2.1,4.8,4.8
		S169.8,201.7,167.2,201.7z M260.5,112.6c-2.6,0-4.8-2.1-4.8-4.8s2.1-4.8,4.8-4.8s4.8,2.1,4.8,4.8S263.2,112.6,260.5,112.6z"/>
	<path class="st0" d="M271.5,128.7l-21.2,20.2v9.2c0,0,4.3,1,9.6-2.5c1.3,19.5-6.3,17.5-9.8,21.5s-2.3,13,5.8,10.8
		s16-11.5,15.8-15.5C271.4,169.6,271.4,144.8,271.5,128.7z"/>
	<path class="st0" d="M148.4,183.7l10.7-10.2c-6.3-4.5-19.7-14.1-22.4-16.2c-3.5-2.8-11.5-3.8-11.2,0.8c5,3.3,15,10.5,8.2,17.5
		c-6.7,7-21.2-8-25.5-10.8s-1.5-8.3,1.3-12.3c-16-4.3-29.5,6.1-30.5,7.1s59.5,43,66.2,47.5c0.5,0.4,1.1,0.7,1.6,1
		C141,200.8,141.6,190.2,148.4,183.7z M119.6,180.8c-0.5,0.8-1.6,1-2.4,0.5l-13.5-9.2c-0.8-0.5-1-1.6-0.5-2.4s1.6-1,2.4-0.5
		l13.5,9.2C120,178.9,120.2,180,119.6,180.8z"/>
	<path class="st0" d="M140.5,152.6c1.8,1.4,10.1,7.4,22.2,16l0.9,0.6l3.6-3.7l-1.4-7.1c0,0-14.7-95.5-15-98.8
		c-0.3-3.3-13.3-22-16.2-20c-2.8,2-7.8,22.7-7.8,22.7l11.5,88.9C139.1,151.6,139.8,152.1,140.5,152.6z"/>
	<path class="st0" d="M243.1,93.3c0,0-42.5-7.2-60.5-3.6c-1.3,10.8,45.3,18.1,45.3,18.1L243.1,93.3z"/>
</g>
</svg>
