<svg xmlns="http://www.w3.org/2000/svg" viewBox="0 0 240 54" width="240px" height="54px" version="1.1">
    <!-- Generator: Sketch 50.2 (55047) - http://www.bohemiancoding.com/sketch -->
    <title>Fill 8</title>
    <desc>Created with Sketch.</desc>
    <defs />
    <g fill="none" fill-rule="evenodd" stroke="none" stroke-width="1">
        <g fill="#ffffff" transform="translate(-73 -7147)">
            <g transform="translate(0 7080)">
                <path id="Fill-8" d="M 227.355 103.151 C 226.91 103.151 226.466 103.151 226.021 103.151 L 226.021 110.896 L 230.353 110.896 C 230.353 110.502 230.353 110.106 230.353 109.713 L 227.355 109.712 L 227.355 103.151 Z M 241.155 104.335 C 241.155 103.941 241.155 103.547 241.155 103.151 C 239.558 103.151 237.961 103.151 236.362 103.151 L 236.362 110.896 L 241.155 110.896 C 241.155 110.502 241.155 110.106 241.155 109.713 L 237.7 109.712 L 237.7 107.463 L 240.839 107.463 C 240.839 107.08 240.839 106.696 240.839 106.312 L 237.7 106.312 L 237.7 104.335 L 241.155 104.335 Z M 171.713 106.445 L 170.498 106.332 C 169.845 106.273 169.622 106.02 169.63 105.348 C 169.638 104.932 169.746 104.709 169.935 104.591 C 170.14 104.464 170.453 104.448 170.839 104.448 L 173.321 104.448 C 173.321 104.002 173.321 103.556 173.321 103.111 L 171.002 103.112 C 170.283 103.097 169.617 103.167 169.122 103.455 C 168.626 103.745 168.304 104.249 168.273 105.093 C 168.269 105.216 168.271 105.339 168.271 105.463 C 168.275 106.271 168.508 106.796 168.857 107.129 C 169.214 107.468 169.689 107.604 170.164 107.637 L 171.448 107.728 C 171.745 107.748 171.971 107.802 172.119 107.939 C 172.266 108.076 172.346 108.309 172.356 108.693 C 172.376 109.519 172.048 109.628 171.494 109.642 C 171.389 109.644 171.287 109.643 171.183 109.643 L 168.427 109.643 C 168.427 110.089 168.427 110.534 168.427 110.981 L 170.946 110.981 C 171.295 110.981 171.658 110.977 172.002 110.928 C 172.355 110.876 172.688 110.774 172.969 110.577 C 173.195 110.42 173.374 110.201 173.495 109.926 C 173.61 109.665 173.674 109.355 173.675 108.996 L 173.676 108.557 C 173.674 107.241 172.97 106.56 171.713 106.445 Z M 198.836 108.041 L 197.969 104.648 L 197.128 108.041 L 198.836 108.041 Z M 198.851 103.151 L 200.986 110.896 C 200.513 110.896 200.039 110.896 199.567 110.896 L 199.139 109.223 L 196.833 109.223 L 196.418 110.896 L 194.997 110.896 L 197.133 103.151 C 197.705 103.151 198.278 103.151 198.851 103.151 Z M 164.245 104.973 C 164.473 105.057 164.703 105.141 164.933 105.227 L 166.738 103.154 C 166.125 103.153 165.514 103.153 164.903 103.151 L 164.245 104.973 Z M 215.551 104.335 L 217.516 104.335 L 217.516 110.896 C 217.963 110.896 218.408 110.896 218.854 110.896 L 218.854 104.335 L 220.82 104.335 C 220.82 103.941 220.82 103.547 220.82 103.151 L 215.551 103.151 C 215.551 103.547 215.551 103.941 215.551 104.335 Z M 205.06 104.335 L 207.027 104.335 L 207.027 110.896 C 207.472 110.896 207.917 110.896 208.363 110.896 L 208.363 104.335 L 210.329 104.335 C 210.329 103.941 210.329 103.547 210.329 103.151 L 205.06 103.151 C 205.06 103.547 205.06 103.941 205.06 104.335 Z M 189.266 104.893 C 189.266 104.732 189.211 104.592 189.118 104.493 C 189.028 104.397 188.899 104.336 188.75 104.336 L 186.909 104.335 L 186.909 106.321 L 188.807 106.321 C 188.945 106.321 189.05 106.264 189.123 106.177 C 189.22 106.067 189.263 105.908 189.263 105.769 L 189.266 104.893 Z M 189.266 109.198 L 189.263 108.008 C 189.263 107.887 189.211 107.742 189.107 107.637 C 189.026 107.555 188.909 107.496 188.761 107.496 L 186.909 107.496 L 186.909 109.712 L 188.787 109.711 C 188.874 109.711 189.022 109.658 189.132 109.543 C 189.208 109.462 189.266 109.348 189.266 109.198 Z M 190.55 108.104 L 190.55 109.327 C 190.55 110.179 189.799 110.899 188.955 110.899 L 185.575 110.895 L 185.575 103.152 L 188.947 103.15 C 189.236 103.15 189.635 103.252 189.957 103.5 C 190.284 103.75 190.54 104.145 190.544 104.73 L 190.547 105.693 C 190.552 106.355 190.188 106.725 189.973 106.902 C 190.183 107.081 190.547 107.447 190.55 108.104 Z M 137.737 103.151 C 137.291 103.151 136.845 103.151 136.4 103.151 L 136.4 110.896 L 141.19 110.896 C 141.19 110.502 141.19 110.106 141.19 109.713 L 137.737 109.712 L 137.737 103.151 Z M 146.653 110.896 L 151.443 110.896 C 151.443 110.502 151.443 110.106 151.443 109.713 L 147.989 109.712 C 147.989 108.962 147.989 108.214 147.989 107.463 C 149.034 107.463 150.082 107.463 151.127 107.463 C 151.127 107.08 151.127 106.696 151.127 106.312 C 150.082 106.312 149.034 106.312 147.989 106.312 L 147.989 104.335 C 149.14 104.335 150.292 104.335 151.443 104.335 C 151.443 103.941 151.443 103.547 151.443 103.151 L 146.653 103.151 L 146.653 110.896 Z M 156.218 104.335 C 156.872 104.335 157.528 104.335 158.184 104.335 L 158.184 110.896 C 158.629 110.896 159.074 110.896 159.52 110.896 L 159.52 104.335 C 160.175 104.335 160.83 104.335 161.485 104.335 C 161.485 103.941 161.485 103.547 161.485 103.151 L 156.218 103.151 C 156.218 103.547 156.218 103.941 156.218 104.335 Z M 203.69 87.422 L 202.23 80.94 L 200.769 87.422 L 203.69 87.422 Z M 205.197 93.833 L 204.398 90.319 L 200.062 90.319 L 199.265 93.833 L 195.384 93.833 L 200.106 76.719 L 204.356 76.719 L 209.078 93.833 L 205.197 93.833 Z M 301.084 76.719 L 301.084 80.05 L 305.213 80.05 L 305.213 93.833 L 308.865 93.833 L 308.865 80.05 L 312.994 80.05 L 312.994 76.719 L 301.084 76.719 Z M 257.979 86.993 L 260.126 86.993 C 260.126 88.142 260.126 89.092 260.126 90.243 C 259.766 90.298 259.395 90.327 259.013 90.327 L 257.563 90.327 C 255.492 90.327 254.965 88.894 254.965 87.317 L 254.965 83.028 C 254.965 81.406 255.688 80.237 257.667 80.236 L 263.515 80.236 L 263.515 76.583 L 257.471 76.584 C 254.1 76.583 251.664 78.594 251.346 82.058 C 251.321 82.332 251.315 82.624 251.315 82.919 L 251.313 87.858 C 251.313 91.457 253.794 93.978 257.133 93.978 L 260.03 93.979 C 261.831 93.979 262.87 93.488 263.778 92.818 L 263.778 83.758 L 257.979 83.758 L 257.979 86.993 Z M 288.326 93.833 L 299.235 93.833 L 299.235 90.503 L 291.977 90.503 L 291.977 86.623 L 298.574 86.623 L 298.574 83.359 L 291.977 83.359 L 291.977 80.05 L 299.235 80.05 L 299.235 76.719 L 288.326 76.719 L 288.326 93.833 Z M 266.502 93.886 L 270.004 93.886 L 270.004 90.422 L 266.502 90.422 L 266.502 93.886 Z M 229.797 93.833 L 233.447 93.833 L 233.447 76.719 L 229.797 76.719 L 229.797 93.833 Z M 226.761 93.834 L 226.761 76.719 L 222.173 76.719 L 218.774 89.466 L 215.374 76.719 L 210.786 76.719 L 210.786 93.834 L 214.279 93.834 L 214.279 83.359 L 216.925 93.849 L 220.623 93.849 L 223.27 83.359 L 223.27 93.834 L 226.761 93.834 Z M 282.029 86.942 L 276.506 76.719 L 272.902 76.719 L 272.902 93.833 L 276.416 93.833 L 276.416 83.611 L 281.937 93.833 L 285.544 93.833 L 285.544 76.719 L 282.027 76.719 L 282.029 86.942 Z M 245.609 86.942 L 240.086 76.719 L 236.482 76.719 L 236.482 93.833 L 239.996 93.833 L 239.996 83.611 L 245.517 93.833 L 249.123 93.833 L 249.123 76.719 L 245.609 76.719 L 245.609 86.942 Z M 175.842 81.157 C 175.842 80.369 175.21 80.057 174.56 80.05 L 171.498 80.05 L 171.498 84.112 L 174.56 84.112 C 175.287 84.106 175.84 83.723 175.84 82.857 L 175.842 81.157 Z M 177.385 86.691 L 180.42 93.833 L 176.153 93.833 L 173.848 87.422 L 171.498 87.422 L 171.498 93.833 L 167.845 93.833 L 167.845 76.719 L 174.315 76.719 C 175.304 76.723 176.182 76.665 177.076 76.884 C 178.433 77.217 179.525 78.362 179.524 79.947 L 179.521 83.781 C 179.52 85.116 178.676 86.248 177.385 86.691 Z M 153.42 76.719 L 149.278 76.719 L 146.727 87.813 L 144.928 76.719 L 140.17 76.719 L 138.371 87.813 L 135.822 76.719 L 131.68 76.719 L 136.4 93.833 L 140.631 93.833 L 142.55 82.977 L 144.467 93.833 L 148.699 93.833 L 153.42 76.719 Z M 121.477 93.783 C 121.477 81.801 111.766 72.087 99.783 72.087 C 87.801 72.087 78.089 81.801 78.089 93.783 C 78.089 94.896 78.172 95.991 78.335 97.059 C 81.917 89.03 87.381 82.157 97.312 77.978 C 96.563 77.362 95.678 76.555 94.929 75.938 C 99.395 75.103 104.033 75.604 108.003 77.187 C 105.454 79.718 102.077 83.314 100.345 86.088 L 99.472 81.812 C 97.274 83.301 95.553 85.214 94.233 87.366 C 91.593 91.671 90.558 96.934 90.517 101.677 C 90.497 104.051 90.726 106.293 91.128 108.223 C 95.86 107.542 99.92 105.752 103.253 102.455 C 103.859 101.856 104.441 101.205 104.999 100.504 C 105.835 99.452 106.616 98.282 107.342 96.987 L 102.844 97.265 C 105.581 94.41 108.29 90.775 110.338 86.899 C 112.624 90.664 114.387 94.384 116.004 98.453 C 115.652 98.354 115.34 98.264 115.049 98.179 C 114.174 97.925 113.482 97.71 112.426 97.412 C 112.644 102.966 112.059 107.806 110.727 112.517 C 117.157 108.752 121.477 101.771 121.477 93.783 Z M 126.566 93.783 C 126.566 108.573 114.575 120.565 99.783 120.565 C 84.991 120.565 73 108.573 73 93.783 C 73 78.99 84.991 67 99.783 67 C 114.574 67 126.566 78.99 126.566 93.783 Z M 160.51 87.422 L 159.05 80.94 L 157.59 87.422 L 160.51 87.422 Z M 165.895 93.833 L 162.017 93.833 L 161.217 90.319 L 156.882 90.319 L 156.083 93.833 L 152.204 93.833 L 156.926 76.719 L 161.175 76.719 L 165.895 93.833 Z M 188.406 83.758 L 194.203 83.758 L 194.203 92.818 C 193.299 93.488 192.257 93.979 190.457 93.979 L 187.56 93.978 C 184.223 93.978 181.742 91.457 181.742 87.858 L 181.742 82.919 C 181.742 82.624 181.749 82.332 181.774 82.058 C 182.092 78.594 184.527 76.583 187.898 76.584 L 193.942 76.583 L 193.942 80.236 L 188.093 80.236 C 186.114 80.237 185.392 81.406 185.392 83.028 L 185.392 87.317 C 185.392 88.894 185.92 90.327 187.99 90.327 L 189.442 90.327 C 189.822 90.327 190.193 90.298 190.554 90.243 C 190.554 89.092 190.554 88.142 190.554 86.993 L 188.406 86.993 L 188.406 83.758 Z" />
            </g>
        </g>
    </g>
</svg>