<?xml version="1.0" encoding="utf-8"?>
<!-- Generator: Adobe Illustrator 22.0.1, SVG Export Plug-In . SVG Version: 6.00 Build 0)  -->
<svg version="1.1" id="Layer_1" xmlns="http://www.w3.org/2000/svg" xmlns:xlink="http://www.w3.org/1999/xlink" x="0px" y="0px"
	 viewBox="0 0 447 447" style="enable-background:new 0 0 447 447;" xml:space="preserve">
<style type="text/css">
	.st0{fill:#FFFFFF;}
</style>
<path class="st0" d="M209.2,83.8c59.3-9.7,119.8-18.2,179-26.6v2.4v154.8c-59.3,0-119.8,1.2-179,1.2
	C209.2,172.1,209.2,127.3,209.2,83.8z"/>
<path class="st0" d="M58,104.3c44.8-7.2,89.5-13.3,135.5-18.2c0,43.5,0,85.9,0,129.4c-46,0-90.7,1.2-135.5,1.2V104.3z"/>
<path class="st0" d="M58,230.1c44.8,0,89.5,1.2,135.5,0c0,43.5,0,87.1,0,130.6c-46-6-90.7-12-135.5-18.1V230.1z"/>
<path class="st0" d="M209.2,231.4c59.3,0,119.8,0,179,0v150v7.2c-59.3-9.7-119.8-17-179-25.4C209.2,319.6,209.2,276.1,209.2,231.4z"
	/>
</svg>
