<svg xmlns="http://www.w3.org/2000/svg" viewBox="0 0 894.98 468.02"><defs><style>.a{fill:#bcbcbc;}</style></defs><title>world map_vector</title><path class="a" d="M229.6,467.4c-1.1-1.1.4-4.3,2.3-4.7a3,3,0,0,1,3.6,3.8C235,467.9,230.8,468.6,229.6,467.4Zm-6.3-8.9a5.56,5.56,0,0,0-3-3.5c-2.1-.8-2.3-1.5-2.2-7.2a59.86,59.86,0,0,0-.7-10.9c-.6-3.5-.4-5.4.8-7.7,2.1-4,2.1-10.5,0-12.2s-1.6-6.4.8-10.5a12.16,12.16,0,0,0,1.8-4.5,14.14,14.14,0,0,1,1.5-4.4c1.5-2.9,4-11,5.4-17.7.9-4.1.6-16.8-.6-25.9-.8-6.1-1-6.6-5.3-9.6-5.5-3.8-13-14.2-13-17.9,0-.6-1.7-2.5-3.8-4.2-3.4-2.8-3.7-3.6-3.7-7.8.1-2.7.8-5.3,1.7-6.4a14.22,14.22,0,0,0,2.3-5.9,9.1,9.1,0,0,1,3.4-6.2c3-2.2,3.1-4.8.4-10.9-1.4-3.2-1.4-3.2-4.9-1.7s-3.6,1.4-6.4-1.5c-1.6-1.6-3.2-2.7-3.5-2.4s-.6-.1-.6-1-2-2.8-4.5-4.4-5-3.8-5.6-5.1c-1.6-2.9-8.8-6.3-13.2-6.1-3.7.1-20.7-7.5-20.7-9.2a1.2,1.2,0,0,0-1.2-1c-1.4,0-6.1-6.4-7.2-9.7a27.92,27.92,0,0,0-4.1-6.3,36.37,36.37,0,0,1-5-7.8c-1.9-4.2-5.9-7.7-8-6.9-1.2.5-1.2,1.1,0,4.5,1.3,3.8,4.3,9,5.6,10.1,1.1.9,2.1,5,1.2,5-2.1,0-9.2-10.5-10.8-15.8-.9-3.1-2.8-6.9-4.2-8.4s-2.2-2.8-1.8-2.8c.8,0-1.9-2.7-7.1-7.1-2.6-2.3-5.8-6.3-6.3-8-.8-3.1-1.9-17.5-1.4-19.9a14.68,14.68,0,0,0-.5-6.1,9.19,9.19,0,0,1,.5-6.9c2-4.8,1.2-6.8-5.1-12.2-5.5-4.7-6.8-6.8-10.1-15.9-.9-2.6-2.3-5.2-3.1-5.9a3.35,3.35,0,0,1-1.4-2c0-.5-1.2-2.7-2.6-4.9-2-3-3.3-4-5.4-4a10.23,10.23,0,0,1-5.3-2,9.21,9.21,0,0,0-4.5-2c-2.7,0-7.8-1.7-13.9-4.7-2.9-1.4-5.6-2.3-6.1-2s-.9,2-1,3.7c-.1,2.9-1.5,4.8-3.5,4.9-1.2,0-.9-2.4.8-6.5,1.9-4.6.6-6.7-2.4-3.6-3.2,3.2-5,7.4-4.4,10.4.4,2,.1,2.9-1.3,3.4a48.24,48.24,0,0,0-7.2,5c-2.9,2.4-5.9,4.3-6.7,4.3a2,2,0,0,0-1.8,1.2c-.2.7-.8-.5-1.2-2.6a12.58,12.58,0,0,0-2.2-5.3,6,6,0,0,1-1.4-3.7c0-5.5-1.3-8.7-4.1-10.1-1.6-.8-2.9-2.3-2.9-3.4a2.94,2.94,0,0,0-1-2.5c-1.1-.7,2.4-4.5,4.2-4.5a26,26,0,0,0,5.3-1.4c3.5-1.2,4-1.8,4.3-4.8s-.1-3.6-3-5.2a11.19,11.19,0,0,0-5.8-1.4c-3.1.7-7-2.9-6.6-6,.3-2,.8-2.3,3.2-2.1a15.17,15.17,0,0,1,5.4,1.9c2.3,1.5,2.6,1.5,3.7-.1a4.29,4.29,0,0,1,2.4-1.7c.6,0,1.1-1.1,1.1-2.5,0-2-.5-2.5-2.5-2.5-1.4,0-2.5-.4-2.5-1,0-1.6-5-6.1-6.1-5.5-.5.3-.9,0-.9-.7a17.47,17.47,0,0,0-.6-3.4c-.5-1.8.2-2.5,4.2-4.5,2.6-1.3,5.4-3.5,6.3-5s3.5-3.6,5.8-4.9c3.8-2,4.7-2.1,6.8-1a5.69,5.69,0,0,0,4.1.6c.9-.4,2.7,0,4,.8A19.71,19.71,0,0,0,41,53.4a42.41,42.41,0,0,1,7.8,1.9,20.09,20.09,0,0,0,7.4.9,10.48,10.48,0,0,1,6.5,1.4,15,15,0,0,0,4.1,2,9.89,9.89,0,0,1,3.7,2.8c2.9,3.4,5.5,3.2,8.5-.5,2.8-3.3,7.8-5.2,11.5-4.3,2.1.5,2.3.3,1.9-2.1-.3-1.8,0-2.9,1.1-3.3,1.8-.7,3.1,1,4,5,.7,3.4,1.8,4.1,4,2.9,1.6-.9,6.2.4,10.8,3a21.06,21.06,0,0,0,5.5,1.7c2.7.4,3.6,1.1,3.8,2.9a4.22,4.22,0,0,0,3,3.2,35.93,35.93,0,0,1,5.3,2.4c4,2.3,5.5,1.9,9-2.5,3-3.7,3.5-4,6.8-3.4a16.43,16.43,0,0,1,4.8,1.6,4.06,4.06,0,0,0,3.1.4c1.2-.4,3.3.4,5.6,1.9,3.6,2.4,3.7,2.4,4.9.6.9-1.4,1.9-1.8,3.8-1.4,3.4.7,6.9-3.5,6.9-8.2,0-2.6-.7-3.9-3.5-6-3.6-2.8-4.7-6.8-2.4-9.1,1.9-1.9,6.6,1.6,6.7,5,0,1.6.5,3.2,1,3.6s1.5,2.3,2.1,4.3c.8,2.5,1.9,3.8,3.3,4s2.5,1.5,3.2,3.7c1.8,5.3,4.2,6,7.7,2.2,1.6-1.7,2.9-4,2.9-4.9,0-2.4.8-3,3.2-2.4,1.6.4,1.9,1.1,1.5,3.4-.3,1.6-.1,3.1.4,3.4,1,.6.8,4-.3,5.1a5.25,5.25,0,0,0-.7,3c0,1.9-.5,2.3-2.8,2.3a19.48,19.48,0,0,0-6.8,2c-2.2,1.1-4.9,1.8-6,1.5-2.6-.6-5.4,1-4,2.3a7.09,7.09,0,0,0,2.9,1.3,3.14,3.14,0,0,1,2.3,1.5c.4,1.3-5,4.3-7.7,4.3-4.9,0-9.4,7.4-10.5,17.2-.3,3.2-1.1,6-1.6,6.3-1.2.7-1.2,3.5,0,5.4.8,1.2,1.3,1.3,3.4.1,3.8-2,5.6-.8,5.6,3.7s.8,5.6,2.7,4c2.1-1.8,6,.5,7.7,4.5,1.2,2.9,2,3.5,5.9,4,6.9.9,10,2.7,9.2,5.1-.3,1.1-.8,2.7-1.1,3.6s1.1,2.7,3.3,4.3l3.7,2.8,2.3-2.6c1.6-1.9,2.3-3.9,2.3-7.1a42.86,42.86,0,0,1,.1-4.7,25.76,25.76,0,0,0,.3-13.5c-1.1-3.6-1.2-6-.3-11.2,1.8-11.2,1.8-11.2,3.7-10.3a45.12,45.12,0,0,0,7.5,2.1c3.5.8,5.8,1.8,5.8,2.6a1.91,1.91,0,0,0,1.1,1.7c.6.2,1.3,2.2,1.6,4.6.5,3.7,1.1,4.5,4.9,6.8,4.8,2.8,6.4,2.6,6.4-1,0-3.3,1.7-4,2.4-1.1.3,1.3,2.4,5.3,4.6,9a72,72,0,0,1,4,7.2c0,.9,2.3,2.8,5.5,4.5,2.6,1.4,3,2.1,2.9,6-.1,6.3-4.2,10.9-9.6,10.9a14,14,0,0,1-5.7-1.1c-3.8-2.4-12.1,2.3-12.1,6.8,0,1.5.4,2.2,1.1,1.8a5.11,5.11,0,0,1,3.3-.1c1.6.4,2.2,1.3,2.2,3.2,0,2.2.6,2.9,3.8,4,5.7,2,6.2,2.9,3.7,6.4-1.4,2-3,3.1-4.6,3.1-2.8,0-3-.7-.9-3.7,1.3-1.9,1.3-2.2-.1-2.7-2.7-1-10.2,4.1-18.1,12.4-2.5,2.7-5.1,4.7-6.7,5.3-1,.4-1.7,1.8-1.7,3.4-.2,7.9-.7,9.2-5.4,13.5-6.5,5.9-7.8,8.8-7.1,15.2a18.21,18.21,0,0,1-.7,8.4c-1.3,3.2-1.4,3.2-3.6,1.4-2-1.6-2.1-2.1-1-4.6.8-1.7.9-3.1.3-3.5a11,11,0,0,1-2-2.7c-1.6-2.9-7.9-3.3-10.8-.7-1.8,1.6-3.3,1.9-9.3,1.7-8.4-.4-12.7,1.4-15.5,6.3-3.1,5.6-1,18.8,3.2,19.9,1.1.3,2,.9,2,1.4,0,1,5.7,2.7,8.5,2.5,1.1-.1,3.9-1.4,6.2-2.9s4.7-2.5,5.2-2.1c1.5,1,1.3,4.1-.4,5.5-3.6,3-1,7,4.6,7,5.3,0,9.3,3.9,8.6,8.4a11.66,11.66,0,0,1-1.1,4.3c-1.1,1.7,3,4.5,5.4,3.7a11.42,11.42,0,0,1,5.9.5c3.1,1,4.2,1,6.8-.4a15.4,15.4,0,0,0,4.9-4.6c1-1.7,2.1-3,2.6-3,1.1,0,.4,3.5-1.1,5.3-.9,1-.9,1.7-.2,2.2,1.4.9,5.3-.4,6.6-2.3.9-1.2,2.1-1.3,6-.7a57,57,0,0,0,8.9.6c4.6-.2,8.6,2.3,11,6.9,1.1,2.2,2.8,3.2,7.2,4.5,6.7,1.9,10.8,5.3,13.4,11.1,1.3,2.8,2.8,4.5,4.7,5.1a21.17,21.17,0,0,1,6.4,4.2c3.4,3,3.8,3.1,7.6,2,5.6-1.7,10.4-.5,13.5,3.3,1.4,1.7,2.6,3.6,2.6,4.2s1,2,2.2,3.3c2.1,2.2,2.1,2.5.7,7.1-1.3,4-1.9,4.7-3.8,4.5a2.22,2.22,0,0,0-2.8,1.8c-.3,1.1-1,2-1.6,2s-.8.3-.4.6-.1,2-1,3.8a33.88,33.88,0,0,0-2.4,9.1c-.8,6.6-3.9,10.5-8.4,10.5a5.14,5.14,0,0,0-4.1,2.6c-1.1,1.7-2.3,2.4-3.5,2.1-3.7-1-4.7,1-7.3,15-.6,3.1-2.4,6.3-3.6,6.3-.6,0-2,2.2-3.1,5s-2.7,5-3.4,5-2.5-1.2-3.9-2.8c-2.2-2.3-2.7-2.5-3.6-1.2a9.26,9.26,0,0,0-.5,5,13.36,13.36,0,0,1-1.2,7c-1.4,2.8-2.3,3.5-4.7,3.5-3.2,0-4.7,1-5.7,3.6-.3.9-2,1.9-3.8,2.2-3.2.6-3.2.7-2.5,5.2.8,5.3-.1,6.9-5.2,9-3.1,1.3-3.3,1.7-2.7,4.7.4,1.8.9,4.5,1.2,6,.4,1.8-.4,4.5-2.2,8a56.55,56.55,0,0,0-3.9,9.3c-1.4,5-4.2,6.1-5.2,2.2ZM177.4,186c.2,0,1.1-2.2,2-5s2-5,2.4-5c1.5,0,3.1,2.5,3.1,4.7,0,1.3.5,2.3,1.1,2.3,2,0,4.9-2.1,4.9-3.5,0-.8.9-1.7,2-2,3.6-1.1,2.1-3.3-4-6.1-4.3-1.9-6.2-3.4-6.8-5.3-.7-2.1-1.5-2.6-4.3-2.7a33.57,33.57,0,0,1-6-.8c-3.4-1-8.1,2.6-6.1,4.6.7.7,3,1.3,5,1.3,3,0,3.8.4,4,2.2a11.07,11.07,0,0,1-1.2,5.2,14,14,0,0,0-1.6,5.1c0,3.3,1.9,6.2,3.7,5.6A11.8,11.8,0,0,1,177.4,186Zm-22-34.9c-.4-2.5-.8-5.8-.9-7.3-.3-4.1-2-5.3-5.3-3.6-3.5,1.7-4.2,4.4-1.4,5.1,2,.5,2.6,2.6,2.2,7.1-.1,1.1.8,3,2,4.3,2,2.1,2.3,2.2,3.1.7.6-.9.7-3.7.3-6.3Zm-31-32.2c7.4-6.1,7.9-7.3,3.7-8.3a9.28,9.28,0,0,1-4.4-2.8c-2.6-3.3-4.2-1.4-3.5,4.1.6,5,.1,6.4-2.6,7.4-2.3.8-2.3,3.7,0,3.7,1,0,4.1-1.8,6.8-4.1Zm-16.2-25a9.07,9.07,0,0,0,2.9-2.2c.5-.8,1-.6,1.7.4,1.1,1.7,2.5.7,4.4-3.2a5.31,5.31,0,0,1,3.4-2.7c1.4-.2,2.2-1,2.2-2.1,0-2.3-1.7-3.7-6-4.8-2.8-.7-4.3-.5-8,1.5-8.1,4.3-11.1,8.6-5.7,8.2,3.7-.3,3.9,0,2.3,2.4-2.1,3.4-.9,4.4,2.8,2.5ZM781.7,442.6c-1.7-.9-2.3-1.9-2-3.6a13.76,13.76,0,0,1,.5-2.6c.3-.3,3.3-.6,5.5-.5,2,.1,2.3.6,2,3.8C787.3,443.7,785.6,444.6,781.7,442.6Zm-1.8-18.2c-2.6-.9-3.9-.9-4.9-.1-1.4,1.1-2.8-.1-7.5-6.7a9.45,9.45,0,0,0-4.3-3.3c-1.4-.4-2.3-1.3-2.2-2.2.6-6.4-1.6-8-6.1-4.1-3,2.6-3.9,2.5-4.9-.3-1.5-3.9-4-5.2-10-5.1a26.92,26.92,0,0,0-11.8,2.9c-5.2,2.3-7.1,2.7-11.5,2.3a32.38,32.38,0,0,0-9.5.6c-2.3.6-4.5.8-4.9.4s-.8-2.5-1-4.8-.8-4.7-1.4-5.5a13.29,13.29,0,0,1-1.7-4.7,12.23,12.23,0,0,0-2.3-5.3c-1.4-1.5-1.6-2.7-.9-4.9.5-1.8.4-3.4-.2-4.2a3.34,3.34,0,0,1-.3-3.1,6.17,6.17,0,0,0,.6-2.5c-.2-1.2,5.4-3.7,9.5-4.4,9.4-1.4,10.7-2,12.3-5,.9-1.6,2.4-3.1,3.4-3.3s3-1.7,4.6-3.5c2.3-2.6,3-2.9,4.3-1.9,3.2,2.7,5.5,2.1,10.4-2.4,2.6-2.4,5.6-4.4,6.5-4.4s1.8-.4,1.8-.9c0-1,1.2-.9,4.8.3,2,.7,2.3,1.3,2,5.4-.3,4.6-.3,4.7,4.2,6.8,7.6,3.5,9.9,3.8,10.9,1.2.5-1.3.5-2.5,0-2.8-1.1-.7.4-6.2,1.8-6.7.6-.2,1.4.5,1.8,1.7a13,13,0,0,0,3.8,4.3c4.1,2.9,4.7,3.7,4.7,7.4,0,2.3,1.1,4,4.4,7.2,2.4,2.3,4.6,3.9,4.9,3.6.6-.6,6.7,6.8,6.7,8.3a1.71,1.71,0,0,0,1.2,1.6c1.7.6,2.6,8.6,1.5,13.3a26.39,26.39,0,0,1-3.3,7.5,13.13,13.13,0,0,0-2.3,5.8c0,2.3-6.9,10.6-9.9,12.1a10.22,10.22,0,0,1-5.2-.6Zm-328.1-24c-1.9-2.3-4.9-10.7-6.6-18.4a6.78,6.78,0,0,0-1.8-3.5c-2.1-1.7-4.2-6.8-4.8-11.3-.3-2.4-1.2-5.1-2.1-6-2.7-3-3-10.9-.9-18.7,1.7-6.1,1.8-7.5.7-10.5-.7-1.9-2.5-6.6-3.9-10.4s-3.4-7.5-4.2-8.1c-1.3-1-1.5-2.3-1-7.4l.6-6.2-2.9-.6a10.91,10.91,0,0,1-4.9-2.5c-1.1-1-2.4-1.9-3-1.9s-1.2-.7-1.5-1.5c-.8-2-5.6-1.9-8.4.1-2.4,1.7-6.9,1.4-12.9-.8-2.4-.9-3.8-.9-5.8,0-5,2.3-8.2,1.5-13-3.3-2.4-2.4-4.7-5.5-5-6.8s-2.1-3.3-4-4.5c-5-3.3-6.4-6.7-5.4-12.8a73.72,73.72,0,0,0,.9-10.8c.1-6.7,1.8-10.6,7.1-16.2a24.19,24.19,0,0,0,4.5-6.2c.4-1.2,1.1-2.2,1.6-2.2,1.9,0,7.2-6.8,9.3-12,2.4-5.9,2.1-5.8,10.5-4.4a10,10,0,0,0,8.1-1.4c3.1-1.7,5.8-2.2,14.6-2.4,10.2-.3,10.8-.2,11.6,1.9a6.3,6.3,0,0,1-.6,4.9c-2.2,4.2-1.9,4.5,4.1,4.5,3,0,6.3.4,7.2.9s3.9,1.5,6.5,2.4c4.4,1.4,4.8,1.4,6.4-.4,1.9-2.1,3.5-2.3,6.1-.9a38,38,0,0,0,13.3,4.5,71.49,71.49,0,0,1,7.2,1.2,9.48,9.48,0,0,0,5.5-.5c4.6-1.9,8.9-12.2,6.5-15.6-1.3-1.8-8.5-3.5-13.7-3.2-4.9.2-5,.2-5.3-2.7a10.36,10.36,0,0,0-1.3-4.1c-1.8-2.2.2-4,7.6-6.8,7-2.7,7.8-2.8,12.7-1.7,9.5,2.1,10.7,2.3,13.2,1.7,3.9-1,3.1-4-2.5-9.7-2.8-2.8-5-5.9-5-6.9,0-1.8-1.9-3-4.6-3-.9,0-1.4,1.1-1.4,3.1,0,2.6-.3,3-2.2,2.8a2.8,2.8,0,0,1-2.6-2.6,3.89,3.89,0,0,0-1.8-2.9c-2.2-.8-6.1,2.2-6.9,5.3A8.55,8.55,0,0,1,475,186a5.17,5.17,0,0,0-1.9,4.3,7.39,7.39,0,0,1-7.1,7c-2.8,0-3.9,1.5-3.9,5.5,0,3.5-1.5,3.8-4.9.9a16,16,0,0,1-4.6-7.9c-1.4-4.8-2-5.6-6.1-7.5a18.59,18.59,0,0,1-6.1-4.6c-2-3-5.3-3.2-5.3-.3,0,3.3,3.6,7.5,8.5,9.8s5.4,3.2,3,5.1a3.87,3.87,0,0,0-1.4,1.9c.5,3.8-2.6,4.4-3.6.6a14.41,14.41,0,0,0-2.9-5.2c-2.6-3.1-11.9-12.3-12.4-12.3a38.83,38.83,0,0,0-4.1,2,18.29,18.29,0,0,1-6.9,2c-3.2,0-6.3,2.8-6.3,5.8,0,1.3-2.4,4.3-3.5,4.2H404c-.5,0-1.9,1.9-3.1,4.2-2.3,4.4-3.7,6-5.1,5.1-.4-.3-2.1.3-3.6,1.2-2.6,1.5-3.1,1.6-6,0-3.8-2-5.1-4.2-5-8.7a36.17,36.17,0,0,0-.4-6,10.15,10.15,0,0,1,.4-4.9c.8-2.1,1.3-2.3,5.1-1.6,11.1,1.8,10.5,2,11.3-3.1.8-5.3-1.1-9.6-4.5-10.1-1.1-.2-2.1-.9-2.1-1.6,0-2,3.5-5.6,5.5-5.6,3.7,0,8.6-3.4,18.4-12.9,9.6-9.3,10.2-10,10.2-13.9,0-5.8,2.6-4.5,3.4,1.7l.6,4.8,6.6.6c5.1.5,7.1.3,9-1a7.29,7.29,0,0,1,5.4-1c3.4.7,4.1,0,5.6-5.8,1-3.9,1.2-4,5.5-4s4.4-.1,4.8-3.5c.4-4.5,1.5-5.7,6.3-7.2,5.7-1.7,6.9-3.6,3.8-5.9-3.4-2.6-6.8-3-11.2-1.5-4.6,1.6-5,1.1-5.4-6.6-.3-4.8.2-6.7,2.7-11.4,3.6-6.8,4.3-11.7,1.7-12.2s-7.6,5.6-6.3,7.8c.6,1-7,9-8.5,9-1,0-3,6-2.7,8a12.22,12.22,0,0,0,2,4c1.9,2.7,2.3,7.5.8,8.5-.5.3-2.4,3.3-4.2,6.6s-3.8,6-4.4,6c-1.7,0-4.4-3.4-4.4-5.4,0-2.4-3.2-7.6-4.7-7.6a2.84,2.84,0,0,0-2,1.2,19.39,19.39,0,0,1-2.5,2.6c-1.5,1.2-2.1.9-4.8-1.8-1.7-1.7-3-4.1-3-5.4a5,5,0,0,0-1.2-3.4c-.6-.6-1.1-3.5-1-6.4.2-5.6.8-6.4,7.4-9.9,3.7-2,7.7-7.2,9.2-12a8.09,8.09,0,0,1,2.6-3.8,4.74,4.74,0,0,0,1.9-3.2c0-1,2.2-4.5,4.8-7.7a60,60,0,0,0,6.5-9.5c1.9-4.1,4.9-6.3,7.4-5.3.9.3,3.9-.7,6.7-2.2a19.83,19.83,0,0,1,10.9-2.9c6.5-.1,7.4,1.3,3.6,5.4l-2.2,2.3h3.6a6.27,6.27,0,0,1,5.6,2.5,5.89,5.89,0,0,0,5.2,2.5,9.47,9.47,0,0,1,5.2,1.7,52.8,52.8,0,0,0,5.4,3.8,10.13,10.13,0,0,1,4.8,5.8c1.2,3.4,1.1,3.9-.7,5.2a4.41,4.41,0,0,1-3.5.8,2,2,0,0,0-2.3.7c-1.1,1.8-6.5-.7-8.1-3.7-1-1.9-4-3.3-7.4-3.4-.5,0-1.3,1-1.6,2.3-.4,1.8.2,2.8,2.5,4.6,3.4,2.5,4.4,4.4,4.5,8.3.1,2.8,3.6,6.6,6.1,6.5.8,0,1.6-1.1,1.8-2.4a4.49,4.49,0,0,1,3-3.3,19.09,19.09,0,0,0,5.2-3.8c2.3-2.6,5.3-3.5,12.3-4,1.5-.1.7-2.8-1.2-4.6-2.4-2.2-2.6-4.8-.4-6.9,2.3-2.3,3.4-1.9,3.4,1.2,0,5.7,5.4,7.2,8.2,2.3,2.3-4,14.8-10,14.8-7.1,0,2.2,4.2,2.2,6.5,0,1.7-1.6,3.1-2,4.8-1.6,1.9.5,3.1-.1,5.6-2.6,3-3.1,3.3-3.2,7.3-2.1,2.3.6,4.7.9,5.4.6,1.6-.6,2.4-3.7,2.4-9.2a18,18,0,0,1,1-6.2c.7-1.3.7-2.1-.1-2.5-.6-.4.2-1.4,2-2.5s3.1-2.3,3.1-2.9c0-1.6,5.6-1.2,7,.5,1,1.2,1,1.8.1,2.7-1.7,1.7-1.4,9.8.4,13.3,2.4,4.5,2.5,12.7.4,18.2-1.7,4.3-2.1,4.7-4.7,4.5-4.5-.5-6,2-3.9,6.4,1.3,2.7,2.1,3.4,3.4,2.8a39.73,39.73,0,0,1,4.7-1.4c3.7-.8,9.5-8.9,9.5-13.2,0-3.5,1.9-7.9,3.5-7.9.7,0,1.2,2.4,1.3,6.7.1,3.7.6,7.1,1.1,7.6,1.3,1.3,8.1-2,8.1-3.9a9.84,9.84,0,0,0-1.5-3.8,17.31,17.31,0,0,1-1.9-6.4c-.5-5.3-1.2-6.3-4.1-6-3.1.3-7.3-2.1-8.1-4.4-1.7-5.3-2.1-14.9-.7-17.3.9-1.6,1.1-1.5,2.4,1a9.76,9.76,0,0,0,2.9,3.5c8.8,3.9,9.5,4.6,9.5,9.7,0,6.4.8,7.6,4,6.1,1.9-.9,2.5-1.9,2.5-4.7a26.55,26.55,0,0,1,.6-5.6c.4-1.4-.6-3.3-3.4-6.5-3.1-3.5-3.8-4.8-3-6.2a4,4,0,0,1,1.7-1.9c4.8-.5,7.6-2.3,7.7-5a33.51,33.51,0,0,1,2.5-4.3c1.6-2.3,3-3.5,4-3.1.8.3,1.2.3.9-.1s1.3-2.7,3.5-5.3c8.6-9.6,7.9-9.2,14.3-8.7,5.1.4,6.1.9,8.6,3.9,2,2.4,3.3,3.2,4.8,2.8a5.59,5.59,0,0,0,4-7.1,53.62,53.62,0,0,1-1.4-5.4c-1.1-2.8-1-2.8,4.4-2.8,5.1,0,5.5.2,6.2,2.6.6,2.2,1,2.5,3.3,1.9,4.9-1.3,9.3-.9,10.3,1a16.26,16.26,0,0,0,3,3.7c1.8,1.8,1.8,2.1.4,4.4a9.49,9.49,0,0,0-1.6,4.4c0,2.3-1.4,3.7-6.9,7.1-2.2,1.3-4.1,3-4.1,3.7a5.41,5.41,0,0,1-1.4,2.7c-1.2,1.2-1.2,1.8-.2,3.2,1.2,1.6,1.5,1.6,5.2-.7a31.73,31.73,0,0,0,5.3-4.1c1.2-1.5,1.7-1.5,5-.1A16.11,16.11,0,0,1,694,32a44.51,44.51,0,0,0,3.8,3.4c2.5,2.1,4,2.6,6.5,2.2,1.8-.3,6,.2,9.4,1,6,1.4,6.3,1.4,9.7-.9,3.8-2.6,5.6-3,5.6-1.4,0,.6.6,1,1.4,1,2.3,0,4.5,4.4,4.8,9.6l.3,4.9,5.6-.3a37.91,37.91,0,0,1,11.1,1.3c5.1,1.5,9.4,1.3,8.4-.4-.2-.4.2-1.9.9-3.4a23.26,23.26,0,0,0,1.7-4.8,5.09,5.09,0,0,1,2-3.2c1.4-.9,2.3-.5,4.7,1.8,3,2.8,9.6,4.3,10.7,2.4.8-1.3,6.4.1,8.6,2.2a9.82,9.82,0,0,1,2.3,3.9c.6,3.2,1.2,3.8,4.5,5,2.3.8,3.7.6,6.7-.9,5.9-3,8.7-2.3,9.5,2.6.4,2.5,4.2,4.6,9.2,5.1a21.62,21.62,0,0,1,7.3,2.4,15.33,15.33,0,0,0,4.7,2c.7,0,2.8,1.1,4.6,2.5,4.3,3.2,9,3.4,9,.5,0-1.1,1.1-3.2,2.4-4.7l2.4-2.6,5.2,2.7c2.8,1.5,5.9,2.7,6.9,2.7a6.17,6.17,0,0,1,3.7,2.1c1.9,2.1,7.4,5.4,7.4,4.5,0-.3,1.3,0,2.9.5,2.2.8,3,1.8,3.5,4.5a12.49,12.49,0,0,0,1.7,4.8c1.1,1.4,5,.9,5-.6s3.7-1,5.4.7c2.3,2.3,1.9,4.6-1.4,8.2L889,96l-7.5-4c-4.1-2.2-8.2-4-9-4s-2.2,1.3-3,2.9-2.2,3.2-3.1,3.5c-1.4.5-1.6,1.8-1.2,7.1l.4,6.5-4.8,1.7c-2.6.9-4.8,2-4.8,2.4s-1.1,1-2.4,1.3a6.87,6.87,0,0,0-3.8,3.4c-1.2,2.4-1.9,2.7-6,2.7s-5.1.5-7.7,3.4-3.4,3.3-6.7,2.8c-4.8-.8-7.5.9-6.9,4.3,2,11.8.6,17.6-4.9,20.5a12.29,12.29,0,0,0-4.7,4.9c-1.7,3.6-4.1,4.1-4.7,1.1-.9-4.7-.5-11.6.8-13.2.9-1.1,1-1.5.1-1-.7.4-1.2.3-1.2-.3,0-1.2,2.1-3.8,6.2-7.8,1.5-1.5,2.8-3.3,2.8-4.2s1.5-3.1,3.4-5,3.6-4.4,3.8-5.5c.3-1.7-.2-2-2.7-1.7a12.09,12.09,0,0,1-5.2-.9c-1.8-.9-2.7-.8-5,.9a25.65,25.65,0,0,0-7.8,8.5c-1.2,2.5-5.2,3.2-6.3,1.2-1.4-2.5-5.5-3.3-8.4-1.6-2.3,1.4-3.2,1.4-6.8.2-3-1-4.6-1.1-6.3-.3a24.59,24.59,0,0,1-4.8,1.6c-3.5.8-13,13.4-14,18.6-.8,4.2,0,5.5,3.4,6.1,1.2.2,2.4,2,3.4,5.1,1.3,4.1,1.3,5.7.2,11.9-.7,3.9-1.9,7.6-2.5,8.3a19.31,19.31,0,0,0-2.7,4.1c-2,3.7-9.6,11.5-11.3,11.5a22.69,22.69,0,0,0-5.3,1.6c-3.4,1.4-4.5,2.6-7.2,8.2-2.8,5.9-3,6.9-1.9,9.9s1,3.6-.8,5.5l-2,2.2-.6-2.6c-.4-1.4-.4-3.1,0-3.6.7-1.2-1.7-4-3.4-4-1.1,0-1.4-.9-1.3-4.3,0-1.5-.5-1.7-2.6-1.3-6.3,1.3-6.6,1.2-6.9-1.1-.2-1.3-1-2.2-2.1-2.2-1.9,0-8.1,5.9-8.1,7.8,0,1.6,3.3,3.2,6.4,3.2,3.8,0,4.1,1.7.7,5.1-2.9,2.9-3,3.4-2.6,9.1.4,4.3,1.1,6.5,2.4,7.7,1.9,1.6,1.9,1.8.2,5.6-2.7,6.1-10.5,14.1-14.3,14.9a41.34,41.34,0,0,0-7.2,2.5c-2.1,1-4.4,1.6-5,1.3-1.1-.7-7.1-.5-9.8.4-2.9.9-2,10.8,1.2,13.4,1.7,1.4,4.1,6.2,4.3,8.8.3,3.7-2.5,8-5.7,8.8-2.1.5-3.4-.2-7.5-4.2-2.7-2.7-5-5.5-5-6.2s-1-1.2-2.7-1c-3,.3-5.8,4.5-4.3,6.3a23.53,23.53,0,0,1,2.1,5.3,19.51,19.51,0,0,0,3.5,6.6c3.3,3.6,6.8,9.6,6,10.4-.4.4-2-.9-3.6-2.8s-3.7-4.4-4.8-5.5c-3.6-3.9-4.4-6.6-5.8-20.5-.8-7.8-2.7-11.4-5.5-9.9-2,1.1-3.9.5-3.9-1.2,0-.6-1.1-2.3-2.4-3.9a19.71,19.71,0,0,1-2.8-4.1c-.2-.7-3.3-1.6-6.8-2-6.3-.8-6.5-.7-9.3,2.2a45.19,45.19,0,0,1-6.7,5.4c-3.9,2.4-6.1,5.4-6.7,8.8a13.8,13.8,0,0,1-1.8,4,8.33,8.33,0,0,0-1.5,3.5c0,2.1-6.8,8.8-7.8,7.7-.5-.5-1.5-3.5-2.2-6.5a32.5,32.5,0,0,0-3.7-9,13.88,13.88,0,0,1-2.4-6.2c0-1.5-.4-2.8-1-2.8s-1.3-1.1-1.6-2.5a4.46,4.46,0,0,0-3-3.1c-1.3-.3-2.4-1.3-2.4-2.3,0-1.9-7.6-8.6-11.2-10a40.06,40.06,0,0,0-7.7-1.5c-7.4-.9-9.9-1.6-14.3-3.7a18.38,18.38,0,0,0-6.3-1.9c-4.1,0-6.5-1.8-8.5-6.5-1.9-4.5-3-5.1-9.5-5.7-3.5-.3-3.6,1.1-.4,7.7a21,21,0,0,1,1.9,5.8c0,1.3.8,1.8,3,1.8,2.5,0,3,.4,3,2.4,0,4.9,5.9,7.5,8,3.6,1.2-2.3,5-2.7,5-.6,0,.8,1.6,2.4,3.5,3.6s3.5,2.7,3.5,3.3c0,2.1-7,8.7-11.3,10.8-2.3,1.1-4.9,2.4-5.7,2.8a53.12,53.12,0,0,1-7,2,65.79,65.79,0,0,0-7.6,2.2,10,10,0,0,1-5,.7c-2.4-.3-3-.9-3.6-3.7a18.86,18.86,0,0,0-4.2-7,31.88,31.88,0,0,1-5.1-7.2c-.9-2-4-8-6.9-13.5-4.5-8.5-5.7-10-7.8-10-3.4,0-3.7,2.9-.5,7a11.69,11.69,0,0,1,2.6,7,13.61,13.61,0,0,0,1.5,6,13.73,13.73,0,0,1,2,4.9c.2,1.4,1.8,4,3.5,5.8s3,4.4,3,6c0,2.2.6,2.9,3.5,3.9,1.9.6,3.5,1.7,3.6,2.3s.2,3,.2,5.2c.2,3.9.3,4,3.4,3.7,1.8-.2,3.3.1,3.3.7,0,2.2,3.7,3.1,6.6,1.6a33.78,33.78,0,0,1,5.8-2.1c2.9-.7,2.9-.7,2.2,2.6-.4,1.8-1,3.6-1.5,3.9a10.63,10.63,0,0,0-2.2,3.2c-1.5,3-9.5,12.3-17.7,20.7-7.2,7.4-8.4,10.5-6.7,17.3a117.63,117.63,0,0,0,3.7,11.6l2.4,6.3-4,3.4c-2.2,1.9-4.8,3.4-5.8,3.4s-1.8.5-1.8,1-.6,1-1.4,1c-2,0-2.6,2.4-2,7.5.6,4.3.5,4.5-3,6.6-2,1.2-3.4,2.5-3.1,3s-1.3,4.4-3.4,8.8c-5.6,11-14.8,17.9-22.2,16.5-1.4-.3-2.9,0-3.3.6-1.1,1.3-3.3,1.1-4.8-.8ZM539.9,210c1.7-3.2.1-12.8-2.6-15.8-1.3-1.4-2.3-3.3-2.3-4.3a3.17,3.17,0,0,0-1-2.4c-2.5-1.5-.8-2.7,3.1-2.1l4.1.6-.3-4.7c-.3-4.1-.7-4.9-3.5-6.4s-3.7-1.6-9.6-.3c-5.2,1.2-6.7,2-8.1,4.3-2.2,3.8-2.1,6.2.3,9.1a8.13,8.13,0,0,1,2,4.1c0,1,1.3,3.3,2.9,5.2,2.5,2.9,2.9,3.9,2.4,7.4s-.2,4.3,1.8,5.7c3.2,2.3,9.4,2.1,10.8-.4ZM559,189.2c2.1-3.7,3.1-10.3,1.7-11.9a6.13,6.13,0,0,0-4-1.3c-2.2,0-3.4.8-4.9,3.2-2.5,4.1-2.5,5.4.3,9.4S556.9,192.9,559,189.2ZM513.9,373.5a9.15,9.15,0,0,0-1.6-3.9c-1.2-1.9-1.3-2.8-.4-4.5a12.54,12.54,0,0,0,1-5.3c-.3-5.2-.2-5.4,4.5-6.6,3.7-.9,4.5-1.5,4.5-3.4,0-3.7,2.8-6.9,5.8-6.5,2.3.3,2.6.7,2.4,3.7-.1,1.8-1.5,5.9-3,9a39.65,39.65,0,0,0-2.9,7.2c-1,6.6-2.7,9.9-5.6,10.9C514.6,375.4,513.9,375.3,513.9,373.5Zm269.5-33.6a6.38,6.38,0,0,0-3.5-2c-.9-.1-3.6-.2-6.1-.4-7.6-.5-12.3-2.4-18.5-7.6-5.3-4.5-7.3-5.5-9.8-5.1-.4.1-1-1-1.4-2.4s-1-2.5-1.5-2.5-.9-.7-.9-1.5c0-2.5,4.3-1.7,6.6,1.2,2.1,2.6,2.4,2.7,5.5,1.5s3.7-1,6.8,1.2a23.71,23.71,0,0,0,7.9,3.1c4.2.7,6.5,2.2,8.6,5.8a5.3,5.3,0,0,0,3.5,2,5.27,5.27,0,0,1,3.9,3.3c.8,1.6,1.8,3.1,2.2,3.2a1.3,1.3,0,0,1,.8,1.2c.4,1.7-2,1.1-4.1-1ZM683,335.6c-5.1-1.6-6.9-2.5-5.7-2.9,3.1-1.2,9.7-.7,13.2,1,2.7,1.3,3.2,1.9,2.3,3C691.4,338.3,692,338.4,683,335.6Zm27.4-6.6a2.13,2.13,0,0,1-.1-1.9c.3-.5-.1-1.2-.9-1.5-2-.7-1.9-4.6,0-4.6.9,0,1.5-.9,1.5-2.4,0-2.4,2.3-5.6,4-5.6,1.9,0,4,1.3,3.5,2.1-.3.5-1.2.6-2,.3-2.1-.8-2.9,2.3-1.1,4.2,2.3,2.3,2.1,7.2-.4,8-1.1.3-2,1.1-2,1.6,0,1.1-1.7,1.1-2.5-.2Zm-42.5-4.5a4.73,4.73,0,0,0-2.9-1.6c-2.4,0-4.7-2.1-5.6-5-.4-1.4-3.1-4.6-5.9-7.1s-4.8-5-4.5-5.3c.7-.7,12.9,5.6,16.2,8.4,2.5,2.1,5.9,10.2,4.8,11.3-.4.5-1.4.2-2.1-.7Zm21.7-4.2c-4.9-1.4-5.2-1.9-4.1-7.1.5-2.4,1.5-3.4,4.4-4.6,2.1-.8,4.3-2.3,4.8-3.3a10.9,10.9,0,0,1,4-3.5c2.9-1.7,3.1-1.7,5,.3,2.9,3.1,2.1,11.8-1.5,16.5-2.1,2.7-2.9,3.2-4,2.3a2,2,0,0,0-2.6-.2c-.8.6-2.9.5-6-.4Zm-84.7-26.5a5.42,5.42,0,0,1,.9-2.6c1.1-1.7,2.5.3,1.7,2.4-.7,1.7-2.6,1.9-2.6.2Zm107.9-17c-.9-2.3-.7-6.7.2-7.3s.9-.3.5.4-.3,1.2.2,1.2c.8,0,3.2,4.2,3.2,5.5C716.9,277,712.9,277.2,712.8,276.8ZM221.9,256.2c0-1.5,4.8-3.5,6.7-2.7,1.7.7,1.7.8-.1,2.1C226.3,257.1,221.9,257.5,221.9,256.2Zm-12-4.2c0-1.2-1.1-1.9-3.5-2.3a11.36,11.36,0,0,1-5.2-2.2c-1.2-1.2-2.7-1.5-5-1.1-1.8.3-3.3.1-3.3-.4a.91.91,0,0,1,.8-1,20.7,20.7,0,0,0,2.8-.6c5.3-1.4,9.2-1.4,10.6-.1.8.8,3.8,2.3,6.7,3.3s5.2,2.4,5.2,3-2,1.6-4.5,2.2C210.4,253.6,209.9,253.5,209.9,252Zm543.3-30.6a2.65,2.65,0,0,0-2.4-1.4c-2.2,0-3.1-1.2-2-2.9.7-1.1,2.7-1.9,5.7-2.1.6,0,3.4-2.3,6.2-5.1s5.4-4.6,5.7-4a2.31,2.31,0,0,1-.6,2.5c-.7.8-.9,1.5-.5,1.5s0,1.1-.9,2.5a10.5,10.5,0,0,0-1.6,4.8c0,3.4-1.1,4.4-5.3,5.1C754.8,222.7,753.6,222.5,753.2,221.4Zm14.4-27.1c-1.3-.3-1.6-1-1.1-2.6a22.24,22.24,0,0,1,.8-2.3,15.25,15.25,0,0,1,3.6.5c3.5.7,5.5,3.1,2.7,3.1-.9,0-1.6.4-1.6,1-.1,1-1.3,1.1-4.4.3Zm4.1-13c-1-1.2-1.4-5-1.4-13.5,0-16.8,1.2-19.1,3-5.8a18.89,18.89,0,0,0,2.1,6.7c1.3,2,1.3,2.6-.5,5.9-1.4,2.6-1.7,4.2-1,5.5,1.3,2.4-.4,3.3-2.2,1.2ZM261.5,168.4c-.3-.9-1-1.3-1.5-1a1.78,1.78,0,0,1-2-.7c-.8-.9-.6-2.1.9-4.5,1.1-1.8,2.4-3.2,3-3.2,1.6,0,7,6.2,7,8,0,3.1-6.3,4.2-7.4,1.4Zm131-10.4a37.29,37.29,0,0,0,.8-5.6,7.67,7.67,0,0,1,1.2-3.5c1.2-1.5.1-5.9-1.6-5.9-.5,0-1.2-1.3-1.6-3s-1.3-3.4-2.1-3.8c-1.5-.8-1.5-4.6,0-6.9,1.1-1.7,5.3-1.6,6,.2a12.61,12.61,0,0,1,0,4.8c-.4,2.6,0,4,2,6.4a18.44,18.44,0,0,1,3.2,5.7,8.07,8.07,0,0,0,2.1,3.8c1.7,1.4,1.8,5.3.2,6.7a17.24,17.24,0,0,1-5.2,1.7c-2.2.4-4.4,1.2-4.8,1.9-.6.5-.6-.6-.2-2.5Zm-13.1-7.2c.7-3.1,4.8-9.2,5.6-8.3a14.9,14.9,0,0,1,0,4.5c-.3,3.3-.9,4.4-3.4,5.6l-3,1.5.8-3.3ZM288.1,113c-5.7-1.4-5.4-.7-12-23a35.21,35.21,0,0,0-2.4-6.4c-1.9-2.3-.8-9.5,2.2-13.9,3.7-5.5,3.7-6.9.1-9.9-3.3-2.7-4.8-6.2-3.1-7.3.6-.4,2,.1,3,1.1s2.2,1.5,2.6,1.1c1.1-1.1-.7-7.7-2.1-7.7a3.53,3.53,0,0,1-2.4-1.7c-.8-1.4-1.2-1.5-2.5-.4-2.5,2-3.6.4-3.6-5.1,0-3.5-.6-5.7-1.7-7s-1.8-3.6-1.8-6.6c0-2.6-.4-5.3-.8-5.9a28.67,28.67,0,0,1-1.9-5.9c-.9-3.5-1.9-5.1-4.2-6.4-3.3-1.9-10.7-2.5-16.1-1.3-2.8.6-3.3.4-4.8-2.3A18.44,18.44,0,0,1,235,.8c0-.3,26.5-.5,58.9-.5h58.9l.8,3.2c1.2,5,.7,8.1-1.6,9.8s-2.5,7.7-.2,7.2c1.9-.4,1.5,1.2-.7,3.2-1.1,1-1.7,2.4-1.4,3.2.6,1.6.8,1.6-9.8,2.2-3.7.2-4.5,3-1.2,4.2,2.2.8,2.5,1.4,2,3.9s-.2,3.2,1.6,4.1c4.1,2.1,6.7,5.2,6.7,8,0,3.2-2.4,4.5-4.2,2.3-2.9-3.5-4.8-5.4-5.5-5.4-.4,0-1.5,1.4-2.5,3.1-1.1,1.9-2.3,2.9-3.2,2.6-1.6-.6-3.9,1.6-2.9,2.7a6.54,6.54,0,0,0,3.5.7,4.16,4.16,0,0,1,3.9,2,4.22,4.22,0,0,0,4,2c2.2,0,3,.5,3,1.9,0,2.6-1.8,3.8-7.2,5.1a20.05,20.05,0,0,0-8.5,4.5c-2.1,1.9-4.7,3.5-5.8,3.5-1.7,0-5.6,4.4-10.3,11.6a11.47,11.47,0,0,1-3.7,2.5c-2,1-3.5,2.8-4.6,5.8-.9,2.4-2.7,5.2-3.9,6.1-1.6,1.2-2.1,2.4-1.8,3.8.7,2.8-3.3,9.7-5.8,9.9a53.74,53.74,0,0,1-5.4-1ZM239,103.7c-1-1.2-2.3-1.5-5-1.1-3.5.6-3.8.4-7.6-5.3-3.8-5.5-4.2-5.8-8.4-6-9.3-.4-7.6-8.6,2-9.5,3.3-.3,3.4-.5,3.4-4.7,0-2.4-.5-5.1-1.2-6-1.1-1.5-1.5-1.3-3.8,1.2s-2.8,2.7-4.8,1.4c-4.5-3-2.4-5.8,4.7-6.1,3.3-.2,2.8-2.1-.8-3.4-1.9-.7-3.7-1.9-4-2.7a1.63,1.63,0,0,0-2.1-.9c-1,.4-1.5,0-1.5-1,0-1.8-3.7-3.6-5.8-2.8a3.2,3.2,0,0,1-2.7-.7,3.89,3.89,0,0,0-3.5-.5c-1.5.5-3.3-.3-6.8-3.1a68,68,0,0,1-5.5-4.8c-.4-.6-.6-4.2-.3-8,.4-6,.9-7.3,3.2-9.4,2.6-2.3,2.8-2.3,4.1-.5a5.94,5.94,0,0,1,.7,4.6c-.8,3.7,1.8,3.7,5,0l2.4-2.8,1,2.5c2.1,5.1,3.7,6.2,8.1,5.8,2.2-.2,4.1-.1,4.1.2s2.3.6,5.1.6c6,0,7.2,1.3,6.4,6.6-.5,3.4-.4,3.8,1.7,3.8,3.4,0,9.8,7,9.8,10.7a7.75,7.75,0,0,1-1,4c-.7.7.3,1.6,3.3,2.7,2.4.9,5,2.7,5.7,4a11,11,0,0,0,5.2,3.9c2.7,1.1,3.7,2,3.3,3A4.87,4.87,0,0,0,254,83c1.8,3.4-.4,5.2-5.8,4.9s-6,.7-4.1,6.3c1,3.1,1,4.2.1,5.1s-1.5.8-2.5-.5c-1.4-1.8-4.6-2.4-4.6-.8,0,.5.9,1.6,2.1,2.4a4,4,0,0,1,1.8,3.2c-.6,1.6-.7,1.6-2,.1Zm-45.9-5.9c-3.8-2.7-4-4.3-1-8.1l2.3-2.8,4.7,2.3c3.6,1.7,4.7,2.8,4.7,4.6s-.6,2.3-2.1,2.3a6.19,6.19,0,0,0-3.8,2l-1.7,2-3.1-2.3Zm163.3-1a21.84,21.84,0,0,0-6-1.7c-3.9-.5-4-.6-4.3-4.9-.4-5.5.5-6.5,4.7-5,2.4.9,3.5.9,4,0,.4-.6,2.7-1.4,5.1-1.7,3.9-.5,4.8-.3,7.2,2,3.3,3,3,3.9-3.1,9-4.8,3.9-4.8,3.9-7.6,2.3Zm171-29.7c-.3-.5.1-1.2.9-1.5s1.5-.2,1.5.3C529.9,67.3,528.1,68.2,527.4,67.1ZM127.1,62.5c-6.5-3-6.7-4.9-.8-6.4,3-.7,4.5-1.7,4.5-2.7,0-1.3-1.1-1.5-6.2-1.2l-6.2.3.3-5.5c.5-7.6,2-9.6,8.3-10.9,4.8-1,5.4-.9,6.8.8a8.93,8.93,0,0,0,4.3,2.6c1.5.4,2.8,1.2,2.8,1.9s1.5,2.1,3.2,3.2,3.3,2.9,3.5,4.1,1.6,2.8,3.2,3.8c3.4,2,4.6,5.4,3.2,9.3-.8,2.2-1.4,2.7-3.3,2.3-3.5-.7-12-.5-15.4.2C133.2,64.8,130.9,64.3,127.1,62.5ZM162.4,64c-.9-1.4.3-3,2.3-3s5.4,2.4,4.5,3.3C168.2,65.4,163.1,65.1,162.4,64Zm380.9-9.9a7.77,7.77,0,0,0-3.9-1.2c-3.9-.4-5.8-4.8-3.2-7.6a6.84,6.84,0,0,0,1.7-3.8,7.68,7.68,0,0,1,1.4-3.7c1.2-1.5,1.7-1.6,3.4-.6,1.5,1,1.8,1.7,1.1,3-.6,1.1-.6,3.3.1,6.1,1.9,7.8,2,8.8,1.2,8.8A4.09,4.09,0,0,1,543.3,54.1Zm-440-7.9c-2.3-1.6-4.1-5.4-3.7-7.7.3-1.4.8-2.5,1.2-2.5,1.1,0,2.2-4.1,2-7.7-.3-5,3-5.9,13.6-3.8,2.5.5,7.4,5.2,7.4,7.1,0,.7-2,2.8-4.5,4.6s-4.9,4.5-5.4,5.9a5.34,5.34,0,0,1-2.8,3.2C106.4,46.6,104.3,46.9,103.3,46.2Zm57.2-.9a3.61,3.61,0,0,1-.7-2.2c0-.9-1.5-2.4-3.2-3.4l-3.2-1.9,2.2-1.5a5.13,5.13,0,0,0,2.2-4c0-2.2.4-2.4,3.2-2.1s3.3.7,3.6,3.3c.2,1.7,1,3.6,1.9,4.2,1.5,1.1,1.5,1.5,0,4.8s-4.2,4.6-6,2.8Zm10.8-9.1a17.2,17.2,0,0,0-1.4-3.8c-1-1.4.6-5.4,2.5-6.1a5.42,5.42,0,0,1,3.3.2,21.09,21.09,0,0,0,3.8,1.1,29.57,29.57,0,0,1,3.2.8c1.9.7.4,4.3-2.5,6.2a11.68,11.68,0,0,0-3.4,3C175.1,40.1,172,39.2,171.3,36.2Zm37.9-2.4q-3.15-2.25-3-4.5c.2-2.8.7-2.8,4-.2,1.4,1.1,2.6,1.8,2.6,1.4s.7-.1,1.5.5c1.1.9,1.2,1.7.5,3.1-1.3,2.4-1.8,2.4-5.6-.3ZM766.3,32c-.9-1.4,1.4-4,3.5-4,1.9,0,3.4,2.5,2.4,4.1C771.5,33.3,767.1,33.2,766.3,32ZM542.9,29.6a2.53,2.53,0,0,1,.9-2c.5-.3,1.1-2.4,1.4-4.6.7-4.9,3.1-9,5.5-9,1,0,2.6-1.6,3.7-3.8,1.9-3.6,2.2-3.8,7.9-3.9,4.2-.1,6.6-.7,8.7-2.2,3.4-2.5,4.5-2.6,5.3-.7.6,1.6-3.1,5-6.7,6.1a14.78,14.78,0,0,0-4.8,3.5,13.85,13.85,0,0,1-5.5,3.5c-2.6.6-11.4,8.8-11.4,10.5,0,.4-1.1,1.4-2.5,2.3C543.3,30.8,542.9,30.8,542.9,29.6ZM188.4,21.5c-1.6-.7-4.2-1.8-5.7-2.4-2.4-.9-2.8-1.8-3.4-7.2-.7-5.9-.8-6.2-4.5-7.6-4.8-1.9-6-4.4-2.2-4.3a9.34,9.34,0,0,1,4.7,1.5A8,8,0,0,0,181.1,3c1,0,1.8.6,1.8,1.2.1,3,2.8,4.7,9.5,5.7,3.8.6,9.1,1.5,11.7,2.1,4.4,1,4.8,1.3,4.8,4,0,2-.4,2.7-1.2,2.2-.6-.4-1.7.1-2.4,1-1,1.4-1.7,1.5-3.3.6s-2.7-.7-5.3.9C192.9,23.3,192.4,23.3,188.4,21.5Zm-60-2.8.7-3.5-4.6.5c-4.3.5-4.6.4-4.6-1.7a24.83,24.83,0,0,1,1.2-6.1c1.3-4.4,3.5-5,6.4-1.8,1.4,1.5,2,1.7,2.6.8s1.3-.8,2.8.6c2,1.8,2.1,1.8,3.6-1.8a11.86,11.86,0,0,1,1.9-3.6,18.37,18.37,0,0,1,2.5,3.5c1.3,2.2,2.8,3.5,4.1,3.5,2.9,0,3.4,2.2,1.5,5.9-1.7,3.4-3.3,3.9-4.2,1.6-.6-1.5-3.5-2.2-3.2-.8.6,3.6-.2,4.5-3.5,4a7.35,7.35,0,0,0-5.6,1C127.8,22.2,127.8,22.1,128.4,18.7ZM759,20.1l-3.3-1.8,3.3-3.5c2.8-2.9,4.1-3.5,7.5-3.5s4.3.4,5.3,2.4c1.5,3.2.7,4.3-3.3,4.3-2.2,0-3.8.7-4.7,2C762.4,21.8,762.3,21.8,759,20.1Zm-587.9-.7a9.82,9.82,0,0,1-3-4.7c-1.1-4.2-4.2-5-4.2-1.1v2.8l-2.1-2.1c-2-2-2.3-2-4.4-.7s-2.3,1.3-2.9-1.5a14.15,14.15,0,0,0-2.6-5.2c-2.6-3-2.5-4.3.3-3.4a13.4,13.4,0,0,0,8.4,0c1.9-.6,2.4-.2,3.7,2.9.8,2,2.2,3.6,3,3.6,2.8,0,7.7,5,7.4,7.6C174.2,20.9,173.6,21.2,171.1,19.4Z" transform="translate(0.03 0)"/></svg>