<?xml version="1.0" encoding="utf-8"?>
<!-- Generator: Adobe Illustrator 22.0.1, SVG Export Plug-In . SVG Version: 6.00 Build 0)  -->
<svg version="1.1" id="Layer_1" xmlns="http://www.w3.org/2000/svg" xmlns:xlink="http://www.w3.org/1999/xlink" x="0px" y="0px"
	 viewBox="0 0 474.8 618.5" style="enable-background:new 0 0 474.8 618.5;" xml:space="preserve">
<style type="text/css">
	.st0{fill:#FFFFFF;}
</style>
<g id="WoT_x5F_Symbol_x5F_WhiteC">
	<path id="WoT_x5F_Symbol_x5F_WhiteC_1_" class="st0" d="M322.9,175.7h85.2v199.5l-65.5,65.5l-60.2-60.2l40.6-40.6V175.7z
		 M151.9,339.9l40.6,40.6l-60.2,60.2l-65.5-65.5V175.7h85.2V339.9z M134.5,6.1L19.7,120.9v273.7l217.7,217.7l217.7-217.7V120.9
		L340.3,6.1H134.5z M431.6,384.9L237.4,579.2L43.2,384.9V130.7l101-101h186.4l101,101V384.9z M320.8,53.2l87.3,87.3H281l0,361.9
		l-43.6,43.6l-43.6-43.6V140.4H66.7L154,53.2H320.8z"/>
</g>
</svg>
