<?xml version="1.0" encoding="utf-8"?>
<!-- Generator: Adobe Illustrator 22.0.1, SVG Export Plug-In . SVG Version: 6.00 Build 0)  -->
<svg version="1.1" id="Layer_1" xmlns="http://www.w3.org/2000/svg" xmlns:xlink="http://www.w3.org/1999/xlink" x="0px" y="0px"
	 viewBox="0 0 1000 526.9" style="enable-background:new 0 0 1000 526.9;" xml:space="preserve">
<style type="text/css">
	.st0{fill:none;}
	.st1{fill:#FFFFFF;}
</style>
<g id="WoT_x5F_Logo_x5F_MainVersion_x5F_WhiteC">
	<rect id="SaveZone" y="0" class="st0" width="1000" height="526.9"/>
	<path id="WoT_x5F_Logo_x5F_MainVersion_x5F_WhiteC_1_" class="st1" d="M311.2,338.1c0-4.7-0.5-7.2-2.7-9.4c-2.4-2.3-5.3-3.3-9-3.3
		c-3.4,0-3.4,0-3.4,0c0,32,0,32,0,32c2.7,0,2.7,0,2.7,0c1.8,0,6.4,0.1,9.9-3.5c2.3-2.4,2.5-5,2.5-9.6
		C311.2,341.6,311.2,339.9,311.2,338.1z M324.1,374.7c14.7,53.9,14.7,53.9,14.7,53.9c-25.6,0-25.6,0-25.6,0
		c-11.4-47.5-11.4-47.5-11.4-47.5c-5.8,0-5.8,0-5.8,0c0,47.5,0,47.5,0,47.5c-24.8,0-24.8,0-24.8,0c0-126.9,0-126.9,0-126.9
		c28.9,0,28.9,0,28.9,0c5.1,0,10.8,0.7,15,1.9c4.3,1.3,7.9,3.3,11,6.3c3.1,2.8,5.4,6.6,7.1,11.4c1.8,4.6,1.9,9.5,1.9,16.2
		c0,1.8,0,7.2,0,10.8C335.2,363.5,329.1,370.8,324.1,374.7z M525,344.8c0,83.5,0,83.5,0,83.5c17.3,0,17.3,0,17.3,0
		c0-30.8,0-30.8,0-30.8c17.4,0,17.4,0,17.4,0c0-16.5,0-16.5,0-16.5c-17.4,0-17.4,0-17.4,0c0-19.7,0-19.7,0-19.7
		c19.7,0,19.7,0,19.7,0c0-16.6,0-16.6,0-16.6l0,0H525z M733,360.7c-0.6,0-0.6,0-0.6,0c-21.8-59.1-21.8-59.1-21.8-59.1
		c-23.8,0-23.8,0-23.8,0c0,126.7,0,126.7,0,126.7c24.8,0,24.8,0,24.8,0c0-59.3,0-59.3,0-59.3c0.6,0,0.6,0,0.6,0
		c21.9,59.3,21.9,59.3,21.9,59.3c23.7,0,23.7,0,23.7,0c0-126.7,0-126.7,0-126.7c-24.8,0-24.8,0-24.8,0V360.7z M648.6,381.1
		c-6.2-39.3-6.2-39.3-6.2-39.3c-0.5,0-0.5,0-0.5,0c-6.2,39.3-6.2,39.3-6.2,39.3H648.6z M657.1,301.6
		c24.6,126.7,24.6,126.7,24.6,126.7c-25.7,0-25.7,0-25.7,0c-3.7-23.7-3.7-23.7-3.7-23.7c-20.1,0-20.1,0-20.1,0
		c-3.7,23.7-3.7,23.7-3.7,23.7c-25.7,0-25.7,0-25.7,0c24.6-126.7,24.6-126.7,24.6-126.7H657.1z M439.1,333.2c0-3-0.6-5-1.8-6.3
		c-1.2-1.2-2.8-1.8-4.9-1.8c-6.5,0-6.5,0-6.5,0c0,79.5,0,79.5,0,79.5c6.5,0,6.5,0,6.5,0c2,0,3.7-0.6,4.9-1.8
		c1.2-1.2,1.8-3.2,1.8-6.2V333.2z M455.8,310.1c5.3,5.7,8.1,13.9,8.1,24.5c0,60.6,0,60.6,0,60.6c0,10.7-2.7,18.8-8.1,24.5
		c-5.5,5.7-13.1,8.5-23.3,8.5c-31.3,0-31.3,0-31.3,0c0-126.7,0-126.7,0-126.7c31.3,0,31.3,0,31.3,0
		C442.7,301.6,450.4,304.4,455.8,310.1z M499,365.9c0-2.1-0.5-3.6-1.3-4.4c-0.8-0.8-1.9-1.3-3.3-1.3c-1.4,0-2.5,0.5-3.3,1.3
		c-0.8,0.8-1.3,2.2-1.3,4.4c0,41.5,0,41.5,0,41.5c0,2,0.5,3.4,1.3,4.3c0.8,0.8,1.9,1.3,3.3,1.3c1.4,0,2.5-0.5,3.3-1.3
		c0.8-0.8,1.3-2.3,1.3-4.3V365.9z M510.7,349.7c3.8,4,5.7,9.7,5.7,17.2c0,39.4,0,39.4,0,39.4c0,7.5-1.9,13.1-5.7,17.2
		c-3.7,3.9-9.1,5.9-16.2,5.9s-12.5-2-16.3-5.9c-3.7-4-5.6-9.7-5.6-17.2c0-39.4,0-39.4,0-39.4c0-7.5,1.9-13.2,5.6-17.2
		c3.8-3.9,9.2-5.9,16.3-5.9S507,345.8,510.7,349.7z M860.1,334.1c0-5.2,2.5-9.9,8.3-9.9c6.6,0,8.5,6.5,8.4,12.3
		c23.7,0,23.7,0,23.7,0c-0.1-27.8-19.3-35.9-31.6-35.9c-13.9,0-33.5,8.1-33.5,32.7c0,34.5,41.4,42.4,41.4,62.7c0,5.2-3,10.2-9.3,9.9
		c-6.5-0.4-9-6.6-9-12.3c0-3.7,0-3.7,0-3.7c-23.7,0-23.7,0-23.7,0c0,3.7,0,3.7,0,3.7c0,27.7,21.3,35.9,33.8,35.9
		c15.2,0,33-8.1,33-32.7C901.5,362.2,860.1,354.3,860.1,334.1z M839.1,301.6c-25.7,0-25.7,0-25.7,0c-20.5,41.9-20.5,41.9-20.5,41.9
		c-0.8,0-0.8,0-0.8,0c0-41.9,0-41.9,0-41.9c-24.8,0-24.8,0-24.8,0c0,126.7,0,126.7,0,126.7c24.8,0,24.8,0,24.8,0
		c0-49.5,0-49.5,0-49.5c0.7,0,0.7,0,0.7,0c20.6,49.5,20.6,49.5,20.6,49.5c25.7,0,25.7,0,25.7,0c-28.5-68.5-28.5-68.5-28.5-68.5
		L839.1,301.6z M237.9,332.2c0-3-0.6-5-1.8-6.3c-1.2-1.2-2.8-1.8-4.9-1.8c-2,0-3.6,0.6-4.7,1.8c-1.2,1.3-1.8,3.3-1.8,6.3
		c0,65.6,0,65.6,0,65.6c0,3,0.6,5,1.8,6.2c1.2,1.3,2.7,1.9,4.7,1.9c2,0,3.7-0.6,4.9-1.9c1.2-1.2,1.8-3.2,1.8-6.2V332.2z
		 M254.6,309.1c5.3,5.7,8.1,13.9,8.1,24.5c0,62.8,0,62.8,0,62.8c0,10.7-2.7,18.8-8.1,24.5c-5.4,5.7-13.1,8.5-23.3,8.5
		c-10.1,0-17.9-2.8-23.2-8.5c-5.5-5.7-8.1-13.9-8.1-24.5c0-62.8,0-62.8,0-62.8c0-10.7,2.6-18.8,8.1-24.5c5.3-5.7,13.1-8.5,23.2-8.5
		C241.4,300.5,249.1,303.4,254.6,309.1z M165.6,359.2c-0.5,0-0.5,0-0.5,0c-6.5-57.6-6.5-57.6-6.5-57.6c-21.8,0-21.8,0-21.8,0
		c-6.5,57.6-6.5,57.6-6.5,57.6c-0.4,0-0.4,0-0.4,0c-6.4-57.6-6.4-57.6-6.4-57.6c-25.1,0-25.1,0-25.1,0
		c16.6,126.7,16.6,126.7,16.6,126.7c25.2,0,25.2,0,25.2,0c7.2-51.3,7.2-51.3,7.2-51.3c0.5,0,0.5,0,0.5,0c7.2,51.3,7.2,51.3,7.2,51.3
		c25.2,0,25.2,0,25.2,0c16.7-126.7,16.7-126.7,16.7-126.7c-25.1,0-25.1,0-25.1,0L165.6,359.2z M368.6,301.6c-24.7,0-24.7,0-24.7,0
		c0,126.7,0,126.7,0,126.7c50.3,0,50.3,0,50.3,0c0-23.7,0-23.7,0-23.7c-25.6,0-25.6,0-25.6,0V301.6z M613.6,301.6
		c-65.7,0-65.7,0-65.7,0c0,23.6,0,23.6,0,23.6c20.5,0,20.5,0,20.5,0c0,103.2,0,103.2,0,103.2c24.8,0,24.8,0,24.8,0
		c0-103.2,0-103.2,0-103.2c20.5,0,20.5,0,20.5,0V301.6z M500,296.2c16.1-16.1,16.1-16.1,16.1-16.1c0-133.2,0-133.2,0-133.2
		c46.8,0,46.8,0,46.8,0c-32.2-32.1-32.2-32.1-32.2-32.1c-61.3,0-61.3,0-61.3,0c-32.2,32.1-32.2,32.1-32.2,32.1c46.8,0,46.8,0,46.8,0
		c0,133.2,0,133.2,0,133.2L500,296.2z M531.5,220.2c-14.9,14.9-14.9,14.9-14.9,14.9c22.2,22.3,22.2,22.3,22.2,22.3
		c24.2-24.2,24.2-24.2,24.2-24.2c0-73.4,0-73.4,0-73.4c-31.4,0-31.4,0-31.4,0V220.2z M428.5,236.8c71.5,71.5,71.5,71.5,71.5,71.5
		c71.5-71.5,71.5-71.5,71.5-71.5c0-93.6,0-93.6,0-93.6c-37.2-37.2-37.2-37.2-37.2-37.2c-68.7,0-68.7,0-68.7,0
		c-37.2,37.2-37.2,37.2-37.2,37.2V236.8z M500,320.5c-80.2-80.1-80.2-80.1-80.2-80.1c0-100.8,0-100.8,0-100.8
		c42.3-42.3,42.3-42.3,42.3-42.3c75.8,0,75.8,0,75.8,0c42.3,42.3,42.3,42.3,42.3,42.3c0,100.8,0,100.8,0,100.8
		C500,320.5,500,320.5,500,320.5L500,320.5z M468.5,220.2c14.9,14.9,14.9,14.9,14.9,14.9c-22.1,22.3-22.1,22.3-22.1,22.3
		c-24.2-24.2-24.2-24.2-24.2-24.2c0-73.4,0-73.4,0-73.4c31.4,0,31.4,0,31.4,0V220.2z"/>
</g>
</svg>
