<?xml version="1.0" encoding="utf-8"?>
<!-- Generator: Adobe Illustrator 22.0.1, SVG Export Plug-In . SVG Version: 6.00 Build 0)  -->
<svg version="1.1" id="Layer_1" xmlns="http://www.w3.org/2000/svg" xmlns:xlink="http://www.w3.org/1999/xlink" x="0px" y="0px"
	 viewBox="0 0 192 140" style="enable-background:new 0 0 192 140;" xml:space="preserve">
<style type="text/css">
	.st0{fill:#FFFFFF;}
</style>
<path class="st0" d="M187.6,23.7c-2.2-8.3-8.7-14.8-16.9-17.1c-14.9-4-74.6-4-74.6-4s-59.7,0-74.7,4C13,8.9,6.6,15.4,4.3,23.7
	C0.4,38.7,0.4,70,0.4,70s0,31.3,4,46.3c2.2,8.3,8.7,14.8,16.9,17.1c14.9,4,74.6,4,74.6,4s59.7,0,74.7-4c8.3-2.2,14.7-8.7,16.9-17.1
	c3.9-15,3.9-46.3,3.9-46.3S191.6,38.7,187.6,23.7z M76.5,98.5V41.5l50,28.5L76.5,98.5z"/>
</svg>
